<?xml version="1.0" encoding="UTF-8"?><svg id="Layer_1" xmlns="http://www.w3.org/2000/svg" viewBox="0 0 32 32"><defs><style>.cls-1{fill:#e1a542;stroke-width:0px;}</style></defs><path class="cls-1" d="M21.31,17.03c-.05.16-.2.35-.33.35-.26-.14-.1-.44.07-.58.11-.15.28.04.27.23Z"/><path class="cls-1" d="M24.89,12.66c-.15-.42-.78.71-.94.88-.78.94-1.7,1.74-2.4,2.78,0,.17.15.41.28.24.68-.75,1.33-1.54,1.96-2.38.36-.42.76-.76,1.11-1.21.07-.07.08-.17.03-.26,0,0,0-.03,0-.03s-.02,0-.02-.01Z"/><path class="cls-1" d="M26.36,10.65c-.34.23-.57.7-.87,1.01-.11.17-.37.35-.19.59.17.32.62-.52.82-.63.17-.24.64-.5.46-.9-.05-.08-.13-.12-.22-.08Z"/><path class="cls-1" d="M25.04,19.92c-.01-.08-.05-.1-.1-.07-.7.22-1.4.42-2.1.65-.44.12-.94.29-1.42.47-.07,0-.06.17-.06.17,0,.11.09.19.17.17.83-.21,1.59-.57,2.41-.84.35-.13.69-.28,1.04-.39.07,0,.09-.08.06-.16,0,0,.01,0,.01,0s-.01,0-.01,0Z"/><path class="cls-1" d="M29.21,18.51c-.01-.1-.06-.14-.14-.11-.87.17-1.56.41-2.46.75-.51.2-.99.43-1.2.52-.07.01-.1.08-.07.17,0,0-.01,0-.01,0s.02,0,.02,0c-.04.33,2.3-.53,2.58-.61.19-.11,1.46-.43,1.29-.71Z"/><path class="cls-1" d="M31.18,17.6c-.38.21-1.21.51-1.57.64-.09.02-.1.14-.09.23,0,0,0,0,0,0,0,0,0,0,0,0,.06.18.73-.21.91-.2.23-.16,1.06,0,.99-.5-.02-.13-.12-.24-.25-.17Z"/><path class="cls-1" d="M22.39,21.79c-.59-.02-1.2.23-1.84.32-.6.11-1.28.01-1.88.21.39-.01.8-.35,1.17-.44.27-.16,1.14-.15,1.21-.46.03-.13-.03-.22-.06-.24s-.05-.1-.08-.09c-.5.17-1.02.42-1.6.62-.51.21-1.13.22-1.65.51.64-.22,1.26-.75,1.88-1.03.83-.44,1.64-.68,2.39-1.23.2-.14.54-.02.62-.36.03-.05.03-.21,0-.23s-.04-.1-.07-.08c-1.61,1-3.36,1.8-5,2.7.29-.09.53-.5.78-.66.28-.22.57-.36.79-.54.25-.29.77-.58.81-.67.16-.29-.11-.4-.16-.32-.04.07-.09.12-.14.15-.42.21-.75.68-1.17.98-.35.32-.84.48-1.15.87.44-.37.81-1.06,1.22-1.49.48-.57.96-1.02,1.26-1.36.15-.17.26-.4.41-.56.11-.19.59-.3.53-.57-.02-.16-.14-.22-.17-.23-.19-.14-.34.43-.5.56-.15.18-.33.3-.47.47-.4.47-.76,1-1.17,1.47-.38.5-.92.87-1.24,1.41.35-.41.58-1.1.89-1.57.16-.39,1.02-1.3.93-1.61.01-.07-.08-.18-.12-.19s-.11-.04-.15.02c-.3.53-.56,1.11-.87,1.64s-.66,1.01-.97,1.54c0,.07,0,.06.04.04.28-.91.6-1.78.98-2.6.11-.45.3-1.03.5-1.41.13-.59.34-1.09.6-1.57.03-.05.03-.12.01-.18-.02-.06-.18-.23-.22-.21-.22.06-.32,1.05-.5,1.46-.43.84-.69,1.71-.99,2.64-.17.55-.51,1.06-.63,1.62.13-.21.06-.6.12-.86.05-.27.15-.52.2-.79-.02-.24.07-.68.17-.95,0-.04-.05-.08-.06-.11-.02-.11-.14-.18-.21-.13-.24.05-.13.73-.23,1.01-.03.31-.1.97-.23,1.28.12-.71.07-1.89.14-2.63.05-.76.15-1.5.2-2.24,0-.03-.03-.06-.05-.08-.03-.03-.07-.05-.11-.05-.08,0-.18.05-.19.07-.1.13-.03,1.68-.08,2.54-.02.84-.21,1.75-.18,2.58.05-.48-.13-1.03-.13-1.52-.04-.51-.01-1.02-.04-1.49,0-.05-.07-.07-.1-.1-.03-.06-.14-.05-.17.01-.11.12.1,1.35.09,1.87.06.51-.03,1.11.08,1.58.02-.3-.2-.6-.25-.9-.07-.29-.09-.61-.16-.9-.29-1.13-.69-3.1-.92-3.44-.07-.11-.13-.03-.17.04-.05.09-.12.16-.08.26.08.23.13.46.13.73.23.83.44,1.76.63,2.61.21.56.37,1.15.47,1.77,0,0,.04.02.04.02s0-.06,0-.06c-.31-.68-.67-1.32-.98-2,0-.02-.02-.04-.03-.05-.17-.32-.29-.7-.42-1.05-.07-.2-.15-.39-.23-.58-.06-.13-.16-.37-.27-.43-.12-.06-.19.13-.19.16-.01.05.04.13.06.17.03.07.07.14.1.21.27.56.57,1.1.83,1.67.34.67.56,1.52.93,2.12-.24-.53-.71-.91-.96-1.33-.58-.91-.93-1.42-1.47-2.18-.17-.3-.3-.65-.5-.91-.05-.07-.13-.08-.18-.14-.07-.09-.38-.2-.4-.06-.11.26.18.34.27.52.09.13.13.31.22.44.36.36.7.73.96,1.25.19.29.47.59.75.99.23.29.41.84.71,1.1-.25-.41-.69-.63-.97-.98-.32-.34-.81-.99-.9-1.05-.11-.08-.37.07-.23.33.12.1,1.56,1.57,2.16,2.28-.11-.05-.18-.16-.24-.27-.3-.14-.57-.33-.8-.64-.29-.17-.55-.39-.79-.68-.45-.39-.94-.68-1.41-1.03s-1.31-1.09-1.39-1.09c-.12,0-.18.06-.22.16-.05.13-.02.29.08.36.93.67,1.83,1.4,2.75,2.09.3.13.57.31.83.56.18.05.35.12.5.27-.3-.06-.56-.19-.82-.4-.45-.14-1.47-.62-1.92-.93-.03-.02-.07-.04-.11-.04-.09,0-.13-.01-.18-.06-.07-.07-.17-.02-.21.09,0,0,0,.01,0,.02-.03.11.02.24.1.27.31.09.61.23.89.45.45.22.91.36,1.36.58s.87.51,1.32.73c.08.05-.08-.02-.16-.05-.48-.36-1.09-.26-1.62-.46-1.29-.46-2.58-.87-3.88-1.37-.06-.02-.11-.02-.17,0-.22.09-.51.36,0,.46,1.07.16,2.5.64,3.51,1.05.32.11.67.15,1,.26.33.08.68.39,1.01.38-.57-.19-1.22-.09-1.81-.21-.6-.09-1.68-.43-1.77-.34-.02.02-.03.05-.03.09,0,.2.11.36.25.37.91.05,1.83.16,2.74.36,1.01,0,1.39-.08,2.59-.08,1.29,0,1.29.08,2.59.08,0,0,0-.08,0-.08,0,0,0,.08,0,.08.59-.09,1.19-.25,1.79-.34s1.2-.14,1.8-.19c.22-.02.17-.38-.03-.39Z"/><path class="cls-1" d="M7.92,20.16c.12-.22-.79-.38-.95-.48,0,0-.02,0-.03-.01-.73-.21-1.43-.5-2.15-.6-.07-.01-.14.06-.14.17,0,0,0,0,0,0,0,.08.03.16.09.19.4.2.82.33,1.23.46.6.22,1.2.39,1.81.54.1.06.13-.17.15-.27Z"/><path class="cls-1" d="M3.71,18.86c.02-.09,0-.15-.07-.16-.62-.22-1.26-.44-1.87-.64,0,0-.02,0-.02,0-.25-.04-1.14-.64-1.18-.18,0,.12.05.23.13.27.62.27,1.3.34,1.94.59,0,0,0,0,.01,0,.31.09.63.17.95.27.1.04.12-.13.12-.14Z"/><path class="cls-1" d="M6.21,17.78c.03-.07.01-.14-.04-.16,0,0,0,0,0,0s0,0,0,0c-.48-.19-.96-.65-1.45-.71-.14.1-.14.43.03.48.41.17.87.34,1.26.54.09.05.13-.08.2-.12,0,0,0,0,0-.01Z"/><path class="cls-1" d="M10.08,19.41c-.16-.08-.25.13-.32.3-.03.16.23.16.32.22.12.06.22-.05.27-.2.08-.23-.17-.26-.27-.33Z"/><path class="cls-1" d="M9.36,19.37c0-.16,0-.33-.14-.38-.39-.16-.77-.34-1.16-.51s-.78-.34-1.16-.52c-.08-.06-.18.02-.22.13-.08.18,1.11.65,1.28.8.24.06,1.38.95,1.41.47,0,0,0,0,0,0,0,0,0,0,0,0Z"/><path class="cls-1" d="M15.05,8.21c.37.04.23-.71.18-1-.07-.22-.33-.21-.37.05,0,.28-.04.87.19.96Z"/><path class="cls-1" d="M15.19,8.62c-.09,0-.24.03-.21.2.04.76.08,1.51.17,2.26.05.25-.03.83.22.84.08-.02.17-.05.15-.19-.05-.36-.05-3.31-.33-3.12Z"/><path class="cls-1" d="M15.88,16.97c0-1.3-.17-2.63-.3-3.9-.02-.22.03-.67-.2-.65,0,0,0-.02,0-.02,0,0,0,.02,0,.02-.07,0-.12.06-.1.16.11,1.45.07,2.95.3,4.39.02.1.08.17.15.17.05,0,.1-.01.14-.05.03-.03,0-.09.02-.13,0,0,0,0,0,0Z"/><path class="cls-1" d="M19.47,17.21c.05.23.27-.25.36-.35.64-1.05,1.3-2.07,1.9-3.17.06-.13.25-.42.27-.6s-.03-.47-.22-.19c-.85,1.28-1.61,2.69-2.35,4.09-.03.03-.03.06,0,.1,0,.05.02.09.05.12Z"/><path class="cls-1" d="M23.23,10.8c-.24-.19-.34.33-.47.52-.06.2-.38.49-.17.66.17.11.27-.29.4-.41.12-.22.49-.51.24-.78Z"/><path class="cls-1" d="M26.44,17.44c-.04-.28-.5.16-.64.19-.75.48-1.62.9-2.4,1.29-.07.05-.15.09-.21.15-.01.03,0,.06,0,.09,0,.05,0,.08.01.13.03.28.34-.02.45-.07.25-.14.56-.29.87-.46.67-.4,1.24-.6,1.9-.95.13-.04.04-.26.01-.36Z"/><path class="cls-1" d="M29.47,15.82c-.11-.32-.5.13-.68.16-.33.19-.61.33-.95.47-.26.17-.5.18-.73.42-.04.17.05.49.2.39.38-.2.7-.38,1.07-.6.18-.17,1.32-.48,1.08-.83Z"/><path class="cls-1" d="M30.25,15.43c-.07-.31-.59-.06-.51.22.07.4.62.15.51-.22Z"/><path class="cls-1" d="M3.77,16.64c.06-.31-.48-.47-.52-.17-.09.39.48.56.52.17Z"/><path class="cls-1" d="M23.41,17.1c-.11-.28-.58.12-.46.37.13.37.63-.04.46-.37Z"/><path class="cls-1" d="M2.75,21.02c0-.3-.41-.19-.56-.28-.27-.05-.3.49-.03.5.19-.05.59.2.59-.22Z"/><path class="cls-1" d="M4.81,21.21c-.51-.04-1.02-.14-1.53-.17-.03,0-.08.02-.12.04-.1.06-.09.26.02.29s.25.01.33.04c.01,0,.02,0,.04.01,1.24.16,2.49.42,3.75.5.09.03.09-.02.11-.07.02-.05.03-.1.03-.16,0-.07,0-.12-.1-.13-.54-.12-1.92-.33-2.54-.35Z"/><path class="cls-1" d="M9.18,21.71c-.38-.08-.85-.13-1.25-.16-.1-.03-.16.1-.17.21-.13.32,1.2.3,1.39.36,0,0,.01,0,.02,0,.35.05.7.09,1.05.12.08.02.09-.06.1-.14,0-.02,0-.04,0-.06,0,0,0,0,0,0-.01-.08-.05-.14-.1-.15-.33-.1-.69-.11-1.03-.17Z"/><path class="cls-1" d="M7.42,13.51c.12-.09.02-.25-.06-.29-.42-.45-.87-.87-1.25-1.39-.11-.13-.22-.09-.28.02-.17.34.26.5.4.68.29.16.97,1.3,1.19.99Z"/><path class="cls-1" d="M10.05,16.25c.03-.06.03-.12-.02-.15-.68-.83-1.38-1.59-2.13-2.31-.06-.1-.26.11-.28.2.22.4.58.69.86,1.01.45.51.92.97,1.4,1.42.09.1.15-.07.18-.17Z"/><path class="cls-1" d="M12.44,19.13c.06.06.09.02.11-.06.03-.13,0-.27-.08-.36-.67-.75-1.35-1.4-2.02-2.14-.13-.17-.29.16-.15.27.65.66,1.5,1.64,2.14,2.29Z"/><path class="cls-1" d="M13.2,11.45c.3-.07,0-.61-.03-.85-.11-.51-.21-1.03-.33-1.55-.06-.31-.4-.41-.43-.02,0,.31.12.59.21.87.14.47.27.95.4,1.43.02.12.11.16.18.13Z"/><path class="cls-1" d="M14.24,15.36c.27-.08-.11-.98-.13-1.23-.16-.73-.31-1.5-.56-2.18-.38-.12-.31.27-.19.61.11.33.69,3.06.89,2.8Z"/><path class="cls-1" d="M19.11,15.13c.3.14.32-.62.47-.86.15-.48.32-.96.52-1.4.09-.33.41-.72.33-1.07,0-.16-.14-.41-.24-.18-.22.57-.38,1.19-.61,1.77-.17.47-.35.93-.55,1.37-.07.14-.03.32.08.37Z"/><path class="cls-1" d="M6.5,15.49c-.11.07-.19.3-.05.39.72.53,1.43,1.17,2.19,1.57.08.04.18-.04.17-.17,0-.05-.02-.1-.07-.13-.31-.26-.65-.55-1.03-.86,0,0,0,0-.02-.01-.24-.13-1.05-.94-1.2-.79Z"/><path class="cls-1" d="M5.34,14.68c.19-.37-.3-.5-.46-.64-.54-.41-1.09-.81-1.61-1.27-.14-.16-.32.09-.27.3.25.32.64.45.93.72.34.26.69.49,1.01.79.13.08.33.31.41.1Z"/><path class="cls-1" d="M10.22,9.75c.17-.14.03-.42-.05-.59-.09-.18-.19-.6-.41-.49-.27.19-.01.57.08.78.08.18.2.48.38.3Z"/><path class="cls-1" d="M11.69,12.98c.32,0-.87-2.05-.96-2.36-.08-.19-.23.03-.25.16.03.16.12.31.19.45.24.59.49,1.17.76,1.74.05.14.18.04.26,0Z"/><path class="cls-1" d="M13.32,16.75c.27-.03.02-.39-.06-.61-.19-.26-.51-1.53-.75-1.43-.1.02-.17.18-.1.3.2.32.7,1.73.91,1.73Z"/><path class="cls-1" d="M12.36,14.05c-.07-.26-.29-.55-.42-.19-.03.19.1.43.21.54.14.08.3-.15.21-.34Z"/><path class="cls-1" d="M18.09,11.84c-.22-.34-.32,1.49-.39,1.68-.24,1.22-.48,2.52-.73,3.73,0,.13-.12.46,0,.49,0,0,0,.02,0,.02s0-.02,0-.02c.29.59.4-.49.4-.72.09-.56.2-1.13.29-1.71.14-1.1.38-2.1.58-3.17.03-.05-.09-.25-.15-.3Z"/><path class="cls-1" d="M18.21,11.1c.38.18.36-.75.41-1.08.1-.83.34-1.6.45-2.43.01,0,.01,0,0,0,.04-.12-.03-.19-.07-.28-.38-.45-.45,1.32-.52,1.62,0,.49-.59,1.92-.27,2.16Z"/><path class="cls-1" d="M22.58,17.71c-.11-.36-.65.38-.83.45-.29.25-.59.48-.9.68-.12.12-.38.2-.28.47.11.23.29-.03.42-.11.28-.26.58-.5.88-.73.15-.18.87-.47.71-.76Z"/><path class="cls-1" d="M26.73,14.52c-.14-.31-.37.08-.53.16-.36.35-.74.64-1.12.91-.43.34-.87.63-1.28,1.01-.14.09-.09.33.02.41.8-.35,1.49-1.23,2.26-1.73.18-.19.84-.35.65-.77Z"/><path class="cls-1" d="M26.29,21.43c.08-.3-1.31.12-1.5.1-.65.06-1.32.14-1.99.25-.11,0-.08.09-.08.19.03.01.02.07.05.09,1.06-.09,2.13-.34,3.18-.43.1-.06.35.04.34-.17,0,0,0-.03,0-.04Z"/><path class="cls-1" d="M29.17,20.86s0,0-.01,0c-.46.07-.87.11-1.23.16-.49.09-.88.1-1.22.2-.07.02-.12.12-.1.22.01.06.05.11.11.09.85-.05,1.7-.26,2.55-.33,0,0,.01,0,.02,0,.08-.02.19-.01.18-.17-.01-.19-.2-.2-.3-.18Z"/><path class="cls-1" d="M30.36,20.78c-.04-.33-.54-.22-.48.12.02.34.56.25.48-.12Z"/><path class="cls-1" d="M9.92,13.65s.02-.1,0-.14c-.29-.46-.59-.92-.88-1.38-.09-.13-.2-.11-.26-.02-.21.38.35.73.49,1.03.16.22.33.43.49.66.08.12.15-.05.18-.14Z"/><path class="cls-1" d="M11.25,15.49c-.32-.48-.65-.96-.98-1.44-.07-.11-.17-.04-.19.08,0,.07,0,.15.05.2.47.68.94,1.35,1.38,2.05.61.06-.12-.66-.26-.89Z"/><path class="cls-1" d="M16.75,10.58c-.02.23.24.3.27.05,0-.26.16-.57.05-.81-.41-.37-.31.43-.31.75Z"/><path class="cls-1" d="M16.97,11.5c.07-.25-.23-.41-.27-.14-.02.12-.01.29.1.29.08.02.17-.03.17-.15Z"/><path class="cls-1" d="M16.58,15.01c.34.15.23-1.42.31-1.74-.02-.31.22-1.15-.11-1.19,0,0,0-.01,0-.01s0,.01,0,.01c-.28.02-.18.86-.22,1.15.02.29-.21,1.81.02,1.78Z"/></svg>