<?xml version="1.0" encoding="UTF-8"?><svg id="Layer_1" xmlns="http://www.w3.org/2000/svg" viewBox="0 0 1500 718.29"><defs><style>.cls-1{fill:#fff;stroke-width:0px;}</style></defs><path class="cls-1" d="M459.04,641.69l-1.78-.07-1.36.07-.93-.07-1.14-.07-2.99.07-.78.07-1.57-.07-2.49.14-1.57-.21-.71-.14-.64-.43-.78-1.21-.21-2.07-.07-2.28.14-2.42v-1.64l-.14-1.92-.14-2.42v-4.85l.07-2.35-.07-1.57-.07-2.14v-2.07l.07-1.35-.07-2v-1.21l-.07-2.28.07-1.71v-.93l.07-1.35v-1.85l.14-1.5v-2.99l-.07-1.57.14-1.07.43-1.35,1.21-1.07,1.57-.36,1.5.07,1,.07,2.85-.07h1.78l1.71.07.86-.07h2.71l.86.14,1.21.07,2.21-.07,1.14-.14h4.7l3.28.36,1.85.5.93.29,3.21,1.57.86.71.78.78.71.78.78,1.35,1,2.21.71,2.21.21,1.14v2.78l-.07,1.07-.57,2.14-.71,2.07-.78,1.21-1.07,1.43-.57,1.07.29.43,1.21.78,1,1.07,1,1.57.78,1.85.78,2.14.36,1.5.28,1.35.07,1.28-.07,1.92-.57,2.14-.29,1.21-.57,1.28-.71,1.57-.86.86-.71,1.14-1.43,1.21-1.92,1.07-1.5.64-1.07.28-1.85.57-1.85.28-.93.21-1.07.07-.71.07-1.21.14-1.28-.07-1.85.07h-1.85l-2.78-.14ZM461.1,611.62l3.06.07h1.14l1.42-.14,2.42-.36,1.28-.5,1.35-1.07.71-.93.64-1.07.21-1.5v-1.78l-.35-1.14-.36-.93-.64-.86-1.57-.93-1.71-.64h-1.21l-.86-.07-3.63.07-2.78-.07h-1.78l-1.35-.14-2-.07-2.28.14-1.28.21-.57.21-.29.57v1.14l-.07,1.07-.29,1.43.07,1.71v1.78l.21,1.28v1l.21.64.29.43.64.21.57.07,1.43.07h1.57l1.5.07,2.21.07,2.07-.07ZM463.81,633.56l1.71-.07,1.85-.21h1.21l1.35-.14,1.21-.07,1.14-.36.71-.43.92-.86.71-1.14.28-.57.36-.78.14-1.21.14-1.42-.14-1.14-.36-1.14-.64-1.35-.71-.86-.57-.5-.57-.36-.35-.21-.79-.28-2.14-.36-2.64-.07-1.92-.07-.86.07h-3.21l-.92-.07-1.07.07h-1.42l-5.27.07-1,.28-.29.71.07,1.21.14,1.07v1.35l-.14,2.14-.14,2.71v1.57l.28,1.92.57.29.35.14,1.5.07h2.64l2.21.07,1.71-.07,1.85.14,2.07-.14Z"/><path class="cls-1" d="M526.81,642.47h-1.21l-1.07-.07-1.42-.21h-1.78l-1.28-.36-.71-.14-.92-.21-1.28-.5-1.71-.64-1.42-.78-.71-.36-.78-.5-.93-.5-.64-.5-.71-.43-1-.93-1.21-1.07-.78-.78-2.57-3.06-1-1.92-.86-1.57-.93-1.64-.43-1.57-.36-.93-.35-1.71-.29-1.43-.07-.86-.21-1.21-.07-1,.07-1.21v-2.07l.21-1.35.14-1.28.57-1.78.21-1.14.57-1.64.71-1.85.64-1,.71-1.57,1.35-2.14,1.21-1.64.71-.64.5-.64.71-.78.71-.71.57-.28.78-.78,1.92-1.07,1.71-.85,1.99-.93,1.5-.43.93-.43,1.92-.64,1.78-.28,1.14-.21,1.71.07,2.49-.07,1.71.14h.78l1.28.21,1.42.36.93.21.64.29,1.07.36,1,.36,1,.5,1.14.64,1.5.78,2,1.28,1.5,1.21,1.5,1.43,1.78,2.14,1.14,1.35.5.71.43.86.5.71.64,1.28.71,1.64.43,1.42.36,1.14.14.64.29.93.36,1.78.14,1.14v1l.07,1.14-.14,1.21-.14,1.85-.14,1.14-.07,1.14-.21,1.42-.21.86-.28,1.21-.64,1.71-.57,1.57-.64,1.35-.5.86-.36.71-.57.71-.5.64-.43.64-.29.5-.43.5-.78.78-.93.71-.64.64-.5.43-.64.5-.57.5-.71.43-.5.43-.86.57-1.42.78-1.57.93-1.21.5-.78.28-1.5.5-1.78.5-1.5.21h-2.07l-1.64-.14ZM529.24,634.21l.93-.07.43-.07.35-.21.29-.14.93-.14.93-.43.86-.28,1.35-.71,1.42-.93,1.85-1.35,1.07-1.14.35-.43.57-.86,1.07-1.35,1.43-2.14.43-1.57.29-1.35.21-1.57.14-1.92.14-1-.14-1.85-.5-2.57-.5-1.64-.71-1.5-.36-1.21-.43-.78-.57-1.14-.86-1.07-.5-.64-.78-.78-2.42-1.92-2.28-1.35-1.35-.57-1.5-.43-.57-.14-.93-.29-1.21-.28h-3.92l-1.07.21-1.28.14-1.64.5-2.35,1-3.99,2.28-.71.78-.57.71-.43.36-.86,1.21-.64,1.21-.35.5-.29.78-.5.93-.43,1.14-.35,1.14-.14,1-.36,1.57-.14,1.78.07.86.07,1,.14,1.14v1.07l.07.36.21.78.28,1.28.21,1.07.86,1.57,1.71,2.57,1.35,1.71.5.57,1.14,1,1.43.93.5.28.29.14,1.28.71,1.5.71,1.21.36,1.99.36,2,.28,1.71.07,2.07-.21Z"/><path class="cls-1" d="M587.04,641.9h-1.21l-.71-.14-1-.57-.36-.43-.43-.43-.29-1.35v-1.5l.07-1.07v-1.07l.14-1.35-.07-1.78.07-1.35v-1.5l.07-1.21-.07-2.78v-4.99l-.14-1.71v-.57l.07-.78v-3.78l-.14-1.21v-1.92l.07-2.28v-1.5l.07-.57-.14-.71.07-1.14v-.93l-.07-.57v-.78l-.14-1.21-.35-.86-.29-.21-1.5-.07-1.71.14-.57.07-.93-.07h-1.28l-4.56-.14-1.5.07-1-.21-.64-.5-.57-.64-.43-1-.14-1.71.21-1.92.64-1.21.86-.57.86-.29,1-.07,1.14-.21h.86l.57.07h3.56l.36.07h4.13l.93.07h1.64l1.57.07h1.92l1.71-.07,1.36-.07,1.42.07,1.71-.07,1.85.07,6.84.14,1.71.14,1.42.21,1.57,1.21.5,1.71v.93l.07.64-.21,1-.21.57-.29.43-.5.57-1.36.43-2.21.29-2.42-.07-1.85.14-5.13-.14-1.14.28-.43.64-.07,1.5v1.64l.07,1.35-.07,1.42v1.21l-.14,1.5-.07,1.71v.71l.07.86.07.78-.07.5.07.93v1.57l-.14.71.14.57-.07.78.07.78-.14.78-.07,1.07v1l-.07,1.14v1l-.14.71.14.43-.14,1.07.07,1.92v1.07l.07.64-.14.78.07.64-.07.64v1.78l.07,1.14-.14.93v.64l.21.5.14.71.07.78-.14.86-.29.86-.43.78-.5.21-.64.28-.64.21-.78.36-1.43-.21Z"/><path class="cls-1" d="M641.63,641.9h-1.21l-.71-.14-1-.57-.35-.43-.43-.43-.28-1.35v-1.5l.07-1.07v-1.07l.14-1.35-.07-1.78.07-1.35v-1.5l.07-1.21-.07-2.78v-4.99l-.14-1.71v-.57l.07-.78v-3.78l-.14-1.21v-1.92l.07-2.28v-1.5l.07-.57-.14-.71.07-1.14v-.93l-.07-.57v-.78l-.14-1.21-.36-.86-.28-.21-1.5-.07-1.71.14-.57.07-.93-.07h-1.28l-4.56-.14-1.5.07-1-.21-.64-.5-.57-.64-.43-1-.14-1.71.21-1.92.64-1.21.86-.57.86-.29,1-.07,1.14-.21h.86l.57.07h3.56l.35.07h4.13l.93.07h1.64l1.57.07h1.92l1.71-.07,1.35-.07,1.43.07,1.71-.07,1.85.07,6.84.14,1.71.14,1.42.21,1.57,1.21.5,1.71v.93l.07.64-.21,1-.21.57-.28.43-.5.57-1.35.43-2.21.29-2.42-.07-1.85.14-5.13-.14-1.14.28-.43.64-.07,1.5v1.64l.07,1.35-.07,1.42v1.21l-.14,1.5-.07,1.71v.71l.07.86.07.78-.07.5.07.93v1.57l-.14.71.14.57-.07.78.07.78-.14.78-.07,1.07v1l-.07,1.14v1l-.14.71.14.43-.14,1.07.07,1.92v1.07l.07.64-.14.78.07.64-.07.64v1.78l.07,1.14-.14.93v.64l.21.5.14.71.07.78-.14.86-.29.86-.43.78-.5.21-.64.28-.64.21-.78.36-1.42-.21Z"/><path class="cls-1" d="M682.9,641.26l-.92-.5-.5-1-.35-1.28-.07-1.5.07-1.57-.07-1.43.14-1.07-.07-1.85v-3.21l.07-1.57-.07-1.71-.14-.78-.07-1.57v-4.42l.07-2v-1.35l.14-1.57.07-1.57.14-1.85-.14-1.85.14-1.5v-3.28l-.14-1v-2.07l-.07-1.78v-3.92l.28-1.14.21-.5.36-.5.5-.28.86-.21.93-.07.93.14h1.35l1.14-.07.78.28.43.43.36.64.14.5.07,1.14.07,1.43v1.07l.14,1.57v1.14l-.14,1.42-.07,1.21v4.49l.07,1.57.14,1.35.07,1.28.07,2.14.07,1.57-.07.5.07.78.07,1.35-.07,1.35v.64l-.07.64.07.5-.14,1.42v1.28l-.07,2.42-.21,1.57v1.64l.07,1.21.21,1.71v.57l.07.64.43.57.35.14h3.14l1.57.07.64-.07.71.07,1.14.07,1.43.07h1.5l1.14-.21,1.35-.07h1.28l1.07.07h1.42l.86.14h1.28l1.71-.21h1.71l1.07.07h1l.93.21.78.5.78.93.14.5v3.21l-.14.71-.21.5-.57.5-1.21.64-1,.14-1.21-.07h-3.7l-1.21.21-.93-.07h-4.06l-1.07-.07-4.2.14h-13.76l-1.07-.36Z"/><path class="cls-1" d="M763.86,641.62l-.5-.07-.64.07-1.64-.14-1.43.07-.92-.07-2,.07h-1.5l-1.36-.07h-1.14l-1,.14-1.14-.07-.35.07-1.57-.14h-2.14l-2.35-.07-2.57.07h-2.28l-1.14-.07-1.14-.64-.86-1.43-.14-1.71v-5.06l-.07-2.21.07-1.64v-2.21l-.07-1.35-.07-1.5-.07-.71v-1l.07-1.07v-1.71l-.07-.21.07-.64-.07-.86v-.64l-.07-1.71.07-2.99.07-2v-1.21l-.07-2.07v-4.63l-.14-1.21.07-.93v-.86l.07-1.35v-.78l.07-1.35.07-1.92.29-.93.5-.78.78-.5.57-.28.78-.14h2.07l2.99.14h4.71l1.99-.07,1.5-.07,2.21-.07h4.63l1.57.21h1.57l1.14-.14,2,.07,1.14.07,2.85-.14.78.07,1.07-.07,1.14.14,1.07.43.57.86.43,1.42.14,1.5-.07.93-.43,1.28-.78,1-.78.28-1.64.14-2.57.07-1.5.07-.64-.07-2.28.14h-3.35l-2.71-.07-1.64-.07h-.71l-1.43.14-3.78.07h-1.28l-1.57.07h-1.35l-1.28.36-.21,1.14-.07,1.21-.14.5v1.21l-.07,1.64.14,1.78-.07,1.85.36,1.64.86.5h.57l1.57.21,1.85-.14h1.21l1.5.14,1.57-.14,5.41-.07h3.92l1.07.07,1.21.36.86.86.28.78.14.71.07.57.14,1.64-.21,1.5-.5.86-1.43.71h-3.78l-4.13.21-2.28-.07h-.78l-2.92-.07-.86.07-1.28-.07-1.71.07-.86.14-.93.28-.5.43-.07,1-.07,1.07-.14,1.21v1.57l.07,1.07v1.35l-.07,1.14v1.92l.64,1.85,2,.86h4.99l1.99-.07,2,.07,4.06-.07,1.5-.14h4.28l.86.14h1.35l2.21.07,1.78.14h.93l.57.14.64.43.43.64.21,1.28-.07,1.5v.86l-.14.78-.28.85-.43.57-.5.28-.71.21-3.56.36-1.85.21h-1.99l-1.43-.07Z"/><path class="cls-1" d="M839.48,642.47l-.93-.14-1.21-.21-1.92-.28-2.14-.71-1.42-.5-2.71-1.14-1.92-1.07-.86-.64-1.21-.86-1.99-1.78-1.57-1.35-.85-1.35-.64-1.21v-1.43l.64-1.21.78-1,1.21-.64.71-.21.71-.29h.93l.93.21.71.43,1.71,1.57.29.5.29.28,2.07,1.64.86.64.78.36,1.42.78,1.57.57,1.14.57,1,.28.71.14h.57l.57-.07.64.14.43-.07,1.07.07,1.71.07,1.07-.29h1.07l.86-.14.93-.07.78-.21.57-.28.93-.28,1.21-.71,1.57-1.28,1-1.21.21-.57.43-1.07.14-1.35-.21-1.78-1.21-1.92-1.43-.86-.78-.36-1.07-.36-1-.28-1.07-.14-1.07-.28-1-.14-.93-.21-1-.07-1.5-.28-1.5-.14-.78-.21-1.5-.14-2.85-.5-1-.21-.86-.29-1.42-.36-1.43-.5-1-.43-1.14-.43-1.57-.78-1.14-.71-.28-.14-.78-.64-.93-.86-.5-.43-.43-.57-.57-.86-.36-.64-.71-1.14-.71-2.78v-2.07l.14-1.21.21-1.64.29-1.07.29-.71.35-.71.29-.64.5-.78.78-1.07,2.21-2.21.71-.36,1-.71,1.21-.57.93-.71.78-.43.64-.29.64-.07.71-.43,2.56-.71,1.36-.21,1.64-.21.78-.14.93-.07,1.57-.14,1.42.07h.64l.5.07,2.49.21.43.14h.57l.71.14.64.14.86.14,1.85.71.71.43.64.28.93.57,1.78.78,1,.93,1.57,1.21,1.35,1.43,1.21,1.71.64,1.21-.14,2.14-.14.43-.28.5-.57.5-1.28.78-1.36.5-1.14-.07-1.14-.5-.71-.5-.78-.78-1.21-1.28-1-.86-.64-.5-1.21-.64-.78-.64-1.64-.71-1.14-.28-1.92-.21-1.28-.07-1.92.07-1.71.14-1.42.07-2.14.43-2.07.93-.86.5-1.14.78-1.43,1.28-.43,1.07-.29.86-.07,1.28.29,1.28.43,1.14.36.5.57.43,1,.78,1.5.57,2.21.64,1.35.28.86.21.78.07.93.14.64.14.78.36h.5l.71.07h1.42l.86.21,1.21.21,1.42.36.71.21.71.07.29.21,1.85.21,3.28.86,1.57.71,1.5.64,1.21.93.43.43,1,.71,1.07,1.21.43.86.43.78.29.5.14.57.43,1.14.14,1,.07.29.14.14.07,1v2.64l-.29,1.64-.29,1.14-.35,1-.36.71-.14.5-.5.86-.64.93-.57.64-.5.64-.35.36-.5.64-.64.64-.86.57-1.21.78-.71.43-.5.28-.71.36-.71.29-.5.21-1,.29-1.42.5-1.85.43-1.71.14-1.07.14-1.43.07h-2.78l-1.71-.07Z"/><path class="cls-1" d="M886.02,641.4l-1.5-.64-.5-.78-.29-1-.07-1.43.07-1.14-.07-1.5v-1.92l-.07-1.07.07-1.14-.07-2.07v-1.21l.21-2.57v-3.14l-.07-1.07-.07-.71v-1.64l.07-1.71v-2l-.07-1.14v-1.92l-.07-1.78v-5.13l-.07-2.57v-1.43l.07-1.57-.07-1.71v-1.92l.14-2.14.5-.86.36-.36,1.07-.71,1.78-.21h1.28l1,.21.78.21.5.43.43.64.21.57.14.86.14,1.14v2l.07,2.21v1.5l-.07,1.35v3.21l.07,1.28.07,1.35v.86l-.07.71.14.86.14.43.57.29,1.28.07,2.07.07h1.28l2.57.07,1.78-.07h5.63l2.07-.07,1.42.07,2.07-.07,1.78.07,1.21-.14.71-.21.29-.57.29-.93.14-1.21v-3.28l-.07-2.07.07-1.07v-7.06l.21-1.28.21-.71.35-.57.93-.78,1.36-.28,1.21.07h1.43l1.21.36,1,.86.35,1.5.14,1,.14,1.35-.14,1.5v1.85l.07,2.14.07,2.42-.07,2.07-.07,2.21v1.43l.07,1.92-.14,1.14.07,1.35-.07,1.92.07,2.42.14,2.28-.14,1.92.07,1.71v1.07l-.07.93-.07,1.57.14,1.35.07.93v1.07l-.07,1,.07,1.21-.14,1.07.07.78v1l-.14,1.57-.28,1.57-.86,1.14-1.07.43-1.92.21-1.99-.14-.71-.28-.93-.71-.43-1.07-.14-1,.07-2.49v-13.26l-.07-1.85-.57-.86-1.14-.14-3.56-.14-1.85.07-2.71-.21-2.78.07-2.49-.07-1.71.14h-1.28l-2.14.07h-1.92l-1.21.07-.5.14-1.14,1-.29,1.71v6.34l-.07,1-.07,1.14.14,1.28.07,1.92v1.5l.07,1.07-.07,1.35-.14,1.28-.5.71-.64.5-1.35.57-1.28.29h-.86l-1.36-.21Z"/><path class="cls-1" d="M971.83,642.47h-1.21l-1.07-.07-1.43-.21h-1.78l-1.28-.36-.71-.14-.93-.21-1.28-.5-1.71-.64-1.43-.78-.71-.36-.78-.5-.93-.5-.64-.5-.71-.43-1-.93-1.21-1.07-.79-.78-2.56-3.06-1-1.92-.86-1.57-.93-1.64-.43-1.57-.35-.93-.36-1.71-.28-1.43-.07-.86-.21-1.21-.07-1,.07-1.21v-2.07l.21-1.35.14-1.28.57-1.78.21-1.14.57-1.64.71-1.85.64-1,.71-1.57,1.36-2.14,1.21-1.64.71-.64.5-.64.71-.78.71-.71.57-.28.79-.78,1.92-1.07,1.71-.85,2-.93,1.5-.43.93-.43,1.92-.64,1.78-.28,1.14-.21,1.71.07,2.49-.07,1.71.14h.78l1.28.21,1.43.36.93.21.64.29,1.07.36,1,.36,1,.5,1.14.64,1.5.78,1.99,1.28,1.5,1.21,1.5,1.43,1.78,2.14,1.14,1.35.5.71.43.86.5.71.64,1.28.71,1.64.43,1.42.36,1.14.14.64.29.93.35,1.78.14,1.14v1l.07,1.14-.14,1.21-.14,1.85-.14,1.14-.07,1.14-.21,1.42-.21.86-.29,1.21-.64,1.71-.57,1.57-.64,1.35-.5.86-.35.71-.57.71-.5.64-.43.64-.28.5-.43.5-.78.78-.93.71-.64.64-.5.43-.64.5-.57.5-.71.43-.5.43-.86.57-1.43.78-1.57.93-1.21.5-.78.28-1.5.5-1.78.5-1.5.21h-2.07l-1.64-.14ZM974.26,634.21l.93-.07.43-.07.36-.21.29-.14.92-.14.93-.43.86-.28,1.36-.71,1.42-.93,1.85-1.35,1.07-1.14.36-.43.57-.86,1.07-1.35,1.42-2.14.43-1.57.28-1.35.21-1.57.14-1.92.14-1-.14-1.85-.5-2.57-.5-1.64-.71-1.5-.36-1.21-.43-.78-.57-1.14-.86-1.07-.5-.64-.78-.78-2.42-1.92-2.28-1.35-1.35-.57-1.5-.43-.57-.14-.93-.29-1.21-.28h-3.92l-1.07.21-1.28.14-1.64.5-2.35,1-3.99,2.28-.71.78-.57.71-.43.36-.86,1.21-.64,1.21-.36.5-.29.78-.5.93-.43,1.14-.36,1.14-.14,1-.35,1.57-.14,1.78.07.86.07,1,.14,1.14v1.07l.07.36.21.78.29,1.28.21,1.07.86,1.57,1.71,2.57,1.36,1.71.5.57,1.14,1,1.42.93.5.28.29.14,1.28.71,1.5.71,1.21.36,2,.36,1.99.28,1.71.07,2.07-.21Z"/><path class="cls-1" d="M1019.23,641.48l-1-.21-.57-.5-.5-.64-.14-1-.07-1-.14-1.57v-.71l.21-1.57.14-1.78v-.86l.07-1.28-.07-1.35.07-1.21v-1.85l-.07-1.07-.07-1.28.07-1.07.07-.5-.21-.64-.14-.57.29-.21.35-.14-.07-.36h-.14l-.36.07-.14-.36.07-.21.14-.29-.14-.5v-.71l-.07-.36.14-.64.07-.93-.14-.5.14-.64v-1.35l.14-1,.14-.5v-.78l-.07-1.28-.07-1.21-.07-1.28v-1.64l-.14-2.71v-1.35l-.14-.86v-3.49l-.07-1.5v-.85l.14-1.57.43-1.07.28-.28.5-.43.64-.07.78-.21h1.07l.64-.14.78.07,3.7.14.43.07.93-.07,1.28.07h1.28l1.07-.07.86-.07.71.07h.78l.5-.14h1.07l1.35.07h.64l.64-.14.71-.07.78.07.71.14.64-.21.5.07h.28l.36-.14.64.14,1.57.07,1.28-.07.78.07,1,.14,1.14.28,1,.21,1.5.57,1.21.57,1.28.64,1.35,1.14,1,1.07.5.64.57.93.5,1,.36.93.28.78.07.57.36.93.29,1.28.14,1,.21,1v2.35l-.07,1.57-.35,1.5-.14,1.35-.57,1.07-.14.57-.36.71-.28.64-.71.78-.78,1-.35.5-.64.64-.71.93-.5.57-.57.29-.43.28-.57.28-.71.29-1.28.28-.5.28-.78.36-.64.14-.78.07-.93.14h-3.14l-.71.07h-1.42l-1.21-.07-1.21.14-1.64-.07-2.07.21-4.63.07h-1.78l-1.64.21-.5,1.21-.43,1.5v4.13l-.07.71.07.93-.07,1.57.07,2v2.49l-.21.86v1.21l-.07.64-.36.71-.86.78-1,.21-.64.21-1.14.07-1.57-.14ZM1035.26,613.83l1.85-.07.5-.07.43.07.57-.07,1.07-.07,1.64.07,3.7-.14,1.5-.43,1.07-.57,1.21-1.28,1-1.78.29-1.21.07-.93v-1.42l-.29-1.57-.35-1.57-.57-1.07-.5-.5-.86-.57-2.07-.93-2.07-.21-1.07-.07-1.35.07-.93.07-1-.07-.78.07h-3.99l-.86-.07-.43-.07h-.43l-.93.07-1.21-.07-1.78.14-1.64-.14-.43-.07-.5.21-.36.78-.28,1.07-.21,1.42v1.43l-.07.93-.14,1v5.27l.14,1.28.21.43.35.29.93.21,1.14.14,1.21.07h3.56l1.14.07,1.5-.14Z"/><path class="cls-1" d="M871.67,244.66c-3.94,2.5-7.76,7.61-1.59,10.05,3.1,0,6.91-3.33,8-6.13.32-3.15-3.69-6.46-6.41-3.92Z"/><path class="cls-1" d="M964.35,172.72c-3.63-7.24-18.78,12.35-22.63,15.25-18.85,16.36-40.9,30.07-57.96,48.23.16,2.98,3.65,7.12,6.64,4.1,16.34-13.06,32.16-26.67,47.14-41.29,8.72-7.19,18.35-13.2,26.71-20.89,1.69-1.14,1.97-2.97.65-4.55-.09-.14.09-.46,0-.6s-.46-.1-.55-.24Z"/><path class="cls-1" d="M999.67,138.06c-8.25,3.99-13.71,12.06-20.94,17.58-2.75,2.9-8.98,6.02-4.6,10.25,4.07,5.47,14.88-8.95,19.71-10.84,4.06-4.1,15.32-8.6,11.03-15.66-1.2-1.41-3.21-2.06-5.2-1.33Z"/><path class="cls-1" d="M967.78,298.58c-.31-1.35-1.15-1.81-2.43-1.23-16.82,3.84-33.86,7.32-50.64,11.26-10.7,2.15-22.65,5.02-34.13,8.14-1.59.17-1.45,2.93-1.44,3.03.23,1.98,2.21,3.3,4.18,2.94,20.08-3.7,38.42-9.92,57.97-14.55,8.35-2.25,16.64-4.78,25.05-6.76,1.6-.17,2.25-1.35,1.45-2.78,0,0,.33-.14.33-.15s-.34.12-.34.11Z"/><path class="cls-1" d="M1068.38,274.2c-.35-1.76-1.55-2.5-3.27-1.92-20.95,2.95-37.53,7.09-59.27,12.94-12.4,3.54-23.97,7.47-29,9.02-1.58.24-2.3,1.38-1.58,2.87,0,0-.35.12-.35.13s.36-.09.37-.09c-.87,5.71,55.43-9.12,62.13-10.65,4.54-1.87,35.31-7.45,30.97-12.31Z"/><path class="cls-1" d="M1115.95,258.37c-9.25,3.55-29.25,8.82-37.92,11.14-2.28.37-2.46,2.43-2.11,4.05.2-.07.18-.07.01.02,0,0,.17-.08.17-.07,1.36,3.12,17.63-3.68,21.95-3.55,5.61-2.79,25.62-.15,23.91-8.59-.59-2.3-2.91-4.1-6-3Z"/><path class="cls-1" d="M904.8,337.71c-14.39.81-28.92,1.73-43.34,3.28-14.46,1.55-28.76,4.44-43.06,5.94,0,0-.11-1.36-.11-1.36,0,0,.03,1.36.03,1.36-31.2,0-31.2-1.36-62.39-1.36-29.04,0-38.21,1.53-62.46,1.36-21.96-3.31-43.94-5.38-66-6.17-3.41-.12-6.2-2.96-5.97-6.37.04-.66.21-1.17.69-1.52,2.26-1.61,28.3,4.4,42.69,5.88,14.17,2.09,30,.38,43.66,3.69-7.93.16-16.34-5.27-24.32-6.61-8.03-1.97-16.27-2.6-24.07-4.54-24.27-7.17-58.65-15.42-84.51-18.26-12.52-1.73-5.43-6.44-.17-8.01,1.34-.4,2.76-.41,4.11-.04,31.28,8.54,62.36,15.65,93.41,23.68,12.68,3.45,27.43,1.87,38.93,8.03,1.98.45,5.73,1.66,3.85.87-10.77-3.79-21.04-8.84-31.78-12.61-10.77-3.78-21.99-6.26-32.74-10.03-6.84-3.77-13.91-6.27-21.47-7.75-2.11-.41-3.32-2.67-2.48-4.65.05-.12.1-.24.15-.36.83-1.93,3.22-2.72,4.98-1.57,1.19.77,2.09.9,4.26.97.92.03,1.82.24,2.64.65,10.95,5.34,35.39,13.69,46.31,16.12,6.23,3.63,12.63,5.93,19.78,6.96-3.75-2.51-7.77-3.8-12.14-4.64-6.29-4.27-12.85-7.44-20.12-9.68-22.05-12.09-43.82-24.72-66.16-36.26-2.31-1.19-3.14-4-1.85-6.26,1.06-1.86,2.5-2.95,5.36-2.83,1.79.07,22.15,12.83,33.4,18.88,11.25,6.05,23.06,11.15,33.94,17.88,5.81,4.9,12.03,8.72,19.02,11.71,5.59,5.37,12.01,8.61,19.28,11.01,1.64,1.98,3.34,3.8,5.88,4.74-14.34-12.44-49.17-37.86-52.03-39.57-3.44-4.6,2.87-7.12,5.59-5.76,2.08,1.04,13.84,12.2,21.62,18.11,6.88,5.99,17.39,9.87,23.44,16.93-7.14-4.55-11.51-14.03-17.1-19.06-6.59-7-13.34-12.2-18.01-17.22-6.06-9.03-14.3-15.46-23.02-21.64-2.17-2.15-3.3-5.32-5.36-7.57-2.14-3.03-9.23-4.45-6.57-8.95.45-2.47,7.96-.44,9.62,1.05,1.16,1.14,3.27,1.31,4.4,2.48,4.73,4.61,7.83,10.68,11.97,15.83,13,13.07,21.48,21.91,35.39,37.75,6.17,7.35,17.27,13.83,23.16,23.05-8.93-10.46-14.35-25.16-22.45-36.73-6.29-9.9-13.38-19.26-19.96-28.96-.82-1.21-1.63-2.42-2.44-3.64-.47-.72-1.78-2.06-1.47-2.99.19-.58,1.72-3.86,4.68-2.78,2.74,1,5.1,5.13,6.51,7.43,2.02,3.27,3.85,6.67,5.65,10.06,3.21,6.04,6.04,12.6,10.11,18.13.23.31.53.61.73.93,7.36,11.69,16.02,22.79,23.53,34.59.02.03-.21,1-.19.99s-.93-.4-.94-.43c-2.45-10.81-6.17-20.93-11.27-30.66-4.61-14.65-9.63-30.88-15.28-45.21-.13-4.6-1.2-8.67-3.23-12.58-.94-1.79.63-2.97,1.89-4.55.98-1.23,2.24-2.49,4.04-.64,5.65,5.83,15.23,39.93,22.28,59.56,1.67,4.98,2.07,10.43,3.79,15.51,1.15,5.19,6.41,10.41,5.98,15.56-2.85-8.09-.56-18.52-2.04-27.29.05-9.13-4.85-30.43-2.28-32.48.68-1.05,3.29-1.19,4.11-.23.65.57,2.22.81,2.3,1.75.73,8.18.18,16.93,1.04,25.83.19,8.43,4.48,18.05,3.25,26.36-.83-14.37,3.8-30.04,4.3-44.6,1.18-14.86-.35-41.84,2.01-44.05.26-.24,2.54-1.22,4.51-1.18.95.02,1.87.35,2.63.93.56.43,1.26.85,1.21,1.41-1.17,12.76-3.69,25.62-4.83,38.75-1.74,12.8-.35,33.21-3.36,45.58,3.1-5.46,4.7-16.84,5.49-22.21,2.22-4.72-.36-16.57,5.44-17.44,1.73-.89,4.6.25,5.09,2.19.32.63,1.7,1.21,1.51,1.95-2.52,4.8-4.6,12.35-4.09,16.52-1.12,4.55-3.6,8.88-4.77,13.62-1.66,4.46.02,11.18-3.01,14.81,2.7-9.74,11.01-18.62,15.11-28.08,7.22-16.14,13.62-31.26,23.88-45.73,4.35-7.08,6.85-24.15,12.13-25.24.92-.19,4.6,2.6,5.19,3.72.54,1.02.42,2.25-.27,3.17-6.3,8.38-11.46,17.12-14.56,27.27-4.81,6.7-9.56,16.7-12.13,24.46-9.16,14.2-17.03,29.19-23.67,44.95-.98.29-1.02.59-1.05-.69,7.45-9.17,15.92-17.48,23.28-26.64,7.4-9.21,13.69-19.27,21-28.47.77-.96,2.41-.32,3.52-.29s3.24,1.97,2.97,3.22c1.99,5.27-18.53,21.12-22.51,27.86-7.65,8.25-13.11,20.12-21.51,27.23,7.94-9.37,20.77-15.76,30.01-24.39,9.71-8.18,18.5-17.37,28.12-25.49,3.5-3.07,7.89-5.12,11.39-8.2,3.88-2.23,7.46-12.08,12.09-9.71.74.12,3.56,1.11,4.02,3.97,1.37,4.66-10.07,6.62-12.77,9.91-3.6,2.89-6.34,6.84-9.94,9.73-7.24,5.95-18.68,13.76-30.35,23.6-9.88,7.54-18.89,19.37-29.46,25.82,7.4-6.71,19.27-9.49,27.62-15.05,10.07-5.17,18.08-13.45,28.23-17,1.37-.48,2.54-1.38,3.44-2.51,1.12-1.42,7.63.5,3.85,5.55-1.07,1.43-13.58,6.57-19.63,11.54-5.42,3.09-12.29,5.45-19.08,9.33-6.01,2.75-11.83,9.91-18.72,11.46,39.59-15.57,81.71-29.5,120.54-46.8.67-.26,1.22,1.06,1.75,1.43s.42,3.04-.19,3.94c-1.84,5.96-10.26,3.82-14.97,6.28-18.27,9.55-37.78,13.71-57.71,21.32-14.87,4.91-29.91,14.08-45.36,17.85,12.4-5.07,27.54-5.29,39.73-8.89,13.87-3.34,26.6-7.81,38.53-10.67.71-.17,1.3,1.2,1.93,1.5s2.19,1.93,1.38,4.13c-1.71,5.36-22.57,5.16-29.1,8-8.92,1.57-18.7,7.37-28.09,7.6,14.48-3.37,30.99-1.61,45.36-3.6,15.45-1.45,30.18-5.91,44.44-5.51,4.79.14,6.06,6.45.74,6.75Z"/><path class="cls-1" d="M555.21,302.69c2.97-3.82-18.93-6.63-22.87-8.29-.2-.08-.4-.16-.61-.2-17.61-3.57-34.36-8.71-51.91-10.46-1.74-.17-3.29,1.12-3.46,2.86,0,.02,0,.04,0,.06-.13,1.44.71,2.8,2.06,3.29,9.56,3.47,19.79,5.75,29.75,8,14.36,3.85,28.92,6.71,43.54,9.35,2.45,1.09,3.12-2.97,3.5-4.6Z"/><path class="cls-1" d="M453.79,280.24c.47-1.48-.19-2.55-1.75-2.72-14.91-3.82-30.29-7.7-45.18-11.15-.19-.04-.37-.07-.56-.09-6.03-.66-27.43-11.04-28.34-3.1-.24,2.05,1.15,3.97,3.12,4.59,14.95,4.71,31.25,5.84,46.72,10.15.09.02.17.04.26.06,7.58,1.59,15.27,2.94,22.83,4.63,2.36.72,2.88-2.29,2.9-2.38Z"/><path class="cls-1" d="M513.94,261.53c.72-1.16.31-2.43-1.01-2.84,0,0,.06-.14.06-.14s-.05.15-.05.15c-11.66-3.34-23.18-11.21-34.96-12.36-3.38,1.67-3.3,7.51.8,8.25,9.82,2.86,20.9,5.82,30.29,9.31,2.08.86,3.13-1.33,4.76-2.11.24-.02.15-.08.11-.26Z"/><path class="cls-1" d="M607.2,289.8c-3.83-1.41-6.02,2.28-7.72,5.23-.65,2.78,5.64,2.73,7.68,3.86,2.8.97,5.42-.8,6.46-3.38,2.01-3.91-3.99-4.54-6.42-5.71Z"/><path class="cls-1" d="M589.92,288.97c-.07-2.72-.15-5.7-3.3-6.51-9.29-2.76-18.63-5.9-28.06-8.9-9.37-2.98-18.81-5.83-28.03-8.99-1.99-1.05-4.43.38-5.35,2.25-2.04,3.07,26.65,11.27,30.8,13.92,5.78.97,33.36,16.38,33.93,8.19,0,0,.11-.09.11-.09-.06,0-.12.14-.12.14Z"/><path class="cls-1" d="M727.03,95.75c8.81.71,5.44-12.28,4.26-17.38-1.64-3.83-7.99-3.57-8.82.79-.17,4.8-.98,15.11,4.56,16.59Z"/><path class="cls-1" d="M730.47,102.82c-2.16.01-5.67.51-5.07,3.51,1,13.1,2.03,26.19,4.04,39.19,1.19,4.37-.79,14.42,5.26,14.57,1.97-.26,4.08-.79,3.68-3.31-1.09-6.3-1.24-57.26-7.91-53.96Z"/><path class="cls-1" d="M747.2,247.51c.11-22.48-3.98-45.52-7.17-67.61-.37-3.85.84-11.58-4.89-11.27,0,0,0-.33,0-.33,0,0,0,.33,0,.33-1.78-.17-2.81.96-2.4,2.72,2.75,25.18,1.67,51.13,7.2,76.02.38,1.69,1.87,2.95,3.6,2.98,1.2.02,2.39-.21,3.31-.78.63-.55.14-1.6.53-2.22-.08,0-.17.17-.18.16Z"/><path class="cls-1" d="M833.62,251.65c1.26,4.01,6.43-4.34,8.68-6.05,15.44-18.18,31.42-35.91,45.84-54.94,1.45-2.26,5.98-7.34,6.41-10.42.43-3.09-.83-8.14-5.24-3.36-20.47,22.2-38.76,46.52-56.68,70.85-.7.53-.79,1.13-.14,1.77.13.88.45,1.56,1.13,2.15Z"/><path class="cls-1" d="M924.27,140.64c-5.9-3.31-8.08,5.7-11.24,8.98-1.37,3.46-9.06,8.46-4.03,11.52,4.04,1.93,6.5-5.1,9.55-7.03,2.81-3.74,11.93-8.78,5.73-13.46Z"/><path class="cls-1" d="M1001.71,255.56c-.86-4.86-12.14,2.86-15.36,3.23-18.12,8.36-39.11,15.66-57.79,22.31-1.58.88-3.55,1.48-4.96,2.52-.27.45-.1,1.05-.05,1.61-.22.81-.19,1.47.26,2.2.72,4.9,8.24-.38,10.91-1.21,6.04-2.39,13.57-5.04,20.98-7.91,16.12-6.96,29.79-10.35,45.72-16.46,3.11-.66,1.06-4.46.29-6.28Z"/><path class="cls-1" d="M1074.64,227.52c-2.57-5.5-12.03,2.25-16.51,2.71-7.89,3.22-14.79,5.67-22.88,8.2-6.2,2.94-12.03,3.12-17.5,7.19-.94,2.86,1.09,8.54,4.94,6.7,9.26-3.38,16.76-6.54,25.84-10.46,4.44-2.91,31.75-8.26,26.11-14.34Z"/><path class="cls-1" d="M1093.4,220.71c-1.61-5.37-14.12-1.04-12.21,3.83,1.61,6.93,14.95,2.52,12.21-3.83Z"/><path class="cls-1" d="M455.27,241.78c1.34-5.45-11.63-8.08-12.46-2.91-2.14,6.78,11.59,9.78,12.46,2.91Z"/><path class="cls-1" d="M928.69,249.77c-2.72-4.9-14.02,2-11.11,6.35,3.05,6.42,15.14-.73,11.11-6.35Z"/><path class="cls-1" d="M430.61,317.52c.13-5.18-9.86-3.26-13.48-4.88-6.52-.89-7.13,8.44-.84,8.72,4.66-.86,14.21,3.4,14.32-3.84Z"/><path class="cls-1" d="M480.22,320.98c-12.2-.71-24.64-2.37-36.82-2.94-.79-.04-1.84.28-2.79.66-2.43.98-2.11,4.52.47,4.99,2.59.47,6.11.21,8.03.73.29.08.58.15.88.18,30.01,2.79,60.09,7.29,90.29,8.58,2.14.55,2.22-.29,2.7-1.2.45-.84.74-1.76.8-2.71.08-1.18.03-2-2.33-2.21-12.92-2.02-46.21-5.78-61.23-6.08Z"/><path class="cls-1" d="M585.52,329.61c-9.25-1.35-20.52-2.27-30.23-2.75-2.34-.58-3.89,1.81-4.19,3.68-3.18,5.5,28.99,5.22,33.55,6.17.13.03.25.05.39.07,8.38.9,16.8,1.58,25.24,2.03,1.92.39,2.27-1.06,2.51-2.5.06-.37.06-.75-.01-1.12,0,0,0-.02,0-.03-.24-1.3-1.22-2.37-2.51-2.65-8.01-1.71-16.58-1.94-24.73-2.89Z"/><path class="cls-1" d="M543.14,187.52c2.77-1.48.51-4.28-1.51-5.09-10.19-7.86-20.92-15.03-30.07-24.15-2.56-2.33-5.32-1.59-6.74.29-4.09,5.85,6.15,8.67,9.57,11.83,6.96,2.82,23.36,22.58,28.74,17.12Z"/><path class="cls-1" d="M606.6,234.99c.76-.98.61-1.99-.45-2.66-16.49-14.32-33.35-27.46-51.41-40.01-1.49-1.75-6.26,1.88-6.67,3.51,5.2,6.92,14.01,11.93,20.66,17.52,10.76,8.79,22.16,16.73,33.64,24.54,2.11,1.81,3.63-1.24,4.23-2.9Z"/><path class="cls-1" d="M664.1,284.8c1.46,1,2.24.27,2.62-.95.71-2.25-.17-4.71-2.01-6.19-16.2-13.08-32.65-24.29-48.61-37.13-3.14-2.94-6.93,2.74-3.54,4.66,15.56,11.49,36.26,28.35,51.53,39.62Z"/><path class="cls-1" d="M682.61,151.92c7.2-1.29.14-10.58-.68-14.77-2.64-8.9-5.12-17.92-7.85-26.77-1.44-5.31-9.66-7.08-10.42-.42-.19,5.38,3.01,10.18,4.96,15.05,3.49,8.11,6.56,16.39,9.58,24.68.4,2.08,2.72,2.7,4.42,2.24Z"/><path class="cls-1" d="M707.47,219.63c6.53-1.35-2.7-16.99-3.15-21.31-3.82-12.72-7.53-25.99-13.54-37.73-9.14-2.07-7.36,4.6-4.69,10.49,2.63,5.78,16.59,52.97,21.39,48.55Z"/><path class="cls-1" d="M825.06,215.64c7.21,2.4,7.76-10.69,11.22-14.88,3.67-8.35,7.6-16.54,12.57-24.21,2.24-5.73,9.93-12.4,7.83-18.45-.19-2.84-3.48-7.09-5.68-3.2-5.26,9.92-9.17,20.67-14.61,30.58-4.11,8.1-8.37,16.15-13.36,23.79-1.74,2.37-.77,5.46,2.04,6.38Z"/><path class="cls-1" d="M521.05,221.81c-2.55,1.25-4.57,5.12-1.25,6.72,17.31,9.19,34.56,20.34,52.79,27.12,2.02.75,4.31-.77,4.17-2.92-.06-.91-.55-1.77-1.65-2.31-7.49-4.5-15.65-9.58-24.84-14.81-.12-.07-.24-.12-.37-.18-5.77-2.31-25.41-16.35-28.86-13.62Z"/><path class="cls-1" d="M493.05,207.77c4.48-6.35-7.3-8.59-11.17-11.12-13.02-7.15-26.17-14.06-38.77-21.95-3.49-2.76-7.8,1.51-6.6,5.22,5.99,5.59,15.34,7.81,22.3,12.49,8.16,4.47,16.56,8.54,24.32,13.66,3.02,1.47,7.9,5.3,9.92,1.7Z"/><path class="cls-1" d="M610.73,122.35c4.03-2.45.75-7.3-1.2-10.2-2.17-3.14-4.52-10.37-9.88-8.51-6.51,3.28-.27,9.89,1.97,13.49,1.83,3.13,4.91,8.24,9.11,5.21Z"/><path class="cls-1" d="M646.07,178.29c7.73-.17-21.03-35.49-23.04-40.83-1.95-3.25-5.45.47-6.13,2.77.84,2.85,2.92,5.36,4.52,7.86,5.76,10.26,11.92,20.33,18.35,30.2,1.24,2.38,4.45.69,6.3,0Z"/><path class="cls-1" d="M685.51,243.69c6.62-.54.42-6.74-1.34-10.52-4.46-4.56-12.39-26.44-18.09-24.69-2.38.31-4.08,3.08-2.42,5.28,4.74,5.49,16.99,29.98,21.85,29.93Z"/><path class="cls-1" d="M662.29,196.87c-1.71-4.46-6.9-9.49-10.1-3.37-.74,3.33,2.5,7.43,5.07,9.29,3.43,1.34,7.18-2.61,5.03-5.93Z"/><path class="cls-1" d="M800.35,158.65c-5.29-5.86-7.69,25.8-9.29,29.02-5.67,21.11-11.48,43.59-17.61,64.55.08,2.26-2.85,7.91-.08,8.49,0,0-.22.36-.22.36s.22-.36.22-.36c7.01,10.18,9.75-8.44,9.54-12.42,2.23-9.62,4.79-19.56,7.03-29.57,3.43-19.02,9.13-36.46,14.03-54.89.61-.85-2.2-4.41-3.62-5.17Z"/><path class="cls-1" d="M803.3,145.86c9.17,3.03,8.69-12.95,9.96-18.72,2.43-14.3,8.17-27.78,10.88-42.03.29.01.3.08,0-.03.95-2.15-.62-3.36-1.77-4.82-9.12-7.8-10.81,22.8-12.56,28.1-.22,8.56-14.18,33.22-6.53,37.49Z"/><path class="cls-1" d="M908.63,260.27c-2.54-6.18-15.56,6.61-20.1,7.81-7.09,4.25-14.33,8.24-21.79,11.8-2.85,2.12-9.23,3.55-6.66,8.06,2.76,4.06,6.96-.51,10.21-1.83,6.85-4.58,13.97-8.74,21.23-12.65,3.5-3.2,20.94-8.18,17.11-13.2Z"/><path class="cls-1" d="M1008.73,205.08c-3.39-5.36-8.83,1.32-12.71,2.83-8.57,6.05-17.8,11.05-27.11,15.85-10.34,5.81-21.09,10.99-30.96,17.52-3.34,1.55-2.07,5.79.51,7.1,19.34-6.02,35.92-21.24,54.54-29.9,4.34-3.33,20.15-6.11,15.73-13.4Z"/><path class="cls-1" d="M997.96,324.69c1.83-5.25-31.6,2.16-36.11,1.65-15.59,1.02-31.83,2.5-48.01,4.34-2.59.09-1.82,1.54-1.98,3.26.76.19.52,1.25,1.14,1.6,25.66-1.5,51.33-5.97,76.72-7.37,2.45-.95,8.39.7,8.25-2.87,0-.15,0-.46,0-.61Z"/><path class="cls-1" d="M1067.37,314.87c-.1.02-.2.03-.3.05-10.97,1.21-20.88,1.89-29.65,2.72-11.92,1.48-21.2,1.65-29.41,3.51-1.75.4-2.98,2.14-2.46,3.86.32,1.07,1.15,1.85,2.65,1.59,20.61-.79,41.06-4.46,61.55-5.66.16,0,.32-.03.47-.07,1.89-.42,4.59-.21,4.29-2.96-.36-3.22-4.77-3.53-7.15-3.05Z"/><path class="cls-1" d="M1096.05,313.41c-1.08-5.73-13-3.74-11.63,2.1.54,5.84,13.53,4.29,11.63-2.1Z"/><path class="cls-1" d="M603.54,189.89c.63-.77.58-1.69-.16-2.36-7.1-7.98-14.22-15.94-21.28-23.95-2.14-2.28-4.77-1.92-6.37-.38-5.17,6.53,8.55,12.72,11.78,17.78,3.9,3.8,7.87,7.53,11.72,11.38,1.93,1.99,3.51-.91,4.31-2.47Z"/><path class="cls-1" d="M635.54,221.79c-7.81-8.33-15.67-16.61-23.57-24.87-1.77-1.94-3.99-.72-4.68,1.34.14,1.17-.08,2.55,1.2,3.41,11.22,11.71,22.62,23.35,33.35,35.46,14.78,1.09-2.94-11.39-6.31-15.35Z"/><path class="cls-1" d="M767.97,136.82c-.49,4.03,5.9,5.26,6.44.9-.04-4.53,3.74-9.9,1.13-13.98-9.95-6.36-7.52,7.47-7.56,13.08Z"/><path class="cls-1" d="M773.32,152.78c1.66-4.4-5.56-7.06-6.55-2.37-.56,2.11-.28,5.06,2.51,5.04,1.82.28,4.03-.48,4.04-2.67Z"/><path class="cls-1" d="M763.96,213.45c8.26,2.64,5.63-24.62,7.39-30.11-.41-5.33,5.24-19.83-2.56-20.54,0,0,0-.2,0-.2s0,.2,0,.2c-6.82.38-4.27,14.81-5.3,19.89.55,4.95-4.99,31.38.47,30.76Z"/><path class="cls-1" d="M130.07,411.47c2.94,0,4.57,1.63,5.22,4.41l11.59,47.48c.33,1.63,1.63,1.63,1.96,0l11.59-47.48c.65-2.78,2.28-4.41,5.22-4.41h33.78c3.26,0,4.89,1.63,4.89,4.9v104.43c0,3.1-1.63,4.89-4.89,4.89h-18.27c-3.1,0-4.9-1.8-4.9-4.89v-64.29c0-1.14-1.47-1.31-1.79-.16l-15.83,65.1c-.65,2.78-2.45,4.24-5.38,4.24h-10.77c-2.94,0-4.73-1.47-5.38-4.24l-15.83-65.1c-.33-1.14-1.8-.98-1.8.16v64.29c0,3.1-1.63,4.89-4.89,4.89h-18.27c-3.26,0-4.89-1.8-4.89-4.89v-104.43c0-3.26,1.63-4.9,4.89-4.9h33.78Z"/><path class="cls-1" d="M300.9,488.98c0,10.77-2.28,39.65-40.96,39.65s-40.96-28.88-40.96-39.65v-40.79c0-10.77,2.28-39.65,40.96-39.65s40.96,28.88,40.96,39.65v40.79ZM272.84,456.84c0-12.56-.82-20.23-12.89-20.23s-12.89,7.67-12.89,20.23v23.5c0,12.56.82,20.23,12.89,20.23s12.89-7.67,12.89-20.23v-23.5Z"/><path class="cls-1" d="M344.47,411.47c2.77,0,4.57,1.14,5.71,3.75l22.19,54.33c.65,1.47,1.96,1.14,1.96-.49v-52.7c0-3.26,1.79-4.9,4.89-4.9h18.28c3.26,0,4.89,1.63,4.89,4.9v104.43c0,3.1-1.63,4.89-4.89,4.89h-23.99c-2.77,0-4.57-1.14-5.71-3.75l-22.19-54.34c-.65-1.47-1.96-1.14-1.96.49v52.7c0,3.1-1.63,4.89-4.89,4.89h-18.28c-3.1,0-4.89-1.8-4.89-4.89v-104.43c0-3.26,1.79-4.9,4.89-4.9h23.99Z"/><path class="cls-1" d="M459.98,411.47c30.68,0,40.79,12.4,40.79,39.16v35.73c0,26.76-10.12,39.32-40.79,39.32h-36.39c-3.1,0-4.89-1.8-4.89-4.89v-104.27c0-3.26,1.63-4.89,4.89-5.06h36.39ZM460.47,497.63c7.83,0,11.75-1.31,11.75-11.09v-35.9c0-10.12-3.92-11.1-11.75-11.1h-8.81c-3.1,0-4.89,1.63-4.89,4.89v48.3c0,3.1,1.79,4.89,4.89,4.89h8.81Z"/><path class="cls-1" d="M594.59,520.15c0,3.59-1.63,5.55-4.9,5.55h-18.27c-3.1,0-4.89-1.63-4.89-4.89v-14.2c0-3.26-1.63-4.89-4.89-4.89h-14.03c-3.1,0-4.89,1.63-4.89,4.89v14.2c0,3.26-1.63,4.89-4.89,4.89h-18.28c-3.1,0-4.89-1.96-4.89-5.55v-69.18c0-20.56,3.26-42.42,39.98-42.42s39.98,21.86,39.98,42.42v69.18ZM566.53,450.96c0-7.83-1.14-11.75-11.91-11.75s-11.91,3.92-11.91,11.75v17.79c0,3.1,1.79,4.9,4.89,4.9h14.03c3.26-.16,4.89-1.8,4.89-5.06v-17.62Z"/><path class="cls-1" d="M632.28,411.47c2.78,0,4.57,1.14,5.55,3.75l12.07,30.35c.65,1.47,1.63,1.47,2.28,0l12.07-30.35c.98-2.61,2.77-3.75,5.55-3.75h23.33c3.75,0,5.39,2.28,3.75,5.71l-29.21,65.27c-.33.65-.33,1.3-.33,1.96v36.39c0,3.1-1.63,4.89-4.89,4.89h-22.84c-3.1,0-4.9-1.8-4.9-4.89v-36.39c0-.65,0-1.31-.33-1.96l-29.37-65.27c-1.63-3.43,0-5.71,3.75-5.71h23.5Z"/><path class="cls-1" d="M795.77,411.47c2.94,0,4.57,1.63,5.22,4.41l11.59,47.48c.33,1.63,1.63,1.63,1.96,0l11.59-47.48c.65-2.78,2.28-4.41,5.22-4.41h33.78c3.26,0,4.89,1.63,4.89,4.9v104.43c0,3.1-1.63,4.89-4.89,4.89h-18.28c-3.1,0-4.89-1.8-4.89-4.89v-64.29c0-1.14-1.47-1.31-1.79-.16l-15.83,65.1c-.65,2.78-2.45,4.24-5.38,4.24h-10.77c-2.94,0-4.73-1.47-5.38-4.24l-15.83-65.1c-.33-1.14-1.79-.98-1.79.16v64.29c0,3.1-1.63,4.89-4.89,4.89h-18.28c-3.26,0-4.89-1.8-4.89-4.89v-104.43c0-3.26,1.63-4.9,4.89-4.9h33.78Z"/><path class="cls-1" d="M966.6,488.98c0,10.77-2.28,39.65-40.96,39.65s-40.96-28.88-40.96-39.65v-40.79c0-10.77,2.28-39.65,40.96-39.65s40.96,28.88,40.96,39.65v40.79ZM938.53,456.84c0-12.56-.82-20.23-12.89-20.23s-12.89,7.67-12.89,20.23v23.5c0,12.56.82,20.23,12.89,20.23s12.89-7.67,12.89-20.23v-23.5Z"/><path class="cls-1" d="M1067.27,516.88c2.28,4.24-.33,8.81-5.38,8.81h-18.6c-1.63,0-3.1-.82-3.75-2.28l-16.97-32.8c-.33-.49-.82-.82-1.31-.82h-6.53c-2.94,0-5.06,2.12-5.06,5.06v25.78c0,2.94-2.12,5.06-5.06,5.06h-18.27c-2.94,0-5.06-2.12-5.06-5.06v-104.1c0-2.94,2.12-5.06,5.06-5.06h35.73c29.04,0,40.79,12.4,40.79,39.16,0,15.18-3.75,25.78-12.4,31.98-.65.49-.82,1.31-.49,2.12l17.3,32.14ZM1014.73,439.54c-2.94,0-5.06,2.12-5.06,5.06v12.07c0,2.94,2.12,5.06,5.06,5.06h8.32c7.83,0,11.75-.98,11.75-11.1s-3.92-11.1-11.75-11.1h-8.32Z"/><path class="cls-1" d="M1106.91,411.47c2.77,0,4.57,1.14,5.71,3.75l22.19,54.33c.65,1.47,1.96,1.14,1.96-.49v-52.7c0-3.26,1.79-4.9,4.89-4.9h18.27c3.26,0,4.89,1.63,4.89,4.9v104.43c0,3.1-1.63,4.89-4.89,4.89h-23.98c-2.77,0-4.57-1.14-5.71-3.75l-22.19-54.34c-.65-1.47-1.96-1.14-1.96.49v52.7c0,3.1-1.63,4.89-4.89,4.89h-18.28c-3.1,0-4.89-1.8-4.89-4.89v-104.43c0-3.26,1.8-4.9,4.89-4.9h23.99Z"/><path class="cls-1" d="M1203.99,411.47c3.26,0,4.89,1.63,4.89,4.9v104.43c0,3.1-1.63,4.89-4.89,4.89h-17.95c-3.1,0-4.89-1.8-4.89-4.89v-104.43c0-3.26,1.8-4.9,4.89-4.9h17.95Z"/><path class="cls-1" d="M1254.08,411.47c2.77,0,4.57,1.14,5.71,3.75l22.19,54.33c.65,1.47,1.96,1.14,1.96-.49v-52.7c0-3.26,1.79-4.9,4.89-4.9h18.27c3.26,0,4.89,1.63,4.89,4.9v104.43c0,3.1-1.63,4.89-4.89,4.89h-23.98c-2.77,0-4.57-1.14-5.71-3.75l-22.19-54.34c-.65-1.47-1.96-1.14-1.96.49v52.7c0,3.1-1.63,4.89-4.89,4.89h-18.27c-3.1,0-4.9-1.8-4.9-4.89v-104.43c0-3.26,1.8-4.9,4.9-4.9h23.98Z"/><path class="cls-1" d="M1326.69,448.19c0-10.77,2.28-39.65,40.96-39.65,34.27,0,39.98,22.52,40.79,35.24.16,2.94-1.31,4.73-4.24,5.38l-18.44,4.08c-3.26.65-5.06-.82-5.38-4.24-.65-7.83-3.43-12.4-12.73-12.4-12.07,0-12.89,7.67-12.89,20.23v23.5c0,12.56.82,20.23,12.89,20.23s12.89-7.67,12.89-15.66h-9.46c-3.1,0-4.89-1.8-4.89-4.9v-13.05c0-3.26,1.79-4.9,4.89-4.9h32.63c3.26,0,4.89,1.63,4.89,4.9v22.03c0,10.77-2.28,39.65-40.96,39.65s-40.96-28.88-40.96-39.65v-40.79Z"/></svg>