<?xml version="1.0" encoding="UTF-8"?><svg id="Layer_1" xmlns="http://www.w3.org/2000/svg" viewBox="0 0 1500 1499.76"><defs><style>.cls-1{fill:#fff;stroke-width:0px;}</style></defs><path class="cls-1" d="M286.89,1313.08l-2.83-.11-2.16.11-1.47-.11-1.81-.11-4.77.11-1.25.11-2.49-.11-3.97.23-2.49-.34-1.13-.23-1.02-.68-1.25-1.93-.34-3.29-.11-3.63.23-3.86v-2.61l-.23-3.06-.23-3.86v-7.71l.11-3.74-.11-2.49-.11-3.4v-3.29l.11-2.16-.11-3.18v-1.93l-.11-3.63.11-2.72v-1.47l.11-2.16v-2.95l.23-2.38v-4.76l-.11-2.5.23-1.7.68-2.16,1.93-1.7,2.49-.57,2.38.11,1.59.11,4.54-.11h2.83l2.72.11,1.36-.11h4.31l1.36.23,1.93.11,3.51-.11,1.82-.23h7.48l5.22.57,2.95.79,1.47.46,5.1,2.49,1.36,1.13,1.25,1.25,1.13,1.25,1.25,2.16,1.59,3.52,1.13,3.52.34,1.81v4.42l-.11,1.7-.91,3.4-1.13,3.29-1.25,1.93-1.7,2.27-.91,1.7.46.68,1.93,1.25,1.59,1.7,1.59,2.49,1.25,2.95,1.25,3.4.57,2.38.45,2.16.11,2.04-.11,3.06-.91,3.4-.46,1.93-.91,2.04-1.13,2.49-1.36,1.36-1.13,1.81-2.27,1.93-3.06,1.7-2.38,1.02-1.7.45-2.95.91-2.95.45-1.47.34-1.7.11-1.13.11-1.93.23-2.04-.11-2.95.11h-2.95l-4.42-.23ZM290.18,1265.22l4.88.11h1.82l2.27-.23,3.86-.57,2.04-.79,2.15-1.7,1.13-1.47,1.02-1.7.34-2.38v-2.83l-.56-1.82-.57-1.47-1.02-1.36-2.49-1.47-2.72-1.02h-1.93l-1.36-.11-5.78.11-4.42-.11h-2.84l-2.15-.23-3.18-.11-3.63.23-2.04.34-.91.34-.46.91v1.82l-.11,1.7-.46,2.27.11,2.72v2.84l.34,2.04v1.59l.34,1.02.46.68,1.02.34.91.11,2.27.11h2.49l2.38.11,3.51.11,3.29-.11ZM294.5,1300.15l2.72-.11,2.95-.34h1.93l2.15-.23,1.93-.11,1.81-.57,1.14-.68,1.47-1.36,1.14-1.81.45-.91.57-1.25.23-1.93.22-2.27-.22-1.82-.57-1.81-1.02-2.16-1.13-1.36-.91-.79-.91-.57-.56-.34-1.25-.45-3.4-.57-4.2-.11-3.06-.11-1.36.11h-5.11l-1.47-.11-1.7.11h-2.27l-8.39.11-1.59.45-.46,1.13.11,1.93.23,1.7v2.15l-.23,3.4-.22,4.31v2.49l.45,3.06.91.46.56.23,2.38.11h4.2l3.51.11,2.72-.11,2.95.23,3.29-.23Z"/><path class="cls-1" d="M394.77,1314.33h-1.93l-1.7-.11-2.27-.34h-2.84l-2.04-.57-1.14-.23-1.47-.34-2.04-.79-2.72-1.02-2.27-1.25-1.13-.57-1.25-.79-1.47-.79-1.02-.79-1.14-.68-1.58-1.47-1.93-1.7-1.25-1.25-4.08-4.88-1.59-3.06-1.36-2.49-1.47-2.61-.68-2.5-.57-1.47-.56-2.72-.46-2.27-.11-1.36-.34-1.93-.11-1.59.11-1.93v-3.29l.34-2.15.23-2.04.91-2.84.34-1.81.91-2.61,1.14-2.95,1.02-1.59,1.13-2.49,2.15-3.4,1.93-2.61,1.13-1.02.79-1.02,1.14-1.25,1.13-1.14.91-.45,1.25-1.25,3.06-1.7,2.72-1.36,3.17-1.47,2.38-.68,1.47-.68,3.06-1.02,2.84-.45,1.81-.34,2.72.11,3.97-.11,2.72.23h1.25l2.04.34,2.27.57,1.47.34,1.02.46,1.7.57,1.59.57,1.59.79,1.81,1.02,2.38,1.25,3.18,2.04,2.38,1.93,2.38,2.27,2.84,3.4,1.82,2.15.79,1.14.68,1.36.79,1.13,1.02,2.04,1.13,2.61.68,2.27.57,1.82.22,1.02.46,1.47.57,2.84.22,1.81v1.59l.11,1.82-.22,1.93-.23,2.95-.23,1.82-.11,1.81-.34,2.27-.34,1.36-.45,1.93-1.02,2.72-.91,2.49-1.02,2.16-.79,1.36-.57,1.13-.91,1.14-.8,1.02-.68,1.02-.46.79-.68.79-1.25,1.25-1.47,1.14-1.02,1.02-.8.68-1.02.79-.91.79-1.14.68-.79.68-1.36.91-2.27,1.25-2.49,1.47-1.93.79-1.25.45-2.38.79-2.84.79-2.38.34h-3.29l-2.61-.23ZM398.63,1301.17l1.47-.11.68-.11.56-.34.46-.23,1.47-.23,1.47-.68,1.36-.45,2.15-1.13,2.27-1.47,2.95-2.16,1.7-1.81.56-.68.91-1.36,1.7-2.16,2.27-3.4.68-2.49.46-2.16.34-2.49.22-3.06.23-1.59-.23-2.95-.79-4.08-.79-2.61-1.13-2.38-.57-1.93-.68-1.25-.91-1.81-1.36-1.7-.79-1.02-1.25-1.25-3.86-3.06-3.63-2.16-2.15-.91-2.38-.68-.91-.23-1.47-.46-1.93-.45h-6.24l-1.7.34-2.04.23-2.61.79-3.74,1.59-6.35,3.63-1.13,1.25-.91,1.13-.68.57-1.36,1.93-1.02,1.93-.56.79-.46,1.25-.79,1.47-.68,1.82-.56,1.81-.23,1.59-.57,2.5-.23,2.83.11,1.36.11,1.59.23,1.81v1.7l.11.57.34,1.25.45,2.04.34,1.7,1.36,2.49,2.72,4.08,2.15,2.72.8.91,1.81,1.59,2.27,1.47.79.45.46.23,2.04,1.13,2.38,1.14,1.93.57,3.17.57,3.18.45,2.72.11,3.29-.34Z"/><path class="cls-1" d="M490.63,1313.42h-1.93l-1.13-.23-1.59-.91-.57-.68-.68-.68-.46-2.16v-2.38l.11-1.7v-1.7l.23-2.16-.11-2.84.11-2.15v-2.38l.11-1.93-.11-4.42v-7.94l-.23-2.72v-.91l.11-1.25v-6.01l-.23-1.93v-3.06l.11-3.63v-2.38l.11-.91-.23-1.13.11-1.81v-1.47l-.11-.91v-1.25l-.23-1.93-.56-1.36-.46-.34-2.38-.11-2.72.23-.91.11-1.47-.11h-2.04l-7.26-.23-2.38.11-1.59-.34-1.02-.79-.91-1.02-.68-1.59-.23-2.72.34-3.06,1.02-1.93,1.36-.91,1.36-.46,1.59-.11,1.81-.34h1.36l.91.11h5.67l.57.11h6.58l1.47.11h2.61l2.49.11h3.06l2.72-.11,2.16-.11,2.27.11,2.72-.11,2.95.11,10.89.23,2.72.23,2.27.34,2.49,1.93.79,2.72v1.47l.11,1.02-.34,1.59-.34.91-.46.68-.79.91-2.16.68-3.51.46-3.86-.11-2.95.23-8.17-.23-1.81.45-.68,1.02-.11,2.38v2.61l.11,2.16-.11,2.27v1.93l-.23,2.38-.11,2.72v1.13l.11,1.36.11,1.25-.11.79.11,1.47v2.5l-.22,1.13.22.91-.11,1.25.11,1.25-.22,1.25-.11,1.7v1.59l-.11,1.81v1.59l-.23,1.13.23.68-.23,1.7.11,3.06v1.7l.11,1.02-.23,1.25.11,1.02-.11,1.02v2.83l.11,1.82-.23,1.47v1.02l.34.79.23,1.13.11,1.25-.22,1.36-.46,1.36-.68,1.25-.8.34-1.02.45-1.02.34-1.25.57-2.27-.34Z"/><path class="cls-1" d="M577.52,1313.42h-1.93l-1.13-.23-1.59-.91-.56-.68-.68-.68-.45-2.16v-2.38l.11-1.7v-1.7l.22-2.16-.11-2.84.11-2.15v-2.38l.11-1.93-.11-4.42v-7.94l-.22-2.72v-.91l.11-1.25v-6.01l-.22-1.93v-3.06l.11-3.63v-2.38l.11-.91-.22-1.13.11-1.81v-1.47l-.11-.91v-1.25l-.23-1.93-.57-1.36-.45-.34-2.39-.11-2.72.23-.91.11-1.47-.11h-2.04l-7.26-.23-2.38.11-1.59-.34-1.02-.79-.91-1.02-.68-1.59-.23-2.72.34-3.06,1.02-1.93,1.36-.91,1.36-.46,1.59-.11,1.82-.34h1.36l.91.11h5.67l.56.11h6.58l1.47.11h2.61l2.49.11h3.06l2.72-.11,2.15-.11,2.27.11,2.72-.11,2.95.11,10.89.23,2.72.23,2.27.34,2.49,1.93.8,2.72v1.47l.11,1.02-.34,1.59-.34.91-.45.68-.8.91-2.15.68-3.52.46-3.86-.11-2.95.23-8.17-.23-1.82.45-.68,1.02-.11,2.38v2.61l.11,2.16-.11,2.27v1.93l-.23,2.38-.11,2.72v1.13l.11,1.36.11,1.25-.11.79.11,1.47v2.5l-.23,1.13.23.91-.11,1.25.11,1.25-.23,1.25-.11,1.7v1.59l-.11,1.81v1.59l-.23,1.13.23.68-.23,1.7.11,3.06v1.7l.11,1.02-.23,1.25.11,1.02-.11,1.02v2.83l.11,1.82-.23,1.47v1.02l.34.79.23,1.13.11,1.25-.23,1.36-.46,1.36-.68,1.25-.79.34-1.02.45-1.02.34-1.25.57-2.27-.34Z"/><path class="cls-1" d="M643.2,1312.4l-1.47-.79-.8-1.59-.56-2.04-.11-2.38.11-2.49-.11-2.27.22-1.7-.11-2.95v-5.1l.11-2.49-.11-2.72-.23-1.25-.11-2.5v-7.03l.11-3.18v-2.16l.23-2.49.11-2.49.23-2.95-.23-2.95.23-2.38v-5.22l-.23-1.59v-3.29l-.11-2.84v-6.24l.45-1.81.34-.79.57-.79.79-.45,1.36-.34,1.47-.11,1.47.23h2.15l1.82-.11,1.25.45.68.68.57,1.02.23.79.11,1.81.11,2.27v1.7l.23,2.5v1.81l-.23,2.27-.11,1.93v7.15l.11,2.49.23,2.16.11,2.04.11,3.4.11,2.5-.11.79.11,1.25.11,2.15-.11,2.16v1.02l-.11,1.02.11.79-.23,2.27v2.04l-.11,3.86-.34,2.5v2.61l.11,1.93.34,2.72v.91l.11,1.02.68.91.56.23h4.99l2.49.11,1.02-.11,1.13.11,1.81.11,2.27.11h2.38l1.82-.34,2.15-.11h2.04l1.7.11h2.27l1.36.23h2.04l2.72-.34h2.72l1.7.11h1.59l1.47.34,1.25.79,1.25,1.47.23.79v5.1l-.23,1.13-.34.79-.91.79-1.93,1.02-1.59.23-1.93-.11h-5.9l-1.93.34-1.47-.11h-6.46l-1.7-.11-6.69.23h-21.89l-1.7-.57Z"/><path class="cls-1" d="M772.06,1312.97l-.79-.11-1.02.11-2.61-.23-2.27.11-1.47-.11-3.18.11h-2.38l-2.16-.11h-1.81l-1.59.23-1.82-.11-.56.11-2.49-.23h-3.41l-3.74-.11-4.08.11h-3.63l-1.82-.11-1.81-1.02-1.36-2.27-.23-2.72v-8.05l-.11-3.51.11-2.61v-3.52l-.11-2.16-.11-2.38-.11-1.13v-1.59l.11-1.7v-2.72l-.11-.34.11-1.02-.11-1.36v-1.02l-.11-2.72.11-4.76.11-3.18v-1.93l-.11-3.29v-7.37l-.23-1.93.11-1.47v-1.36l.11-2.16v-1.25l.11-2.16.11-3.06.46-1.47.79-1.25,1.25-.79.91-.45,1.25-.23h3.29l4.76.23h7.49l3.17-.11,2.38-.11,3.52-.11h7.37l2.49.34h2.49l1.82-.23,3.18.11,1.81.11,4.54-.23,1.25.11,1.7-.11,1.81.23,1.7.68.91,1.36.68,2.27.23,2.38-.11,1.47-.68,2.04-1.25,1.59-1.25.45-2.61.23-4.08.11-2.38.11-1.02-.11-3.63.23h-5.33l-4.31-.11-2.61-.11h-1.13l-2.27.23-6.01.11h-2.04l-2.49.11h-2.15l-2.04.57-.34,1.82-.11,1.93-.23.79v1.93l-.11,2.61.23,2.83-.11,2.95.57,2.61,1.36.79h.91l2.49.34,2.95-.23h1.93l2.38.23,2.5-.23,8.62-.11h6.24l1.7.11,1.93.57,1.36,1.36.45,1.25.23,1.13.11.91.23,2.61-.34,2.38-.79,1.36-2.27,1.13h-6.01l-6.58.34-3.63-.11h-1.25l-4.65-.11-1.36.11-2.04-.11-2.72.11-1.36.23-1.47.45-.8.68-.11,1.59-.11,1.7-.23,1.93v2.49l.11,1.7v2.15l-.11,1.82v3.06l1.02,2.95,3.18,1.36h7.94l3.17-.11,3.18.11,6.46-.11,2.38-.23h6.81l1.36.23h2.15l3.52.11,2.83.23h1.47l.91.23,1.02.68.68,1.02.34,2.04-.11,2.38v1.36l-.23,1.25-.45,1.36-.68.91-.79.45-1.13.34-5.67.57-2.95.34h-3.17l-2.27-.11Z"/><path class="cls-1" d="M892.42,1314.33l-1.47-.23-1.93-.34-3.06-.45-3.41-1.13-2.27-.79-4.31-1.81-3.06-1.7-1.36-1.02-1.93-1.36-3.17-2.84-2.5-2.15-1.36-2.16-1.02-1.93v-2.27l1.02-1.93,1.25-1.59,1.93-1.02,1.13-.34,1.13-.46h1.47l1.47.34,1.13.68,2.72,2.49.46.79.46.45,3.29,2.61,1.36,1.02,1.25.57,2.27,1.25,2.49.91,1.82.91,1.59.45,1.13.23h.91l.91-.11,1.02.23.68-.11,1.7.11,2.72.11,1.7-.46h1.7l1.36-.23,1.47-.11,1.25-.34.91-.45,1.47-.45,1.93-1.14,2.49-2.04,1.59-1.93.34-.91.68-1.7.23-2.15-.34-2.84-1.93-3.06-2.27-1.36-1.25-.57-1.7-.57-1.59-.45-1.7-.23-1.7-.45-1.58-.23-1.47-.34-1.59-.11-2.38-.45-2.38-.23-1.25-.34-2.39-.23-4.53-.79-1.59-.34-1.36-.46-2.27-.57-2.27-.79-1.58-.68-1.82-.68-2.49-1.25-1.82-1.13-.45-.23-1.25-1.02-1.47-1.36-.8-.68-.68-.91-.91-1.36-.57-1.02-1.13-1.81-1.13-4.42v-3.29l.23-1.93.34-2.61.46-1.7.46-1.13.56-1.13.46-1.02.79-1.25,1.25-1.7,3.52-3.52,1.13-.57,1.59-1.14,1.93-.91,1.47-1.13,1.25-.68,1.02-.46,1.02-.11,1.14-.68,4.08-1.13,2.16-.34,2.61-.34,1.25-.23,1.47-.11,2.49-.23,2.27.11h1.02l.8.11,3.97.34.68.23h.91l1.13.23,1.02.23,1.36.23,2.95,1.13,1.13.68,1.02.45,1.47.91,2.84,1.25,1.59,1.47,2.49,1.93,2.15,2.27,1.93,2.72,1.02,1.93-.23,3.4-.23.68-.45.79-.91.79-2.04,1.25-2.16.79-1.81-.11-1.82-.79-1.13-.79-1.25-1.25-1.93-2.04-1.58-1.36-1.02-.79-1.93-1.02-1.25-1.02-2.61-1.14-1.82-.45-3.06-.34-2.04-.11-3.06.11-2.72.23-2.27.11-3.4.68-3.29,1.47-1.36.79-1.81,1.25-2.27,2.04-.68,1.7-.46,1.36-.11,2.04.46,2.04.68,1.81.57.79.91.68,1.59,1.25,2.38.91,3.52,1.02,2.15.45,1.36.34,1.25.11,1.47.23,1.02.23,1.25.57h.8l1.13.11h2.27l1.36.34,1.93.34,2.27.57,1.13.34,1.13.11.46.34,2.95.34,5.22,1.36,2.49,1.14,2.38,1.02,1.93,1.47.68.68,1.59,1.13,1.7,1.93.68,1.36.68,1.25.46.79.23.91.68,1.81.23,1.59.11.46.23.23.11,1.59v4.2l-.46,2.61-.46,1.81-.56,1.59-.57,1.13-.22.79-.8,1.36-1.02,1.47-.91,1.02-.8,1.02-.56.57-.8,1.02-1.02,1.02-1.36.91-1.93,1.25-1.13.68-.79.45-1.13.57-1.13.46-.8.34-1.59.46-2.27.79-2.95.68-2.72.23-1.7.23-2.27.11h-4.42l-2.72-.11Z"/><path class="cls-1" d="M966.5,1312.63l-2.38-1.02-.79-1.25-.46-1.59-.11-2.27.11-1.81-.11-2.38v-3.06l-.11-1.7.11-1.81-.11-3.29v-1.93l.34-4.08v-4.99l-.11-1.7-.11-1.13v-2.61l.11-2.72v-3.18l-.11-1.82v-3.06l-.11-2.84v-8.17l-.11-4.08v-2.27l.11-2.49-.11-2.72v-3.06l.23-3.4.79-1.36.57-.57,1.7-1.13,2.84-.34h2.04l1.59.34,1.25.34.79.68.68,1.02.34.91.23,1.36.23,1.81v3.18l.11,3.51v2.38l-.11,2.15v5.11l.11,2.04.11,2.15v1.36l-.11,1.13.23,1.36.23.68.91.46,2.04.11,3.29.11h2.04l4.08.11,2.84-.11h8.96l3.29-.11,2.27.11,3.29-.11,2.84.11,1.93-.23,1.13-.34.46-.91.46-1.47.22-1.93v-5.22l-.11-3.29.11-1.7v-11.23l.34-2.04.34-1.13.56-.91,1.47-1.25,2.16-.45,1.93.11h2.27l1.93.57,1.59,1.36.56,2.38.23,1.59.23,2.16-.23,2.38v2.95l.11,3.4.11,3.86-.11,3.29-.11,3.51v2.27l.11,3.06-.23,1.81.11,2.16-.11,3.06.11,3.86.23,3.63-.23,3.06.11,2.72v1.7l-.11,1.47-.11,2.49.23,2.16.11,1.47v1.7l-.11,1.59.11,1.93-.23,1.7.11,1.25v1.59l-.23,2.49-.45,2.49-1.36,1.81-1.7.68-3.06.34-3.17-.23-1.13-.45-1.47-1.14-.68-1.7-.23-1.59.11-3.97v-21.1l-.11-2.95-.91-1.36-1.82-.23-5.67-.23-2.95.11-4.31-.34-4.42.11-3.97-.11-2.72.23h-2.04l-3.4.11h-3.06l-1.93.11-.8.23-1.81,1.59-.46,2.72v10.1l-.11,1.59-.11,1.81.23,2.04.11,3.06v2.38l.11,1.7-.11,2.16-.23,2.04-.79,1.13-1.02.79-2.15.91-2.04.46h-1.36l-2.16-.34Z"/><path class="cls-1" d="M1103.07,1314.33h-1.93l-1.7-.11-2.27-.34h-2.84l-2.04-.57-1.13-.23-1.47-.34-2.04-.79-2.72-1.02-2.27-1.25-1.13-.57-1.25-.79-1.47-.79-1.02-.79-1.13-.68-1.59-1.47-1.93-1.7-1.25-1.25-4.08-4.88-1.59-3.06-1.36-2.49-1.47-2.61-.68-2.5-.56-1.47-.57-2.72-.45-2.27-.11-1.36-.34-1.93-.11-1.59.11-1.93v-3.29l.34-2.15.23-2.04.91-2.84.34-1.81.91-2.61,1.13-2.95,1.02-1.59,1.13-2.49,2.16-3.4,1.93-2.61,1.13-1.02.8-1.02,1.13-1.25,1.13-1.14.91-.45,1.25-1.25,3.06-1.7,2.72-1.36,3.18-1.47,2.38-.68,1.47-.68,3.06-1.02,2.83-.45,1.82-.34,2.72.11,3.97-.11,2.72.23h1.25l2.04.34,2.27.57,1.47.34,1.02.46,1.7.57,1.59.57,1.59.79,1.82,1.02,2.38,1.25,3.17,2.04,2.39,1.93,2.38,2.27,2.84,3.4,1.81,2.15.8,1.14.68,1.36.8,1.13,1.02,2.04,1.13,2.61.68,2.27.57,1.82.23,1.02.46,1.47.56,2.84.23,1.81v1.59l.11,1.82-.23,1.93-.23,2.95-.23,1.82-.11,1.81-.34,2.27-.34,1.36-.46,1.93-1.02,2.72-.91,2.49-1.02,2.16-.8,1.36-.56,1.13-.91,1.14-.79,1.02-.68,1.02-.45.79-.68.79-1.25,1.25-1.47,1.14-1.02,1.02-.79.68-1.02.79-.91.79-1.13.68-.79.68-1.36.91-2.27,1.25-2.49,1.47-1.93.79-1.25.45-2.39.79-2.83.79-2.39.34h-3.29l-2.61-.23ZM1106.93,1301.17l1.47-.11.68-.11.57-.34.46-.23,1.47-.23,1.47-.68,1.36-.45,2.16-1.13,2.27-1.47,2.95-2.16,1.7-1.81.57-.68.91-1.36,1.7-2.16,2.27-3.4.68-2.49.45-2.16.34-2.49.23-3.06.23-1.59-.23-2.95-.79-4.08-.8-2.61-1.13-2.38-.57-1.93-.68-1.25-.91-1.81-1.36-1.7-.8-1.02-1.25-1.25-3.86-3.06-3.63-2.16-2.15-.91-2.39-.68-.91-.23-1.47-.46-1.93-.45h-6.24l-1.7.34-2.04.23-2.61.79-3.74,1.59-6.35,3.63-1.13,1.25-.91,1.13-.68.57-1.36,1.93-1.02,1.93-.57.79-.46,1.25-.79,1.47-.68,1.82-.57,1.81-.23,1.59-.56,2.5-.23,2.83.11,1.36.11,1.59.22,1.81v1.7l.11.57.34,1.25.46,2.04.34,1.7,1.36,2.49,2.72,4.08,2.16,2.72.79.91,1.82,1.59,2.27,1.47.79.45.46.23,2.04,1.13,2.38,1.14,1.93.57,3.18.57,3.17.45,2.72.11,3.29-.34Z"/><path class="cls-1" d="M1178.51,1312.74l-1.59-.34-.91-.79-.79-1.02-.23-1.59-.11-1.59-.23-2.49v-1.13l.34-2.5.23-2.83v-1.36l.11-2.04-.11-2.16.11-1.93v-2.95l-.11-1.7-.11-2.04.11-1.7.11-.79-.34-1.02-.23-.91.46-.34.56-.23-.11-.57h-.22l-.57.11-.23-.57.11-.34.23-.46-.23-.79v-1.14l-.11-.57.23-1.02.11-1.47-.23-.79.23-1.02v-2.16l.23-1.59.23-.79v-1.25l-.11-2.04-.11-1.93-.11-2.04v-2.61l-.23-4.31v-2.16l-.23-1.36v-5.56l-.11-2.38v-1.36l.23-2.5.68-1.7.45-.45.8-.68,1.02-.11,1.25-.34h1.7l1.02-.23,1.25.11,5.9.23.68.11,1.47-.11,2.04.11h2.04l1.7-.11,1.36-.11,1.14.11h1.25l.79-.23h1.7l2.15.11h1.02l1.02-.23,1.13-.11,1.25.11,1.13.23,1.02-.34.8.11h.45l.57-.23,1.02.23,2.49.11,2.04-.11,1.25.11,1.58.23,1.82.45,1.59.34,2.38.91,1.93.91,2.04,1.02,2.15,1.81,1.59,1.7.8,1.02.91,1.47.79,1.59.57,1.47.45,1.25.11.91.57,1.47.46,2.04.22,1.59.34,1.59v3.74l-.11,2.49-.56,2.38-.23,2.16-.91,1.7-.23.91-.57,1.13-.45,1.02-1.14,1.25-1.25,1.59-.56.79-1.02,1.02-1.14,1.47-.79.91-.91.46-.68.45-.91.45-1.13.46-2.04.45-.79.45-1.25.57-1.02.23-1.25.11-1.47.23h-4.99l-1.13.11h-2.27l-1.93-.11-1.93.23-2.61-.11-3.29.34-7.37.11h-2.84l-2.61.34-.79,1.93-.68,2.38v6.58l-.11,1.13.11,1.47-.11,2.49.11,3.18v3.97l-.34,1.36v1.93l-.11,1.02-.57,1.14-1.36,1.25-1.59.34-1.02.34-1.82.11-2.49-.23ZM1204.03,1268.73l2.95-.11.79-.11.68.11.91-.11,1.7-.11,2.61.11,5.9-.23,2.38-.68,1.7-.91,1.93-2.04,1.58-2.84.46-1.93.11-1.47v-2.27l-.46-2.49-.56-2.5-.91-1.7-.79-.79-1.36-.91-3.29-1.47-3.29-.34-1.7-.11-2.15.11-1.47.11-1.59-.11-1.25.11h-6.35l-1.36-.11-.68-.11h-.68l-1.47.11-1.93-.11-2.84.23-2.61-.23-.68-.11-.79.34-.57,1.25-.45,1.7-.34,2.27v2.27l-.11,1.47-.23,1.59v8.39l.23,2.04.34.68.56.46,1.47.34,1.82.23,1.93.11h5.67l1.82.11,2.38-.23Z"/><path class="cls-1" d="M878.85,364.16c-4.17,2.65-8.22,8.06-1.68,10.64,3.28,0,7.32-3.52,8.47-6.5.33-3.34-3.91-6.84-6.79-4.15Z"/><path class="cls-1" d="M976.99,287.97c-3.84-7.67-19.89,13.08-23.97,16.15-19.96,17.33-43.31,31.85-61.37,51.07.16,3.16,3.87,7.54,7.03,4.34,17.3-13.83,34.06-28.24,49.92-43.73,9.23-7.61,19.43-13.98,28.28-22.12,1.79-1.2,2.09-3.15.69-4.82-.1-.15.09-.49,0-.63s-.48-.11-.58-.26Z"/><path class="cls-1" d="M1014.39,251.27c-8.74,4.22-14.52,12.77-22.18,18.62-2.91,3.07-9.51,6.37-4.87,10.86,4.31,5.8,15.76-9.48,20.87-11.48,4.29-4.35,16.23-9.11,11.68-16.58-1.27-1.49-3.4-2.19-5.5-1.41Z"/><path class="cls-1" d="M980.63,421.26c-.33-1.43-1.21-1.91-2.57-1.31-17.81,4.07-35.85,7.75-53.63,11.92-11.33,2.28-23.98,5.32-36.14,8.62-1.69.18-1.53,3.11-1.52,3.2.25,2.1,2.34,3.5,4.43,3.11,21.27-3.92,40.68-10.5,61.39-15.41,8.84-2.39,17.62-5.06,26.52-7.16,1.69-.18,2.38-1.43,1.54-2.94,0,0,.35-.15.34-.16s-.36.12-.36.11Z"/><path class="cls-1" d="M1087.16,395.44c-.37-1.86-1.64-2.65-3.46-2.03-22.18,3.12-39.74,7.51-62.77,13.71-13.13,3.75-25.39,7.92-30.71,9.55-1.67.25-2.44,1.46-1.67,3.04,0,0-.38.13-.37.14s.39-.1.39-.09c-.92,6.05,58.7-9.66,65.8-11.28,4.81-1.98,37.39-7.89,32.8-13.04Z"/><path class="cls-1" d="M1137.54,378.67c-9.79,3.76-30.98,9.34-40.16,11.8-2.42.39-2.61,2.58-2.23,4.29.21-.08.19-.07.01.03,0,0,.18-.08.18-.08,1.44,3.3,18.67-3.9,23.24-3.76,5.94-2.96,27.13-.16,25.32-9.1-.62-2.44-3.08-4.34-6.36-3.18Z"/><path class="cls-1" d="M913.94,462.69c-15.24.86-30.63,1.84-45.9,3.47-15.32,1.64-30.46,4.7-45.6,6.29,0,0-.12-1.44-.12-1.44,0,0,.03,1.44.03,1.44-33.04,0-33.04-1.45-66.07-1.45-30.75,0-40.47,1.62-66.14,1.44-23.25-3.51-46.53-5.7-69.89-6.53-3.61-.13-6.57-3.14-6.32-6.74.05-.7.22-1.24.73-1.61,2.39-1.71,29.97,4.66,45.21,6.23,15,2.21,31.77.4,46.23,3.91-8.4.17-17.3-5.58-25.76-7-8.5-2.09-17.23-2.75-25.49-4.81-25.7-7.59-62.11-16.32-89.5-19.34-13.26-1.84-5.75-6.82-.18-8.49,1.42-.42,2.92-.43,4.35-.05,33.13,9.04,66.03,16.58,98.92,25.08,13.43,3.65,29.05,1.98,41.22,8.5,2.1.48,6.06,1.76,4.08.92-11.4-4.01-22.28-9.36-33.66-13.35-11.41-4-23.29-6.63-34.67-10.62-7.24-4-14.73-6.64-22.73-8.21-2.24-.44-3.51-2.82-2.63-4.93.05-.13.11-.26.16-.38.88-2.04,3.41-2.88,5.28-1.67,1.26.82,2.21.95,4.51,1.03.97.03,1.93.26,2.8.69,11.6,5.66,37.48,14.49,49.04,17.08,6.6,3.85,13.37,6.28,20.95,7.37-3.97-2.66-8.23-4.02-12.86-4.91-6.66-4.52-13.61-7.88-21.3-10.25-23.35-12.8-46.4-26.18-70.07-38.4-2.45-1.26-3.32-4.24-1.96-6.63,1.12-1.97,2.65-3.12,5.68-3,1.89.08,23.45,13.58,35.37,19.99,11.92,6.41,24.42,11.81,35.94,18.94,6.15,5.19,12.74,9.23,20.14,12.4,5.92,5.69,12.72,9.12,20.42,11.66,1.74,2.09,3.54,4.02,6.23,5.02-15.19-13.17-52.07-40.09-55.1-41.91-3.65-4.87,3.04-7.54,5.92-6.1,2.21,1.1,14.65,12.92,22.9,19.17,7.28,6.34,18.42,10.45,24.82,17.93-7.56-4.81-12.19-14.85-18.11-20.19-6.98-7.42-14.12-12.92-19.07-18.23-6.41-9.56-15.14-16.37-24.38-22.92-2.3-2.28-3.49-5.64-5.68-8.02-2.26-3.21-9.77-4.71-6.95-9.48.48-2.62,8.43-.47,10.19,1.11,1.23,1.21,3.46,1.39,4.66,2.63,5.01,4.88,8.29,11.31,12.67,16.76,13.77,13.85,22.75,23.2,37.48,39.98,6.53,7.78,18.29,14.65,24.53,24.4-9.45-11.08-15.2-26.64-23.77-38.9-6.66-10.48-14.16-20.39-21.14-30.66-.87-1.28-1.73-2.56-2.58-3.86-.5-.76-1.89-2.18-1.56-3.16.2-.62,1.82-4.09,4.96-2.95,2.9,1.06,5.4,5.44,6.9,7.87,2.14,3.47,4.07,7.06,5.98,10.65,3.4,6.4,6.4,13.34,10.7,19.2.24.33.56.64.78.99,7.8,12.38,16.96,24.13,24.92,36.63.02.03-.23,1.06-.2,1.04s-.98-.43-.99-.46c-2.6-11.45-6.54-22.17-11.94-32.46-4.88-15.52-10.19-32.7-16.18-47.88-.14-4.87-1.27-9.18-3.42-13.32-.99-1.9.67-3.14,2-4.82,1.04-1.31,2.37-2.64,4.28-.68,5.99,6.17,16.13,42.29,23.59,63.08,1.77,5.27,2.19,11.05,4.02,16.43,1.22,5.49,6.79,11.02,6.33,16.48-3.02-8.56-.59-19.62-2.17-28.9.05-9.67-5.14-32.22-2.42-34.39.72-1.11,3.48-1.26,4.35-.25.69.61,2.35.86,2.44,1.85.78,8.67.2,17.93,1.1,27.36.2,8.93,4.74,19.11,3.44,27.92-.88-15.22,4.02-31.81,4.56-47.24,1.25-15.74-.37-44.31,2.13-46.65.27-.26,2.69-1.29,4.77-1.25,1.01.02,1.99.37,2.78.99.59.45,1.33.9,1.28,1.49-1.24,13.51-3.91,27.13-5.11,41.04-1.85,13.56-.37,35.16-3.56,48.27,3.28-5.78,4.98-17.83,5.81-23.52,2.35-5-.38-17.55,5.77-18.47,1.83-.94,4.88.27,5.39,2.32.34.66,1.8,1.28,1.6,2.06-2.67,5.08-4.87,13.08-4.33,17.49-1.19,4.82-3.81,9.4-5.05,14.43-1.76,4.72.02,11.84-3.18,15.69,2.86-10.31,11.66-19.72,16-29.73,7.65-17.09,14.42-33.1,25.29-48.42,4.6-7.5,7.25-25.57,12.84-26.73.97-.2,4.87,2.75,5.5,3.94.57,1.08.44,2.38-.29,3.35-6.67,8.88-12.13,18.13-15.42,28.88-5.09,7.1-10.13,17.69-12.85,25.91-9.71,15.04-18.03,30.91-25.06,47.6-1.03.3-1.08.63-1.11-.73,7.89-9.71,16.85-18.51,24.65-28.21,7.84-9.75,14.5-20.41,22.24-30.15.81-1.02,2.55-.34,3.73-.31,1.18.03,3.43,2.08,3.15,3.41,2.11,5.58-19.63,22.36-23.84,29.5-8.1,8.74-13.88,21.31-22.78,28.83,8.4-9.92,22-16.69,31.78-25.83,10.28-8.66,19.59-18.39,29.78-26.99,3.71-3.25,8.36-5.42,12.06-8.68,4.11-2.36,7.9-12.79,12.81-10.28.79.13,3.77,1.18,4.26,4.21,1.45,4.94-10.66,7.01-13.52,10.49-3.81,3.06-6.72,7.24-10.52,10.31-7.66,6.3-19.78,14.58-32.14,25-10.46,7.98-20,20.52-31.2,27.34,7.84-7.11,20.41-10.05,29.25-15.94,10.67-5.47,19.15-14.24,29.89-18,1.45-.51,2.69-1.46,3.64-2.66,1.18-1.5,8.08.53,4.07,5.88-1.13,1.51-14.38,6.96-20.78,12.22-5.74,3.27-13.02,5.77-20.2,9.88-6.36,2.91-12.53,10.49-19.82,12.13,41.92-16.49,86.54-31.24,127.65-49.56.71-.27,1.3,1.12,1.85,1.51.56.39.44,3.22-.2,4.17-1.94,6.31-10.86,4.04-15.85,6.65-19.34,10.12-40.01,14.52-61.11,22.58-15.75,5.2-31.67,14.91-48.03,18.9,13.13-5.37,29.16-5.6,42.07-9.42,14.69-3.54,28.16-8.27,40.81-11.3.75-.18,1.38,1.27,2.04,1.58s2.32,2.04,1.46,4.38c-1.81,5.68-23.9,5.46-30.81,8.47-9.45,1.66-19.81,7.8-29.75,8.05,15.34-3.57,32.82-1.7,48.04-3.81,16.36-1.54,31.96-6.26,47.06-5.83,5.08.14,6.41,6.83.78,7.14Z"/><path class="cls-1" d="M543.72,425.61c3.14-4.05-20.05-7.02-24.22-8.78-.21-.09-.42-.17-.65-.22-18.65-3.78-36.39-9.22-54.97-11.08-1.84-.18-3.49,1.19-3.66,3.03,0,.02,0,.04,0,.07-.13,1.52.75,2.96,2.18,3.48,10.12,3.67,20.96,6.08,31.51,8.47,15.21,4.07,30.63,7.1,46.11,9.9,2.59,1.15,3.31-3.15,3.71-4.87Z"/><path class="cls-1" d="M436.32,401.84c.5-1.56-.2-2.71-1.85-2.88-15.79-4.04-32.08-8.15-47.85-11.81-.2-.05-.39-.07-.59-.09-6.39-.7-29.04-11.7-30.01-3.28-.25,2.17,1.22,4.21,3.3,4.86,15.83,4.99,33.1,6.18,49.48,10.75.09.03.18.05.27.07,8.02,1.69,16.18,3.11,24.17,4.9,2.5.77,3.05-2.43,3.07-2.52Z"/><path class="cls-1" d="M500.02,382.02c.77-1.22.33-2.57-1.07-3.01,0,0,.06-.15.06-.15s-.06.15-.06.15c-12.35-3.54-24.55-11.87-37.02-13.09-3.58,1.77-3.49,7.95.85,8.74,10.4,3.03,22.13,6.16,32.07,9.86,2.2.91,3.31-1.4,5.05-2.23.25-.02.16-.09.12-.27Z"/><path class="cls-1" d="M598.78,411.96c-4.05-1.49-6.37,2.42-8.17,5.54-.69,2.94,5.97,2.89,8.13,4.09,2.97,1.02,5.73-.85,6.84-3.58,2.13-4.14-4.22-4.8-6.79-6.05Z"/><path class="cls-1" d="M580.47,411.08c-.08-2.88-.16-6.04-3.49-6.89-9.83-2.92-19.73-6.25-29.71-9.43-9.92-3.16-19.92-6.17-29.68-9.52-2.11-1.11-4.69.41-5.67,2.38-2.16,3.25,28.22,11.93,32.62,14.74,6.12,1.02,35.33,17.35,35.93,8.67,0,0,.12-.1.12-.1-.07,0-.12.15-.12.15Z"/><path class="cls-1" d="M725.68,206.46c9.33.75,5.76-13.01,4.51-18.41-1.74-4.05-8.46-3.78-9.34.84-.18,5.08-1.04,16,4.83,17.57Z"/><path class="cls-1" d="M729.32,213.94c-2.29.01-6.01.54-5.37,3.72,1.06,13.88,2.15,27.73,4.28,41.5,1.26,4.63-.83,15.27,5.57,15.43,2.09-.28,4.32-.83,3.9-3.51-1.15-6.67-1.31-60.64-8.38-57.14Z"/><path class="cls-1" d="M747.03,367.18c.12-23.8-4.21-48.21-7.6-71.6-.39-4.08.89-12.26-5.18-11.94,0,0,0-.35,0-.35,0,0,0,.35,0,.35-1.88-.18-2.98,1.02-2.55,2.88,2.91,26.67,1.77,54.15,7.63,80.51.4,1.79,1.98,3.13,3.81,3.16,1.27.02,2.54-.22,3.5-.83.67-.58.15-1.7.56-2.35-.09,0-.19.18-.19.17Z"/><path class="cls-1" d="M838.55,371.56c1.34,4.25,6.81-4.59,9.19-6.41,16.35-19.26,33.27-38.02,48.55-58.18,1.54-2.39,6.33-7.78,6.79-11.04.46-3.27-.88-8.62-5.55-3.55-21.68,23.51-41.05,49.26-60.02,75.02-.74.56-.84,1.19-.15,1.88.14.93.47,1.65,1.2,2.28Z"/><path class="cls-1" d="M934.55,254c-6.24-3.51-8.55,6.04-11.91,9.51-1.46,3.66-9.6,8.96-4.27,12.2,4.28,2.05,6.89-5.4,10.11-7.45,2.97-3.96,12.63-9.3,6.06-14.26Z"/><path class="cls-1" d="M1016.56,375.7c-.91-5.15-12.86,3.02-16.26,3.42-19.18,8.85-41.42,16.58-61.2,23.62-1.68.93-3.76,1.57-5.26,2.67-.29.48-.11,1.12-.05,1.7-.24.86-.2,1.55.28,2.33.76,5.19,8.73-.41,11.55-1.29,6.4-2.53,14.37-5.34,22.22-8.37,17.07-7.37,31.55-10.97,48.42-17.43,3.29-.7,1.13-4.72.3-6.65Z"/><path class="cls-1" d="M1093.79,346c-2.72-5.82-12.74,2.38-17.48,2.87-8.36,3.41-15.67,6.01-24.23,8.68-6.56,3.11-12.74,3.3-18.54,7.61-.99,3.03,1.16,9.04,5.23,7.09,9.81-3.58,17.75-6.92,27.36-11.08,4.7-3.08,33.62-8.75,27.65-15.18Z"/><path class="cls-1" d="M1113.66,338.79c-1.71-5.69-14.95-1.1-12.93,4.05,1.7,7.33,15.83,2.67,12.93-4.05Z"/><path class="cls-1" d="M437.89,361.1c1.42-5.77-12.32-8.55-13.19-3.09-2.26,7.18,12.27,10.35,13.19,3.09Z"/><path class="cls-1" d="M939.24,369.56c-2.88-5.19-14.84,2.12-11.76,6.72,3.23,6.8,16.04-.77,11.76-6.72Z"/><path class="cls-1" d="M411.77,441.32c.14-5.49-10.44-3.46-14.27-5.17-6.9-.94-7.55,8.94-.89,9.23,4.94-.91,15.05,3.6,15.16-4.07Z"/><path class="cls-1" d="M464.3,444.98c-12.92-.75-26.09-2.51-39-3.11-.84-.04-1.94.29-2.96.7-2.57,1.03-2.23,4.79.49,5.28,2.74.49,6.47.22,8.5.77.31.08.62.16.94.19,31.78,2.95,63.63,7.72,95.62,9.09,2.26.58,2.35-.31,2.86-1.27.47-.89.78-1.87.85-2.87.09-1.25.03-2.12-2.47-2.34-13.68-2.14-48.93-6.12-64.84-6.43Z"/><path class="cls-1" d="M575.81,454.12c-9.8-1.43-21.73-2.41-32.02-2.91-2.48-.61-4.12,1.92-4.44,3.9-3.36,5.82,30.7,5.52,35.53,6.54.14.03.27.05.41.07,8.88.96,17.79,1.67,26.73,2.14,2.03.42,2.41-1.12,2.66-2.65.06-.4.06-.8-.01-1.19,0,0,0-.02,0-.03-.26-1.38-1.29-2.51-2.66-2.8-8.49-1.81-17.56-2.06-26.19-3.06Z"/><path class="cls-1" d="M530.94,303.65c2.94-1.56.54-4.53-1.6-5.39-10.79-8.33-22.15-15.92-31.84-25.57-2.71-2.47-5.63-1.68-7.13.31-4.33,6.2,6.52,9.18,10.14,12.53,7.37,2.99,24.74,23.92,30.44,18.13Z"/><path class="cls-1" d="M598.14,353.92c.81-1.04.65-2.11-.48-2.82-17.47-15.16-35.32-29.08-54.44-42.37-1.58-1.85-6.63,1.99-7.06,3.72,5.51,7.33,14.84,12.63,21.87,18.55,11.39,9.31,23.47,17.71,35.63,25.99,2.24,1.92,3.85-1.31,4.48-3.07Z"/><path class="cls-1" d="M659.03,406.67c1.55,1.06,2.37.28,2.78-1.01.75-2.38-.18-4.99-2.12-6.55-17.15-13.85-34.58-25.72-51.47-39.32-3.32-3.11-7.34,2.9-3.75,4.93,16.47,12.17,38.4,30.02,54.57,41.96Z"/><path class="cls-1" d="M678.64,265.94c7.62-1.37.14-11.21-.72-15.65-2.79-9.43-5.42-18.97-8.32-28.35-1.53-5.62-10.23-7.5-11.04-.45-.21,5.7,3.19,10.78,5.25,15.93,3.7,8.59,6.94,17.36,10.14,26.14.43,2.2,2.88,2.86,4.68,2.37Z"/><path class="cls-1" d="M704.96,337.65c6.92-1.43-2.86-18-3.34-22.57-4.05-13.47-7.98-27.52-14.34-39.96-9.68-2.19-7.8,4.87-4.97,11.11,2.78,6.12,17.56,56.09,22.65,51.41Z"/><path class="cls-1" d="M829.48,333.43c7.64,2.54,8.22-11.32,11.88-15.76,3.89-8.84,8.05-17.52,13.31-25.64,2.37-6.07,10.52-13.13,8.3-19.54-.2-3.01-3.69-7.51-6.02-3.39-5.57,10.5-9.71,21.89-15.47,32.38-4.36,8.58-8.87,17.1-14.15,25.2-1.85,2.51-.82,5.78,2.16,6.75Z"/><path class="cls-1" d="M507.55,339.96c-2.71,1.32-4.84,5.42-1.32,7.11,18.33,9.73,36.6,21.54,55.91,28.72,2.14.8,4.57-.82,4.41-3.09-.07-.97-.58-1.88-1.75-2.44-7.93-4.77-16.58-10.15-26.31-15.68-.13-.07-.25-.13-.39-.19-6.11-2.45-26.91-17.32-30.56-14.43Z"/><path class="cls-1" d="M477.89,325.09c4.75-6.72-7.73-9.1-11.83-11.78-13.78-7.58-27.71-14.89-41.05-23.24-3.69-2.93-8.26,1.6-6.99,5.53,6.34,5.92,16.24,8.27,23.61,13.23,8.64,4.73,17.54,9.04,25.76,14.47,3.2,1.56,8.36,5.61,10.5,1.8Z"/><path class="cls-1" d="M602.52,234.64c4.27-2.59.79-7.73-1.27-10.8-2.3-3.33-4.79-10.98-10.46-9.01-6.89,3.47-.29,10.48,2.09,14.29,1.94,3.32,5.2,8.73,9.64,5.52Z"/><path class="cls-1" d="M639.94,293.87c8.19-.18-22.27-37.59-24.4-43.24-2.07-3.44-5.77.5-6.5,2.94.89,3.01,3.09,5.68,4.79,8.33,6.1,10.87,12.62,21.53,19.43,31.98,1.31,2.52,4.71.73,6.68,0Z"/><path class="cls-1" d="M681.71,363.13c7.01-.58.44-7.14-1.42-11.14-4.73-4.82-13.12-28-19.16-26.15-2.52.33-4.32,3.26-2.56,5.59,5.01,5.81,17.99,31.75,23.14,31.69Z"/><path class="cls-1" d="M657.11,313.54c-1.81-4.72-7.31-10.05-10.7-3.57-.78,3.53,2.65,7.87,5.37,9.84,3.64,1.42,7.6-2.76,5.32-6.28Z"/><path class="cls-1" d="M803.32,273.08c-5.6-6.2-8.14,27.33-9.84,30.73-6,22.36-12.16,46.17-18.65,68.36.09,2.39-3.02,8.38-.08,8.99,0,0-.23.39-.23.39s.23-.39.23-.39c7.43,10.78,10.33-8.94,10.1-13.16,2.36-10.19,5.08-20.72,7.44-31.32,3.64-20.14,9.67-38.61,14.86-58.13.65-.9-2.33-4.67-3.83-5.48Z"/><path class="cls-1" d="M806.45,259.53c9.71,3.21,9.21-13.71,10.55-19.82,2.57-15.14,8.65-29.41,11.53-44.51.3.01.32.09,0-.03,1-2.28-.66-3.56-1.87-5.1-9.66-8.26-11.44,24.14-13.3,29.76-.23,9.06-15.01,35.18-6.91,39.7Z"/><path class="cls-1" d="M917.99,380.69c-2.68-6.55-16.48,7.01-21.28,8.28-7.51,4.5-15.17,8.73-23.07,12.5-3.02,2.25-9.78,3.76-7.05,8.53,2.92,4.3,7.37-.54,10.81-1.94,7.25-4.85,14.79-9.26,22.48-13.39,3.71-3.39,22.17-8.66,18.12-13.98Z"/><path class="cls-1" d="M1024,322.24c-3.59-5.68-9.35,1.4-13.46,3-9.08,6.41-18.85,11.7-28.71,16.78-10.95,6.15-22.33,11.64-32.79,18.55-3.54,1.64-2.19,6.13.54,7.51,20.48-6.38,38.04-22.5,57.76-31.66,4.59-3.52,21.34-6.47,16.65-14.19Z"/><path class="cls-1" d="M1012.59,448.91c1.93-5.56-33.46,2.28-38.24,1.75-16.51,1.08-33.71,2.65-50.84,4.59-2.75.09-1.93,1.63-2.1,3.45.81.21.56,1.33,1.2,1.7,27.18-1.59,54.36-6.33,81.24-7.8,2.6-1.01,8.89.74,8.74-3.04,0-.16,0-.48,0-.65Z"/><path class="cls-1" d="M1086.09,438.51c-.11.02-.21.04-.32.05-11.62,1.28-22.11,2-31.4,2.88-12.62,1.57-22.45,1.75-31.14,3.72-1.85.42-3.15,2.27-2.61,4.08.34,1.14,1.22,1.96,2.81,1.69,21.82-.83,43.48-4.72,65.18-5.99.17,0,.33-.04.5-.07,2-.44,4.86-.22,4.54-3.13-.38-3.41-5.05-3.73-7.57-3.23Z"/><path class="cls-1" d="M1116.46,436.97c-1.14-6.07-13.76-3.96-12.32,2.23.58,6.19,14.33,4.55,12.32-2.23Z"/><path class="cls-1" d="M594.9,306.15c.67-.81.61-1.79-.17-2.5-7.52-8.45-15.06-16.88-22.54-25.37-2.26-2.42-5.06-2.04-6.74-.4-5.47,6.91,9.06,13.47,12.47,18.83,4.14,4.02,8.33,7.98,12.41,12.05,2.04,2.11,3.71-.96,4.57-2.62Z"/><path class="cls-1" d="M628.79,339.94c-8.27-8.83-16.6-17.59-24.96-26.33-1.87-2.06-4.22-.76-4.95,1.42.15,1.23-.09,2.7,1.27,3.61,11.89,12.4,23.95,24.73,35.32,37.56,15.65,1.15-3.12-12.06-6.68-16.26Z"/><path class="cls-1" d="M769.03,249.96c-.52,4.27,6.24,5.58,6.82.95-.04-4.79,3.96-10.48,1.19-14.8-10.54-6.74-7.96,7.91-8.01,13.85Z"/><path class="cls-1" d="M774.69,266.85c1.75-4.66-5.89-7.47-6.94-2.51-.6,2.24-.29,5.36,2.66,5.34,1.93.3,4.27-.51,4.28-2.83Z"/><path class="cls-1" d="M764.79,331.1c8.75,2.8,5.96-26.08,7.82-31.88-.43-5.64,5.55-21.01-2.71-21.76,0,0,0-.22,0-.22s0,.22,0,.22c-7.22.4-4.53,15.69-5.61,21.07.58,5.24-5.29,33.23.5,32.58Z"/><path class="cls-1" d="M248.94,594.78c5.57,0,8.66,3.09,9.89,8.35l21.96,89.99c.62,3.09,3.09,3.09,3.71,0l21.96-89.99c1.24-5.26,4.33-8.35,9.9-8.35h64.01c6.18,0,9.28,3.09,9.28,9.28v197.91c0,5.87-3.09,9.28-9.28,9.28h-34.63c-5.88,0-9.28-3.4-9.28-9.28v-121.84c0-2.16-2.78-2.47-3.4-.31l-30,123.38c-1.24,5.26-4.64,8.04-10.2,8.04h-20.41c-5.57,0-8.97-2.78-10.2-8.04l-29.99-123.38c-.62-2.16-3.4-1.85-3.4.31v121.84c0,5.87-3.09,9.28-9.28,9.28h-34.63c-6.18,0-9.28-3.4-9.28-9.28v-197.91c0-6.19,3.09-9.28,9.28-9.28h64.01Z"/><path class="cls-1" d="M572.69,741.66c0,20.41-4.33,75.14-77.62,75.14s-77.62-54.73-77.62-75.14v-77.31c0-20.41,4.33-75.14,77.62-75.14s77.62,54.73,77.62,75.14v77.31ZM519.5,680.75c0-23.81-1.55-38.35-24.43-38.35s-24.43,14.53-24.43,38.35v44.53c0,23.81,1.55,38.34,24.43,38.34s24.43-14.53,24.43-38.34v-44.53Z"/><path class="cls-1" d="M655.25,594.78c5.25,0,8.66,2.17,10.82,7.11l42.05,102.97c1.24,2.78,3.71,2.16,3.71-.93v-99.88c0-6.19,3.4-9.28,9.28-9.28h34.63c6.18,0,9.28,3.09,9.28,9.28v197.91c0,5.87-3.09,9.28-9.28,9.28h-45.46c-5.26,0-8.66-2.16-10.82-7.11l-42.06-102.97c-1.24-2.78-3.71-2.16-3.71.93v99.88c0,5.87-3.09,9.28-9.28,9.28h-34.63c-5.88,0-9.28-3.4-9.28-9.28v-197.91c0-6.19,3.4-9.28,9.28-9.28h45.46Z"/><path class="cls-1" d="M874.17,594.78c58.14,0,77.31,23.5,77.31,74.22v67.72c0,50.71-19.17,74.52-77.31,74.52h-68.96c-5.88,0-9.28-3.4-9.28-9.28v-197.6c0-6.18,3.09-9.28,9.28-9.59h68.96ZM875.1,758.05c14.84,0,22.26-2.47,22.26-21.03v-68.03c0-19.17-7.42-21.03-22.26-21.03h-16.7c-5.88,0-9.28,3.09-9.28,9.28v91.53c0,5.87,3.4,9.28,9.28,9.28h16.7Z"/><path class="cls-1" d="M1129.27,800.73c0,6.8-3.09,10.51-9.28,10.51h-34.63c-5.88,0-9.28-3.09-9.28-9.28v-26.9c0-6.18-3.09-9.28-9.28-9.28h-26.6c-5.88,0-9.28,3.09-9.28,9.28v26.9c0,6.18-3.09,9.28-9.28,9.28h-34.63c-5.87,0-9.28-3.71-9.28-10.51v-131.11c0-38.96,6.18-80.4,75.76-80.4s75.76,41.44,75.76,80.4v131.11ZM1076.09,669.61c0-14.84-2.17-22.26-22.57-22.26s-22.57,7.42-22.57,22.26v33.71c0,5.88,3.4,9.28,9.28,9.28h26.6c6.18-.31,9.28-3.4,9.28-9.59v-33.4Z"/><path class="cls-1" d="M1200.69,594.78c5.26,0,8.66,2.17,10.51,7.11l22.88,57.52c1.24,2.78,3.09,2.78,4.33,0l22.88-57.52c1.85-4.95,5.26-7.11,10.51-7.11h44.22c7.11,0,10.21,4.33,7.11,10.82l-55.35,123.69c-.62,1.24-.62,2.47-.62,3.71v68.96c0,5.87-3.09,9.28-9.28,9.28h-43.29c-5.88,0-9.28-3.4-9.28-9.28v-68.96c0-1.24,0-2.47-.62-3.71l-55.66-123.69c-3.09-6.49,0-10.82,7.11-10.82h44.53Z"/><path class="cls-1" d="M205.94,892.41c5.57,0,8.66,3.09,9.9,8.35l21.96,89.99c.62,3.09,3.09,3.09,3.71,0l21.96-89.99c1.24-5.26,4.33-8.35,9.9-8.35h64.01c6.18,0,9.28,3.09,9.28,9.28v197.91c0,5.87-3.09,9.28-9.28,9.28h-34.63c-5.87,0-9.28-3.4-9.28-9.28v-121.84c0-2.16-2.78-2.47-3.4-.31l-30,123.38c-1.24,5.26-4.64,8.04-10.2,8.04h-20.41c-5.57,0-8.97-2.78-10.2-8.04l-30-123.38c-.62-2.16-3.4-1.85-3.4.31v121.84c0,5.87-3.09,9.28-9.28,9.28h-34.63c-6.18,0-9.28-3.4-9.28-9.28v-197.91c0-6.19,3.09-9.28,9.28-9.28h64.01Z"/><path class="cls-1" d="M529.69,1039.29c0,20.41-4.33,75.14-77.62,75.14s-77.62-54.73-77.62-75.14v-77.31c0-20.41,4.33-75.14,77.62-75.14s77.62,54.73,77.62,75.14v77.31ZM476.5,978.38c0-23.81-1.55-38.35-24.43-38.35s-24.43,14.53-24.43,38.35v44.53c0,23.81,1.55,38.34,24.43,38.34s24.43-14.53,24.43-38.34v-44.53Z"/><path class="cls-1" d="M720.48,1092.17c4.33,8.04-.62,16.7-10.2,16.7h-35.25c-3.09,0-5.88-1.55-7.11-4.33l-32.16-62.16c-.62-.93-1.55-1.55-2.47-1.55h-12.37c-5.57,0-9.59,4.02-9.59,9.58v48.86c0,5.57-4.02,9.59-9.59,9.59h-34.63c-5.57,0-9.59-4.02-9.59-9.59v-197.29c0-5.57,4.02-9.59,9.59-9.59h67.72c55.04,0,77.31,23.5,77.31,74.22,0,28.76-7.11,48.86-23.5,60.61-1.24.93-1.55,2.47-.93,4.02l32.78,60.92ZM620.91,945.6c-5.57,0-9.59,4.02-9.59,9.59v22.88c0,5.57,4.02,9.59,9.59,9.59h15.77c14.84,0,22.27-1.85,22.27-21.03s-7.42-21.03-22.27-21.03h-15.77Z"/><path class="cls-1" d="M795.61,892.41c5.26,0,8.66,2.17,10.82,7.11l42.06,102.97c1.24,2.78,3.71,2.16,3.71-.93v-99.88c0-6.19,3.4-9.28,9.28-9.28h34.63c6.18,0,9.28,3.09,9.28,9.28v197.91c0,5.87-3.09,9.28-9.28,9.28h-45.45c-5.26,0-8.66-2.16-10.82-7.11l-42.05-102.97c-1.24-2.78-3.71-2.16-3.71.93v99.88c0,5.87-3.09,9.28-9.28,9.28h-34.63c-5.87,0-9.28-3.4-9.28-9.28v-197.91c0-6.19,3.4-9.28,9.28-9.28h45.46Z"/><path class="cls-1" d="M979.59,892.41c6.18,0,9.28,3.09,9.28,9.28v197.91c0,5.87-3.09,9.28-9.28,9.28h-34.02c-5.87,0-9.28-3.4-9.28-9.28v-197.91c0-6.19,3.4-9.28,9.28-9.28h34.02Z"/><path class="cls-1" d="M1074.51,892.41c5.26,0,8.66,2.17,10.82,7.11l42.06,102.97c1.24,2.78,3.71,2.16,3.71-.93v-99.88c0-6.19,3.4-9.28,9.28-9.28h34.63c6.18,0,9.28,3.09,9.28,9.28v197.91c0,5.87-3.09,9.28-9.28,9.28h-45.45c-5.26,0-8.66-2.16-10.82-7.11l-42.05-102.97c-1.24-2.78-3.71-2.16-3.71.93v99.88c0,5.87-3.09,9.28-9.28,9.28h-34.63c-5.88,0-9.28-3.4-9.28-9.28v-197.91c0-6.19,3.4-9.28,9.28-9.28h45.45Z"/><path class="cls-1" d="M1212.11,961.99c0-20.41,4.33-75.14,77.62-75.14,64.94,0,75.76,42.67,77.31,66.79.31,5.57-2.47,8.97-8.04,10.2l-34.94,7.73c-6.18,1.24-9.58-1.55-10.2-8.04-1.24-14.84-6.49-23.5-24.12-23.5-22.88,0-24.43,14.53-24.43,38.35v44.53c0,23.81,1.55,38.34,24.43,38.34s24.43-14.53,24.43-29.68h-17.93c-5.88,0-9.28-3.4-9.28-9.28v-24.74c0-6.19,3.4-9.28,9.28-9.28h61.85c6.18,0,9.28,3.09,9.28,9.28v41.75c0,20.41-4.33,75.14-77.62,75.14s-77.62-54.73-77.62-75.14v-77.31Z"/></svg>