<?xml version="1.0" encoding="UTF-8"?><svg id="Layer_1" xmlns="http://www.w3.org/2000/svg" viewBox="0 0 1500 1499.76"><defs><style>.cls-1{fill:#e1a542;stroke-width:0px;}</style></defs><path class="cls-1" d="M524.7,853.01l-1.93-.96-.88-1.84-.1-2.13-.19-1.07v-1.93l.19-1.74-.1-1.93-.1-2.13.1-1.84-.19-2.51v-2.61l.1-1.36-.19-2.61.1-3.29v-1.53l-.19-2.72v-3.66l.1-1.26.1-2.7v-3.77l-.1-3.87v-5.8l.1-1.25v-4.94l-.1-2.22-.19-1.93v-1.65l.19-.77.67-1.07.78-.58,1.84-.29,1.93-.19h.67l1.45-.1,1.73.29.78.48.67.69.67,1.44,1.07,1.65,1.17,2.13,1.06,2.32,1.74,3.01,1.26,2.32,1.15,2.51,1.84,3.68,1.17,1.93,1.06,2.41,1.07,1.84.48.96.48.88.58,1.15.98,2.32,1.34,2.43.98,1.93.58,1.25.48.98.69,1.15,1.06,2.03,1.07,2.22.96,1.45.88,1.65.48,1.25.58.29.48-.29.69-.96.67-1.07.67-1.25,1.17-2.41,1.06-2.13.59-1.26.77-1.17.58-.67.3-.77.29-.88.96-1.44.67-1.45.59-.88.86-1.63.98-2.03.86-1.84.86-1.93.88-1.74.96-1.45,1.07-2.32,1.26-2.32,1.15-2.61,1.45-2.91.86-1.84.29-1.06.78-1.36.38-1.15.96-1.93,1.45-2.32,1.17-.78,1.15-.38,4.35-.38,1.74.19,1.55.58.58.88.19.67.19,1.55v9.77l-.1,2.01.1,2.24v8.7l.1,2.41v1.36l-.1,2.03.3,2.89-.11,2.32.21,3.01v7.34l-.1,2.41v1.55l-.11,1.26.11,2.13.1,1.93-.1,2.51.1,2.89-.21,2.13-.48,1.74-.58.67-.98.59-.77.29-1.15.29-1.65-.1h-1.26l-.96-.19-.98-.29-1.15-.59-1.26-2.7-.29-2.99.1-2.03v-3.2l-.1-4.06v-8.03l-.29-3.18.19-2.13v-1.55l.1-2.13v-1.84l-.1-1.06v-2.53l-.1-.29-.29-.19-.19.19-.5.69-.29.86-.67,1.17-.48.96-.59.96-.67,1.36-.86,1.93-.98,2.13-1.06,1.55-.98,1.65-.86,1.73-.69,1.45-1.06,1.93-1.45,2.7-.67,1.65-.67,1.84-1.26,2.32-.48,1.17-.5.67-.38.88-.48.77-.38.77-1.07,2.03-.86,1.84-.19.58-.88,1.26-1.73,1.26-1.26.19-1.17.1-1.34.1-1.36-.1-1.06-.48-1.07-1.45-1.17-2.41-.77-1.45-.77-1.74-1.07-2.32-.96-1.74-.59-1.34-.38-.88-.48-.96-2.03-3.39-.48-.67-.98-2.13-.96-2.03-.48-.98-1.07-1.65-1.15-2.7-.98-1.93-.67-1.55-1.17-1.93-1.15-2.51-1.17-2.13-.67-.77-.29.29v1.45l-.1,2.22v1.65l.1.77v1.26l-.1,1.44.19,2.81v1.93l-.1,3.66-.1,1.55v4.16l.1,2.32-.1,1.65.19,1.74v1.36l.19,2.13v1.73l-.29,2.72-.3,1.06-.96,1.26-3.2.86h-2.13l-1.63-.48ZM645.27,854.37h-1.63l-1.45-.1-1.93-.3h-2.41l-1.74-.48-.98-.19-1.25-.29-1.74-.67-2.32-.88-1.93-1.06-.98-.5-1.06-.67-1.26-.67-.86-.67-.98-.59-1.34-1.25-1.65-1.45-1.07-1.07-3.47-4.16-1.36-2.61-1.15-2.13-1.26-2.22-.58-2.13-.5-1.26-.48-2.32-.38-1.93-.1-1.15-.29-1.65-.1-1.36.1-1.63v-2.81l.29-1.84.19-1.74.77-2.41.3-1.55.77-2.22.96-2.51.88-1.34.96-2.14,1.84-2.89,1.65-2.22.96-.86.69-.88.96-1.06.98-.98.77-.38,1.07-1.07,2.61-1.44,2.32-1.17,2.7-1.25,2.03-.59,1.26-.58,2.61-.86,2.41-.4,1.55-.29,2.32.1,3.39-.1,2.32.19h1.07l1.73.3,1.93.48,1.26.29.86.38,1.45.48,1.36.5,1.34.67,1.55.86,2.03,1.07,2.7,1.74,2.03,1.63,2.03,1.93,2.43,2.91,1.53,1.84.69.96.58,1.17.67.96.88,1.74.96,2.22.58,1.93.5,1.55.19.86.38,1.26.48,2.41.19,1.55v1.34l.1,1.55-.19,1.65-.19,2.51-.19,1.55-.1,1.55-.29,1.93-.29,1.15-.38,1.65-.88,2.32-.77,2.13-.88,1.84-.67,1.17-.48.96-.78.98-.67.86-.58.86-.38.69-.59.67-1.06,1.07-1.26.96-.86.86-.69.59-.86.67-.77.67-.98.59-.67.58-1.17.77-1.93,1.07-2.13,1.25-1.65.69-1.06.38-2.03.67-2.41.69-2.03.29h-2.81l-2.22-.19ZM648.56,843.15l1.26-.1.58-.1.48-.29.38-.19,1.26-.19,1.26-.58,1.15-.4,1.84-.96,1.93-1.26,2.51-1.84,1.45-1.53.48-.59.77-1.15,1.45-1.84,1.93-2.91.58-2.13.4-1.82.29-2.13.19-2.62.19-1.34-.19-2.53-.69-3.47-.67-2.22-.96-2.03-.5-1.65-.58-1.07-.77-1.53-1.17-1.45-.67-.88-1.07-1.06-3.28-2.61-3.1-1.84-1.84-.78-2.03-.58-.77-.19-1.26-.38-1.63-.38h-5.32l-1.45.29-1.74.19-2.22.67-3.18,1.36-5.42,3.09-.96,1.07-.78.96-.58.5-1.15,1.63-.88,1.65-.48.69-.38,1.06-.69,1.26-.58,1.53-.48,1.55-.19,1.36-.48,2.13-.21,2.41.1,1.17.11,1.34.19,1.55v1.45l.1.48.29,1.06.38,1.74.29,1.45,1.17,2.13,2.32,3.49,1.84,2.32.67.77,1.55,1.36,1.93,1.25.67.4.38.19,1.74.96,2.03.98,1.65.48,2.7.48,2.7.38,2.33.1,2.8-.29ZM749.33,853.01l-3.1.1-2.03-.38-1.25-.88-1.36-1.73-1.65-2.22-3.87-5.52-1.84-2.41-.96-1.36-2.13-3.2-2.32-3.28-1.74-2.22-1.45-1.65-.96-1.45-.88-.86-2.03-2.91-1.25-1.53-.88-.88-.67-1.25-1.17-1.26-2.22-2.99-1.84-2.72-1.15-1.53-1.26-1.36-.77-1.07-.58-.58-.98-.38-.86.48-.1,1.84.1,2.22v1.93l-.1,2.03.19,3.01v3.95l.1,3.96.1,2.43.29,1.82-.1,3.01v4.06l-.19,2.7v1.45l-.1,2.03.1,1.55-.1,1.25v1.74l-.19,1.55-.69,1.25-.96.69-.86.29-1.55.29h-1.26l-.67.1-2.03-.1-2.03-1.36-.77-1.44-.3-1.55.1-1.74.21-1.84-.11-1.84v-1.25l-.1-1.74v-1.84l.21-1.36-.11-2.51-.19-1.84-.29-1.84.1-2.89v-1.65l-.1-1.65.1-1.74v-1.06l.19-2.7v-2.91l-.19-1.45v-.86l.19-1.55-.19-1.74v-.67l.19-1.74-.1-2.41.1-2.13-.19-1.65.1-.96-.1-1.26-.1-1.93-.1-1.74v-2.61l.1-1.84.1-1.15v-.98l.19-1.55.19-1.25.5-.38,1.74-.98,1.44-.1,1.84-.1,2.13.19,2.03.38,1.26.88,1.55,1.93.96,1.44,1.65,2.33,1.34,2.13,1.26,1.53,1.26,1.93,1.34,1.74.59.78.96,1.73,1.07,1.36,1.63,1.84,1.26,1.74,1.07,1.15,1.92,2.32,2.33,3.1,1.44,2.32,2.32,3.1.98,1.06.77,1.17,1.26,1.84,1.74,2.03,1.74,2.7.96,1.15.67.88.98.77h1.06l.29-.48.21-2.13.1-2.03v-9.67l.19-2.7v-1.74l-.1-1.84v-1.74l.19-1.34v-6.47l-.19-.98.1-1.55-.1-1.93v-1.53l-.1-1.45v-2.7l.1-1.84.48-1.74.77-.58,1.07-.59.86-.19,1.26-.1,1.06-.29h2.81l1.15.58.88.98.67,1.55.19,2.51-.19,2.22-.1,1.06.19,1.84-.1,1.45.1,1.36-.1,1.44.1.98v3.77l.1,2.8v5.02l.29,1.45v.88l-.19,1.25.19,2.03-.1,1.07.1.86-.29,1.07v11.4l-.1,2.7.1,1.45v10.92l.29,1.65-.19,2.32-1.06.98-.78.29-.96.19-2.13-.19ZM782.53,853.3l-2.51-.19-2.24-.48-1.06-.69-.48-.58-.4-1.25-.29-1.74v-3.1l.1-1.15v-1.07l.1-1.15-.1-2.13.19-2.33-.19-2.99-.1-2.7-.1-2.32v-12.68l.1-2.99-.1-2.51-.1-1.84-.1-2.03.1-2.51-.1-2.81.1-2.13v-3.18l.19-2.91-.29-2.7v-2.03l.38-1.65.88-1.25.86-.69,1.74-.1,2.8-.1,1.74.1,1.07-.1,2.41.1h12.28l1.45-.19h1.34l1.07-.1,2.51-.1,2.51.19,1.36-.1.58.19.88.1,1.34.1,3.2.5,1.45.29,2.01.77,1.93.77,1.17.78,1.65,1.06,1.34.98,1.36,1.06,2.13,2.22,1.74,1.93.96,1.65,1.45,2.32.88,1.84.67,1.26.58,1.44.67,1.93.5,2.03.19.78.29,2.22.29,2.99.19,1.45.29,1.06.1,1.93-.1,2.53-.1,2.32-.38,2.61-.48,2.8-.67,2.33-.88,3.18-.77,1.74-.88,1.93-.58.96-.67,1.36-1.55,2.13-1.65,1.93-1.45,1.55-1.34,1.15-1.45,1.07-2.13,1.15-2.22,1.07-.86.38-1.26.48-1.26.38-3.76.98-4.65.19h-2.99l-3.1.1-2.51-.1-5.12.29-3.2.1-2.7-.1-1.84.1-4.44-.1ZM806.4,842.38l2.41-.38,2.33-.5,1.82-.29,2.43-.96,1.93-1.07,2.61-1.84,1.93-2.13,1.74-2.41,1.06-2.61.67-2.61.5-2.32.1-1.74v-6.38l-.19-2.81-.29-2.13-.4-1.84-.67-2.32-.67-1.93-.78-1.34-.86-1.36-1.74-2.13-2.8-2.32-2.22-1.26-1.36-.58-3.58-.98-1.34-.1-2.43-.1h-7.53l-3.77-.1-2.89.1-1.26.29-1.74.21-1.55.38-.67.67-.19,1.07-.1,1.44.1,1.84v1.36l-.1,1.74-.1,2.61v6.19l.1,2.41v6.47l-.1,2.72v6.67l.19,1.93.1,2.51.1,1.65v2.41l.29,1.26,1.45.38,1.34-.19,1.65.1,1.93.19h2.72l3.09.1h6.76ZM853.91,854.18l-1.25-.3-1.74-.86-1.36-1.07-.96-1.15-.4-1.17v-1.73l.88-1.74.58-1.45.48-1.07.59-1.15.86-2.03.58-1.55,1.84-3.68.98-2.13.86-2.22,1.55-2.99.96-2.22.69-1.36.67-1.45.77-1.63,1.36-3.49,1.17-2.03.77-2.13,1.36-2.91,1.53-3.57.88-1.93,1.44-3.68,1.07-2.22.48-1.45.88-1.65.67-1.34.19-.78.38-.96.48-1.36.69-.96.58-1.17.58-1.06.4-.78.67-1.15,1.15-.98,2.43-.48h2.61l1.25.29,1.07.98.67,1.25.59,1.17.96,2.22.98,2.13,1.82,3.58.59,1.53.67,1.26.58,1.74.78,1.74.48,1.34.67,1.36,1.07,2.41,1.06,2.13.69,1.74.67,1.17.38,1.06.67,1.45.88,1.55.58,1.53.58,1.65.59.98.48,1.25.96,1.74.78,1.93,1.25,3.01,1.74,3.28.98,2.32.67,1.45.38.86.38,1.26,1.17,2.32.86,1.84.5.77.86,1.84.67,2.03.5,1.65-.4,2.13-1.06,1.26-1.93.96-3.39.88-2.22-.5-.86-.77-.98-.98-.29-1.25-.86-1.84-1.07-2.22-.58-1.07-.86-1.93-1.07-2.22-.38-.86-.67-1.17-.88-1.53-.67-1.26-.98-.67-1.93-.19-2.41.1h-11.3l-3.2-.1-2.51.19-1.36-.1-1.63.19-1.55.1-1.26.67-.58.88-1.93,3.85-.96,1.74-.3,1.07-.48.96-.58,1.36-.78,1.65-.48,1.44-.96,1.55-1.17,1.74-1.06.86-1.55.4-1.65-.1ZM888.24,824.78l.1-.1.29-.1.38-.86-.29-1.74-.58-1.45-2.13-3.77-.98-1.82-1.25-3.1-.78-1.84-.67-1.74-1.07-2.51-1.15-.96-.78,1.53-.77,2.43-1.65,3.66-1.25,2.62-.88,2.41-.77,1.74-.98,1.93-.1.77-.19.86v.98l.69.67,1.63.1h1.74l2.72.19,6.47.19,2.22-.1ZM950.62,853.01l-.58-.19-.58-.29-.78-.59-.48-.86-.29-.86-.19-1.17-.19-1.06v-2.72l.1-3.68v-2.32l-.1-1.84.19-1.92.1-1.45-.19-.98-.1-2.99-.1-4.44-.69-2.81-.67-.96-.38-.88-.88-1.44-.77-.78-.77-1.25-1.26-1.36-.58-.58-.59-.98-1.15-1.34-.78-.88-.58-.96-1.06-.98-.78-.67-1.25-1.55-1.45-1.63-.88-1.26-.77-1.07-1.93-2.22-1.55-2.03-1.15-1.74-1.36-1.44-1.25-1.55-.5-.77-.86-1.17-.77-1.55-.3-1.06v-1.26l.69-1.15.67-.88.98-.58,1.93-1.45.86-.19,1.06-.48,1.84.19,1.93,1.65,1.93,2.22,1.74,1.65.86.96,1.26,1.65,1.07,1.55,1.53,2.03,1.26,1.53,1.36,2.03.86,1.17.96,1.36.98,1.44.29.4.29.29.78.96,1.06,1.26.98,1.06,1.15,1.26,1.17,1.06.86.4.78-.21.67-.29,1.93-1.93.58-.86.77-.86.69-.98.58-.67.67-.78.78-1.06.96-1.17.78-.96.67-.88.48-.48.78-.86.86-1.17.58-.58.78-.98.86-1.06.48-.67.59-.69.29-.58.19-.29.77-.78.88-1.06.58-.77.77-.88,1.07-1.36.67-.96.67-.58,1.55-1.17,1.84-.77,1.36.48,4.35,3.49.86,1.06.19,1.07-1.06,2.22-.98,1.55-1.53,1.82-1.45,2.03-.98,1.26-1.63,1.84-2.03,2.13-1.07,1.36-2.13,2.89-1.45,2.03-1.63,1.84-1.36,1.74-.86.86-1.17,1.45-.67.77-.4.69-1.15,1.44-1.36,1.84-1.06,1.74-.88,1.93-.19,2.7v5.13l.1,2.89-.29,4.06-.1,3.2.19,3.47-.1,3.29v1.36l-.38.96-.77,1.17-1.17.58-2.22.19h-1.74l-2.03-.1ZM502.72,949.49l-1.93-.96-.88-1.84-.1-2.13-.19-1.07v-1.93l.19-1.74-.1-1.93-.1-2.13.1-1.84-.19-2.51v-2.61l.1-1.36-.19-2.61.1-3.29v-1.53l-.19-2.72v-3.66l.1-1.26.1-2.7v-3.77l-.1-3.87v-5.8l.1-1.25v-4.94l-.1-2.22-.19-1.93v-1.65l.19-.77.67-1.07.78-.58,1.84-.29,1.93-.19h.67l1.45-.1,1.73.29.78.48.67.69.67,1.44,1.07,1.65,1.17,2.13,1.06,2.32,1.74,3.01,1.25,2.32,1.17,2.51,1.84,3.68,1.17,1.93,1.06,2.41,1.07,1.84.48.96.48.88.58,1.15.98,2.32,1.34,2.43.98,1.93.58,1.25.48.98.69,1.15,1.06,2.03,1.07,2.22.96,1.45.88,1.65.48,1.25.58.29.48-.29.69-.96.67-1.07.67-1.25,1.17-2.41,1.06-2.13.59-1.26.77-1.17.58-.67.3-.77.29-.88.96-1.44.67-1.45.59-.88.86-1.63.98-2.03.86-1.84.88-1.93.86-1.74.96-1.45,1.07-2.32,1.26-2.32,1.15-2.61,1.45-2.91.86-1.84.29-1.06.78-1.36.38-1.15.96-1.93,1.45-2.32,1.17-.78,1.15-.38,4.35-.38,1.74.19,1.55.58.58.88.19.67.19,1.55v9.77l-.1,2.03.1,2.22v8.7l.1,2.41v1.36l-.1,2.03.3,2.89-.11,2.32.21,3.01v7.34l-.1,2.41v1.55l-.11,1.26.11,2.13.1,1.93-.1,2.51.1,2.89-.21,2.13-.48,1.74-.58.67-.98.59-.77.29-1.15.29-1.65-.1h-1.26l-.96-.19-.98-.29-1.15-.59-1.26-2.7-.29-2.99.1-2.03v-3.2l-.1-4.06v-8.03l-.29-3.18.19-2.13v-1.55l.1-2.13v-1.84l-.1-1.06v-2.53l-.1-.29-.29-.19-.19.19-.5.69-.29.86-.67,1.17-.48.96-.59.96-.67,1.36-.86,1.93-.98,2.13-1.06,1.55-.98,1.65-.86,1.73-.69,1.45-1.06,1.93-1.45,2.7-.67,1.65-.67,1.84-1.26,2.32-.48,1.17-.5.67-.38.88-.48.77-.38.77-1.07,2.03-.86,1.84-.19.58-.88,1.26-1.73,1.26-1.26.19-1.17.1-1.34.1-1.36-.1-1.06-.48-1.07-1.45-1.17-2.41-.77-1.45-.77-1.74-1.07-2.32-.96-1.74-.59-1.34-.38-.88-.48-.96-2.03-3.39-.48-.67-.98-2.13-.96-2.03-.48-.98-1.07-1.65-1.15-2.7-.98-1.93-.67-1.55-1.17-1.93-1.15-2.51-1.17-2.13-.67-.77-.29.29v1.45l-.1,2.22v1.65l.1.77v1.26l-.1,1.44.19,2.81v1.93l-.1,3.66-.1,1.55v4.16l.1,2.32-.1,1.65.19,1.74v1.34l.19,2.14v1.73l-.29,2.72-.3,1.06-.96,1.26-3.2.86h-2.13l-1.63-.48ZM623.29,950.85h-1.63l-1.45-.1-1.93-.3h-2.41l-1.74-.48-.98-.19-1.25-.29-1.74-.67-2.32-.88-1.93-1.06-.98-.48-1.06-.69-1.26-.67-.86-.67-.98-.59-1.34-1.25-1.65-1.45-1.06-1.07-3.49-4.16-1.36-2.61-1.15-2.13-1.26-2.22-.58-2.13-.5-1.26-.48-2.32-.38-1.93-.1-1.15-.29-1.65-.1-1.36.1-1.65v-2.8l.29-1.84.19-1.74.77-2.41.3-1.55.77-2.22.96-2.51.88-1.34.96-2.13,1.84-2.91,1.65-2.22.98-.86.67-.88.96-1.06.98-.98.77-.38,1.07-1.07,2.61-1.44,2.32-1.17,2.7-1.25,2.03-.59,1.26-.58,2.61-.86,2.41-.4,1.55-.29,2.32.1,3.39-.1,2.32.19h1.07l1.73.3,1.93.48,1.26.29.86.38,1.45.48,1.36.5,1.34.67,1.55.86,2.03,1.07,2.7,1.74,2.03,1.63,2.03,1.93,2.43,2.91,1.53,1.84.69.96.58,1.17.67.96.88,1.74.96,2.22.58,1.93.5,1.55.19.86.38,1.26.48,2.41.19,1.55v1.34l.1,1.55-.19,1.65-.19,2.51-.19,1.55-.1,1.55-.29,1.93-.29,1.15-.38,1.65-.88,2.32-.77,2.13-.88,1.84-.67,1.17-.48.96-.78.98-.67.86-.58.86-.38.69-.59.67-1.06,1.07-1.26.96-.86.86-.69.59-.86.67-.77.67-.98.59-.67.58-1.17.77-1.93,1.07-2.13,1.25-1.65.69-1.06.38-2.03.67-2.41.69-2.03.29h-2.81l-2.22-.19ZM626.58,939.63l1.26-.1.58-.1.48-.29.38-.19,1.26-.19,1.26-.58,1.15-.4,1.84-.96,1.93-1.26,2.51-1.84,1.45-1.53.48-.59.77-1.15,1.45-1.84,1.93-2.91.58-2.13.4-1.82.29-2.13.19-2.62.19-1.34-.19-2.53-.69-3.47-.67-2.22-.96-2.03-.5-1.65-.58-1.07-.77-1.53-1.17-1.45-.67-.88-1.07-1.06-3.28-2.61-3.1-1.84-1.84-.78-2.03-.58-.77-.19-1.26-.38-1.63-.38h-5.32l-1.45.29-1.74.19-2.22.67-3.18,1.36-5.42,3.09-.96,1.07-.78.96-.58.5-1.15,1.63-.88,1.65-.48.67-.38,1.07-.69,1.26-.58,1.53-.48,1.55-.19,1.36-.48,2.13-.21,2.41.1,1.17.11,1.34.19,1.55v1.45l.1.48.29,1.06.38,1.74.29,1.45,1.17,2.13,2.32,3.49,1.84,2.32.67.77,1.55,1.36,1.93,1.25.67.4.38.19,1.74.96,2.03.98,1.65.48,2.7.48,2.72.38,2.32.1,2.8-.29ZM723.38,950.26l-.98-.48-.77-.67-1.07-1.17-1.15-1.65-.77-.96-.78-1.07-.77-1.15-.88-1.26-.58-.96-.77-.98-1.07-1.53-1.55-1.74-1.06-1.36-.88-1.25-1.25-1.55-1.45-1.74-1.15-1.65-1.55-1.84-.98-1.34-.58-.78-.67-.48-.98-.67-.96-.5-1.07-.19-1.25-.19-.88.1-6-.19-2.32.19-1.93.69-.48,1.53-.19,2.62-.19,2.22-.1,1.15-.1,2.51v1.93l.1,2.72-.1.77v1.84l-.1,1.65v2.03l-.19,1.34-.19,1.55-.5.98-.48.58-.58.29-.98.29h-1.15l-1.74.19-2.13-.19-1.07-.19-.96-.38-.86-1.55-.5-1.34v-2.33l-.1-2.32-.1-.96.29-3.77v-2.32l-.1-1.93-.19-1.55v-6.57l.1-1.84.1-1.15-.1-.78v-4.44l.1-1.84v-3.77l-.1-2.03v-1.34l.19-.98-.19-1.15v-1.93l-.1-.69.1-.58.1-.96v-1.74l-.1-.38.19-1.45v-4.64l-.19-.98.19-.96-.29-1.84v-1.74l.1-1.93.38-1.65.59-.86.58-.48,1.07-.59,2.8-.38,4.25.19,3.39-.1,2.22-.1h1.53l1.07.1,1.65-.1,2.22-.1,4.92.1h1.26l1.84-.1h4.44l2.22.1,5.21.48,1.17.29,1.74.59,2.22.96,2.41,1.45,1.36,1.36.77.86,1.45,1.55.86,1.63.5,1.55.67,1.65.48,1.36.38.77.19.88.19.77-.1,1.15.1,1.26.1,2.32.11,3.01-.11,1.44-.19.78-.29,1.06-.38,1.07-.67,1.93-.98,2.22-.58.86-.58.98-1.07,1.15-.96.88-.98,1.06-1.65,1.07-1.15.58-1.65,1.17-2.03.86-.58.58.1.48.1.4.58.96,1.07,1.74,1.34,1.65.98,1.15.48.88.77.86,2.91,4.16,1.06,1.36,1.17,1.55.96,1.15.78,1.26,1.06,1.34.69,1.74-.19.69-.4,1.25-1.15,1.93-1.36.88-1.65,1.15-2.13.88-.96-.3ZM710.32,912.18l.88-.1,1.06-.1.78-.1.96.1.88-.38.67-.3.86-.29.59-.48.67-.67.58-.78.78-2.03.38-2.03.19-.86.1-1.45.19-1.15-.19-1.45-.48-1.74-.48-1.55-1.17-1.82-1.65-1.07-1.34-.38-1.84-.58-1.84-.1-1.45-.11-.86-.1h-.88l-1.06-.1-1.17.19h-6.47l-1.36-.1h-1.53l-1.74.1-1.45-.29h-2.99l-2.33.29-.58.21-.29.67-.1,1.26-.1,2.51v3.09l-.1,2.22.1,3.1-.1,2.89.29,1.74,1.45.86,1.25.3,1.26.1,1.74-.19,1.06.19,2.13.1h2.03l.59.1,2.13-.1h2.61l4.06.38h3.28ZM802.31,949.49l-3.1.1-2.03-.38-1.25-.88-1.36-1.73-1.65-2.22-3.87-5.52-1.84-2.41-.96-1.36-2.13-3.2-2.32-3.28-1.74-2.22-1.45-1.65-.96-1.45-.88-.86-2.03-2.91-1.25-1.53-.88-.88-.67-1.25-1.17-1.26-2.22-2.99-1.84-2.72-1.15-1.53-1.26-1.36-.77-1.07-.58-.58-.98-.38-.86.48-.1,1.84.1,2.22v1.93l-.1,2.03.19,2.99v3.96l.1,3.96.1,2.43.29,1.82-.1,3.01v4.06l-.19,2.7v1.45l-.1,2.03.1,1.55-.1,1.25v1.74l-.19,1.55-.69,1.25-.96.69-.86.29-1.55.29h-1.26l-.67.1-2.03-.1-2.03-1.36-.77-1.44-.3-1.55.1-1.74.21-1.84-.11-1.84v-1.25l-.1-1.74v-1.84l.21-1.36-.11-2.51-.19-1.84-.29-1.84.1-2.89v-1.65l-.1-1.65.1-1.74v-1.06l.19-2.7v-2.91l-.19-1.45v-.86l.19-1.55-.19-1.74v-.67l.19-1.74-.1-2.41.1-2.13-.19-1.65.1-.96-.1-1.26-.1-1.93-.1-1.74v-2.61l.1-1.84.1-1.15v-.98l.19-1.53.19-1.26.5-.38,1.74-.98,1.44-.1,1.84-.1,2.13.19,2.03.38,1.26.88,1.55,1.93.96,1.44,1.65,2.33,1.34,2.13,1.26,1.53,1.26,1.93,1.34,1.74.59.78.96,1.73,1.07,1.36,1.63,1.84,1.26,1.74,1.07,1.15,1.92,2.32,2.33,3.1,1.44,2.32,2.32,3.1.98,1.06.77,1.17,1.26,1.84,1.74,2.03,1.74,2.7.96,1.15.67.88.98.77h1.06l.29-.48.21-2.13.1-2.03v-9.67l.19-2.7v-1.74l-.1-1.84v-1.74l.19-1.34v-6.47l-.19-.98.1-1.55-.1-1.93v-1.53l-.1-1.45v-2.7l.1-1.84.48-1.74.77-.58,1.07-.59.86-.19,1.26-.1,1.06-.29h2.81l1.15.58.88.98.67,1.55.19,2.51-.19,2.22-.1,1.06.19,1.84-.1,1.45.1,1.36-.1,1.44.1.98v3.77l.1,2.8v5.02l.29,1.45v.88l-.19,1.25.19,2.03-.1,1.07.1.86-.29,1.07v11.4l-.1,2.7.1,1.45v10.92l.29,1.65-.19,2.32-1.06.98-.78.29-.96.19-2.13-.19ZM832.31,949.4l-1.84-.48-1.34-1.36-.4-1.36.1-2.22v-3.87l.11-2.32-.21-1.53.1-2.22-.19-2.43.1-1.25.1-1.07-.29-1.65v-2.99l.19-2.32-.19-1.93.29-1.74-.1-1.17v-1.73l-.29-1.74.1-1.17v-1.55l-.29-2.7-.1-1.65.29-2.89v-2.8l.1-2.62-.1-1.93v-9.27l-.1-1.93.38-1.55.5-.86.58-.58,1.26-.88,1.82-.19h1.74l2.03.1,1.55.48.77.88.78,1.25.1,1.74.1,2.41v1.65l-.1,1.07.19,1.63-.1,2.43v2.32l.19,1.65-.1,2.41-.1,2.99v1.93l.1,1.36v2.41l.1,2.13-.1,2.61.1,4.54-.19,2.72v1.25l.1.88v5.4l.1,1.55v5.04l.19,1.06v4.54l-.1,2.22-.48,2.72-.48,1.06-.5.58-.67.3-1.74.67h-2.03l-.77.1-1.26-.1ZM914.37,949.49l-3.1.1-2.03-.38-1.25-.88-1.36-1.73-1.65-2.22-3.87-5.52-1.84-2.41-.96-1.36-2.13-3.2-2.32-3.28-1.74-2.22-1.45-1.65-.96-1.45-.88-.86-2.03-2.91-1.25-1.53-.88-.88-.67-1.25-1.17-1.26-2.22-2.99-1.84-2.72-1.15-1.53-1.26-1.36-.77-1.07-.58-.58-.98-.38-.86.48-.1,1.84.1,2.22v1.93l-.1,2.03.19,2.99v3.96l.1,3.96.1,2.43.29,1.82-.1,3.01v4.06l-.19,2.7v1.45l-.1,2.03.1,1.55-.1,1.25v1.74l-.19,1.55-.69,1.25-.96.69-.86.29-1.55.29h-1.26l-.67.1-2.03-.1-2.03-1.36-.77-1.44-.3-1.55.1-1.74.21-1.84-.11-1.84v-1.25l-.1-1.74v-1.84l.21-1.36-.11-2.51-.19-1.84-.29-1.84.1-2.89v-1.65l-.1-1.65.1-1.74v-1.06l.19-2.7v-2.91l-.19-1.45v-.86l.19-1.55-.19-1.74v-.67l.19-1.74-.1-2.41.1-2.13-.19-1.65.1-.96-.1-1.26-.1-1.93-.1-1.74v-2.61l.1-1.84.1-1.15v-.98l.19-1.53.19-1.26.5-.38,1.74-.98,1.44-.1,1.84-.1,2.13.19,2.03.38,1.26.88,1.55,1.93.96,1.44,1.65,2.33,1.34,2.13,1.26,1.53,1.26,1.93,1.34,1.74.59.78.96,1.73,1.07,1.36,1.63,1.84,1.26,1.74,1.07,1.15,1.92,2.32,2.33,3.1,1.44,2.32,2.32,3.1.98,1.06.77,1.17,1.26,1.84,1.74,2.03,1.74,2.7.96,1.15.67.88.98.77h1.06l.29-.48.21-2.13.1-2.03v-9.67l.19-2.7v-1.74l-.1-1.84v-1.74l.19-1.34v-6.47l-.19-.98.1-1.55-.1-1.93v-1.53l-.1-1.45v-2.7l.1-1.84.48-1.74.77-.58,1.07-.59.86-.19,1.26-.1,1.06-.29h2.81l1.15.58.88.98.67,1.55.19,2.51-.19,2.22-.1,1.06.19,1.84-.1,1.45.1,1.36-.1,1.44.1.98v3.77l.1,2.8v5.02l.29,1.45v.88l-.19,1.25.19,2.03-.1,1.07.1.86-.29,1.07v11.4l-.1,2.7.1,1.45v10.92l.29,1.65-.19,2.32-1.06.98-.78.29-.96.19-2.13-.19ZM968.15,951.33l-1.74-.19-1.84-.48-2.03-.4-.96-.29-1.55-.48-2.72-.77-1.82-.78-3.49-1.93-1.93-1.53-1.36-.88-1.06-.96-1.84-1.55-1.65-1.74-1.15-1.65-1.55-1.93-1.45-2.22-1.15-2.61-.78-2.13-.58-1.17-.38-1.25-.5-1.93-.29-1.55-.19-1.06-.29-1.65-.19-1.84-.19-.88.1-1.15-.19-2.03.19-1.55v-.77l.1-1.65.38-1.55.19-1.44.38-1.36.21-1.07.38-1.25.48-.88.29-.86.19-.67.78-1.45.86-1.55.58-.86.98-1.84,1.53-1.84,1.36-1.93,2.22-2.13,2.22-1.84.98-.86,1.55-.98,1.92-1.25,1.07-.59,1.17-.77,1.06-.58,1.07-.4,1.63-.48,2.43-.77,2.32-.78,2.03-.29,1.25-.29h2.22l1.93-.1,2.22.29,2.43.19.67.19,1.45.21,1.92.48,1.45.29.98.29,2.41.88,1.45.77,1.06.48.86.58,2.91,1.36,1.84,1.45,1.53,1.06,1.07.98.67.58,1.17,1.45,1.45,1.84.67,1.34.29,1.45-.58,1.93-.98,1.45-1.34,1.06-2.03,1.07-2.13.1-1.36-.5-1.45-1.25-1.93-1.84-2.22-1.84-2.41-1.55-2.22-1.25-1.74-.69-1.55-.48-5.4-.96-1.84-.19-.48.1-2.13.19-3.29.58-2.13.48-1.45.69-2.13,1.06-2.03,1.26-1.15.96-.88.88-.77.67-2.7,3.09-.5.88-.67.96-1.06,2.32-.78,1.93-.48,1.55-.67,2.13-.4,2.81v3.28l.3,1.65.19,2.32.19,1.65.38,1.55.58,1.34.59,1.17.67.96.58,1.07.88.86.67.88.86,1.34.78.98,1.44,1.25,2.81,2.32,3.18,1.84,2.72,1.07,2.61.67,1.74.38,2.22.19,3.77-.29,1.93-.29,2.51-.67,1.84-.58,3.28-1.55,2.03-1.36,1.45-1.34,1.84-2.03.86-1.26.98-1.45.96-1.74.98-1.93.38-1.53.19-1.26-.1-.96-1.26-.78h-3.96l-2.7.1-.96-.19h-3.58l-2.91.1-1.15.1-1.36.1-.86-.19h-1.45l-2.03-.19-1.55-.58-.77-1.17-.38-1.53-.29-2.62v-1.93l.38-1.06.77-1.17.98-.58.96-.29h3.96l3.68-.29h2.89l1.26-.1h2.13l6.86.1h1.84l3.87.19,3.39.29.96.29,1.07.58,1.44,1.55.98,3.01v4.06l-.38,3.47-.4,1.84-.29.88-.19,1.34-.86,2.22-.69,2.13-.58.98-.58,1.34-.88,1.55-.58.98-.77,1.25-1.17,1.45-.96.96-1.55,1.84-2.03,1.93-.96.78-1.07.77-.96.48-.59.5-1.84,1.15-.77.29-1.93.98-1.93.67-1.45.29-1.34.38-.78.29-.86.11-1.45.38h-1.63l-.88.29-1.84.1h-1.84l-1.15.19-2.13-.19ZM853.56,631.44c-.88,3.18-3.98,6.94-6.5,6.94-5.02-2.76-1.91-8.54,1.29-11.37,2.21-2.88,5.47.86,5.21,4.43ZM923.72,545.59c-2.95-8.2-15.27,13.98-18.41,17.26-15.33,18.52-33.26,34.03-47.14,54.58.13,3.37,2.97,8.06,5.4,4.64,13.29-14.78,26.16-30.18,38.34-46.73,7.09-8.14,14.93-14.94,21.72-23.64,1.37-1.29,1.61-3.37.53-5.15-.07-.16.07-.52,0-.68-.07-.16-.37-.11-.45-.27ZM952.44,506.37c-6.71,4.51-11.15,13.65-17.03,19.9-2.24,3.28-7.3,6.81-3.74,11.6,3.31,6.19,12.11-10.13,16.03-12.27,3.3-4.65,12.46-9.74,8.97-17.72-.98-1.6-2.61-2.34-4.23-1.51ZM926.51,688.04c-.25-1.53-.93-2.04-1.97-1.4-13.68,4.34-27.54,8.29-41.19,12.74-8.7,2.43-18.42,5.68-27.76,9.21-1.3.19-1.18,3.32-1.17,3.42.19,2.25,1.8,3.74,3.4,3.33,16.33-4.19,31.25-11.23,47.15-16.46,6.79-2.55,13.54-5.41,20.37-7.66,1.3-.19,1.83-1.53,1.18-3.15,0,0,.27-.16.26-.17s-.28.13-.28.12ZM1008.33,660.45c-.29-1.99-1.26-2.83-2.66-2.17-17.04,3.33-30.52,8.03-48.21,14.65-10.08,4.01-19.5,8.46-23.58,10.21-1.28.27-1.87,1.56-1.28,3.25,0,0-.29.14-.29.15s.3-.1.3-.1c-.7,6.46,45.08-10.32,50.53-12.05,3.69-2.12,28.72-8.43,25.19-13.93ZM1047.02,642.53c-7.52,4.02-23.79,9.98-30.84,12.61-1.86.42-2,2.75-1.72,4.58.16-.08.14-.08,0,.03,0,0,.14-.09.14-.08,1.11,3.53,14.34-4.17,17.85-4.01,4.56-3.16,20.83-.17,19.45-9.73-.48-2.61-2.37-4.64-4.88-3.39ZM874.69,724.68c-11.6-.46-23.57,4.59-36.14,6.23-11.69,2.25-25.11.26-36.89,4.07,7.63-.26,15.59-6.82,22.85-8.6,5.31-3.21,22.27-2.98,23.67-9.05.66-2.5-.61-4.34-1.12-4.68-.51-.34-.99-1.89-1.57-1.69-9.71,3.24-20.06,8.29-31.34,12.07-9.92,4.08-22.23,4.32-32.31,10.06,12.57-4.27,24.79-14.64,36.89-20.2,16.21-8.61,32.08-13.32,46.94-24.13,3.83-2.79,10.68-.36,12.17-7.11.5-1.02.58-4.04.16-4.46-.43-.41-.88-1.9-1.42-1.61-31.57,19.58-65.84,35.35-98.04,52.97,5.6-1.75,10.34-9.86,15.22-12.97,5.52-4.39,11.11-7.06,15.52-10.56,4.92-5.62,15.09-11.44,15.96-13.06,3.08-5.71-2.22-7.89-3.13-6.28-.73,1.29-1.69,2.3-2.8,2.85-8.25,4.02-14.77,13.39-22.96,19.24-6.79,6.29-16.44,9.44-22.46,17.03,8.6-7.29,15.93-20.69,23.96-29.22,9.5-11.14,18.8-19.98,24.69-26.71,2.92-3.28,5.15-7.75,8.08-11.02,2.2-3.72,11.5-5.94,10.39-11.21-.38-3.23-2.67-4.36-3.27-4.5-3.77-2.68-6.68,8.46-9.84,10.99-2.84,3.49-6.42,5.8-9.26,9.28-7.83,9.19-14.97,19.59-22.87,28.85-7.51,9.77-17.95,17-24.4,27.6,6.83-8.04,11.27-21.48,17.5-30.81,3.23-7.63,19.93-25.57,18.31-31.53.22-1.41-1.51-3.61-2.42-3.64s-2.24-.76-2.86.33c-5.94,10.41-11.06,21.79-17.08,32.22-5.99,10.37-12.88,19.77-18.93,30.15.03,1.45.06,1.11.86.78,5.4-17.84,11.79-34.8,19.25-50.88,2.09-8.79,5.95-20.11,9.87-27.69,2.52-11.49,6.72-21.38,11.84-30.86.56-1.04.66-2.44.22-3.58-.48-1.27-3.48-4.43-4.22-4.21-4.29,1.24-6.33,20.55-9.86,28.56-8.34,16.37-13.55,33.48-19.42,51.75-3.34,10.7-10.09,20.75-12.29,31.77,2.46-4.11,1.09-11.72,2.45-16.76.95-5.37,2.97-10.27,3.88-15.42-.41-4.72,1.27-13.27,3.32-18.7.15-.83-.97-1.49-1.23-2.2-.39-2.2-2.73-3.48-4.14-2.48-4.72.98-2.62,14.39-4.43,19.73-.64,6.07-1.95,18.96-4.46,25.13,2.45-14.01,1.31-37.1,2.73-51.59.93-14.87,2.97-29.42,3.93-43.86.04-.64-.53-1.11-.98-1.6-.61-.66-1.36-1.04-2.14-1.05-1.6-.04-3.46,1.06-3.67,1.34-1.92,2.5-.68,33.03-1.64,49.85-.41,16.49-4.18,34.21-3.5,50.48,1-9.41-2.49-20.29-2.64-29.83-.7-10.07-.25-19.97-.85-29.23-.07-1.06-1.34-1.33-1.87-1.98-.67-1.09-2.78-.92-3.34.26-2.09,2.32,1.9,26.42,1.86,36.75,1.21,9.92-.66,21.73,1.66,30.88.35-5.84-3.93-11.74-4.86-17.62-1.4-5.75-1.73-11.92-3.08-17.56-5.73-22.22-13.52-60.81-18.12-67.41-1.46-2.1-2.49-.67-3.29.72-1.02,1.79-2.3,3.12-1.54,5.15,1.66,4.42,2.52,9.03,2.63,14.24,4.6,16.22,8.68,34.59,12.43,51.17,4.15,11,7.17,22.46,9.17,34.69,0,.03.78.48.76.49s.17-1.09.16-1.12c-6.11-13.36-13.15-25.92-19.14-39.15-.17-.37-.41-.7-.6-1.05-3.31-6.26-5.61-13.68-8.22-20.52-1.47-3.84-2.95-7.68-4.6-11.39-1.15-2.6-3.07-7.28-5.3-8.41-2.41-1.22-3.65,2.49-3.81,3.15-.25,1.05.81,2.57,1.2,3.38.65,1.38,1.31,2.75,1.98,4.12,5.36,10.98,11.12,21.57,16.24,32.77,6.59,13.1,11,29.73,18.26,41.57-4.79-10.42-13.82-17.77-18.84-26.08-11.32-17.94-18.21-27.93-28.79-42.73-3.36-5.82-5.89-12.7-9.73-17.91-.92-1.32-2.63-1.52-3.58-2.81-1.36-1.69-7.46-3.99-7.83-1.19-2.17,5.1,3.6,6.71,5.34,10.13,1.68,2.55,2.6,6.13,4.36,8.57,7.1,7,13.8,14.28,18.72,24.49,3.8,5.68,9.29,11.56,14.65,19.49,4.55,5.7,8.11,16.43,13.91,21.58-4.92-7.99-13.47-12.39-19.06-19.16-6.33-6.69-15.89-19.31-17.59-20.49-2.21-1.54-7.35,1.32-4.54,6.52,2.33,1.94,30.66,30.71,42.32,44.79-2.07-1.07-3.45-3.13-4.79-5.37-5.92-2.72-11.14-6.38-15.68-12.46-5.68-3.39-10.74-7.71-15.47-13.25-8.85-7.62-18.45-13.39-27.6-20.24-9.15-6.85-25.71-21.28-27.17-21.36-2.33-.14-3.5,1.1-4.36,3.2-1.05,2.56-.38,5.74,1.5,7.09,18.18,13.06,35.88,27.35,53.81,41.03,5.91,2.53,11.25,6.12,16.36,10.95,3.56.95,6.82,2.4,9.87,5.25-5.82-1.16-11.02-3.76-16.09-7.87-8.88-2.76-28.76-12.2-37.66-18.25-.67-.46-1.4-.7-2.15-.73-1.76-.09-2.49-.23-3.46-1.1-1.43-1.29-3.38-.4-4.05,1.78-.04.14-.08.27-.13.41-.68,2.25.3,4.8,2.02,5.27,6.14,1.67,11.9,4.5,17.46,8.77,8.74,4.26,17.86,7.07,26.63,11.35,8.74,4.27,17.09,9.98,25.85,14.27,1.52.9-1.52-.47-3.13-.98-9.35-6.98-21.35-5.18-31.66-9.09-25.26-9.09-50.53-17.14-75.97-26.8-1.1-.42-2.25-.4-3.34.05-4.28,1.78-10.05,7.11.13,9.07,21.04,3.22,49,12.56,68.74,20.67,6.35,2.2,13.05,2.91,19.58,5.14,6.5,1.51,13.33,7.66,19.78,7.48-11.11-3.75-23.98-1.82-35.51-4.18-11.7-1.68-32.88-8.48-34.72-6.66-.39.39-.53.97-.56,1.72-.19,3.85,2.08,7.07,4.86,7.2,17.94.89,35.82,3.23,53.68,6.98,19.72.19,27.18-1.54,50.8-1.54,25.37,0,25.37,1.54,50.75,1.54,0,0-.03-1.54-.03-1.54,0,0,.09,1.54.09,1.54,11.63-1.69,23.26-4.97,35.02-6.72,11.73-1.75,23.55-2.79,35.25-3.71,4.32-.34,3.3-7.48-.6-7.64ZM590.96,692.69c2.41-4.32-15.4-7.5-18.6-9.39-.16-.1-.33-.18-.5-.23-14.33-4.04-27.95-9.85-42.22-11.84-1.41-.2-2.68,1.27-2.81,3.24,0,.02,0,.05,0,.07-.1,1.62.57,3.17,1.68,3.72,7.78,3.92,16.1,6.5,24.2,9.06,11.68,4.35,23.52,7.59,35.41,10.58,1.99,1.23,2.54-3.36,2.85-5.21ZM508.47,667.28c.38-1.67-.16-2.89-1.42-3.08-12.13-4.32-24.64-8.71-36.75-12.62-.15-.05-.3-.08-.45-.1-4.91-.75-22.31-12.5-23.05-3.5-.19,2.32.93,4.5,2.54,5.2,12.16,5.33,25.42,6.6,38,11.49.07.03.14.05.21.07,6.16,1.8,12.42,3.33,18.56,5.24,1.92.82,2.35-2.6,2.36-2.7ZM557.39,646.11c.59-1.31.25-2.75-.82-3.22,0,0,.05-.16.05-.16s-.04.16-.04.16c-9.49-3.78-18.85-12.69-28.43-13.99-2.75,1.89-2.68,8.49.65,9.34,7.99,3.24,17,6.58,24.63,10.54,1.69.97,2.54-1.5,3.87-2.39.19-.02.12-.1.09-.29ZM633.24,678.1c-3.11-1.59-4.89,2.58-6.28,5.92-.53,3.14,4.59,3.09,6.24,4.37,2.28,1.09,4.4-.91,5.25-3.82,1.64-4.42-3.24-5.13-5.22-6.47ZM619.19,677.16c-.06-3.08-.12-6.45-2.68-7.37-7.55-3.12-15.16-6.68-22.82-10.07-7.62-3.38-15.3-6.59-22.79-10.18-1.62-1.18-3.6.43-4.35,2.54-1.66,3.48,21.67,12.75,25.05,15.75,4.7,1.09,27.13,18.54,27.6,9.27,0,0,.09-.1.09-.1-.05,0-.1.16-.1.16ZM730.7,458.48c7.17.8,4.42-13.9,3.47-19.67-1.34-4.33-6.5-4.04-7.17.9-.14,5.43-.8,17.1,3.71,18.77ZM733.5,466.48c-1.76.02-4.61.58-4.12,3.98.82,14.83,1.65,29.64,3.29,44.35.97,4.94-.64,16.32,4.27,16.49,1.6-.3,3.32-.89,2.99-3.75-.89-7.13-1.01-64.8-6.43-61.07ZM747.1,630.24c.09-25.44-3.24-51.52-5.83-76.52-.3-4.36.68-13.1-3.98-12.75,0,0,0-.37,0-.37,0,0,0,.37,0,.37-1.44-.19-2.29,1.09-1.96,3.08,2.24,28.5,1.36,57.87,5.86,86.04.31,1.92,1.52,3.34,2.93,3.38.97.02,1.95-.23,2.69-.88.51-.62.12-1.81.43-2.52-.07,0-.14.19-.14.18ZM817.39,634.92c1.03,4.54,5.23-4.91,7.06-6.85,12.55-20.58,25.55-40.64,37.28-62.18,1.18-2.56,4.86-8.31,5.21-11.79.35-3.5-.68-9.21-4.26-3.8-16.65,25.13-31.53,52.65-46.1,80.18-.57.6-.65,1.27-.11,2.01.11.99.36,1.76.92,2.44ZM891.12,509.28c-4.8-3.75-6.57,6.45-9.15,10.16-1.12,3.92-7.37,9.58-3.28,13.03,3.29,2.19,5.29-5.78,7.77-7.96,2.28-4.23,9.7-9.93,4.66-15.24ZM954.1,639.35c-.7-5.5-9.87,3.23-12.49,3.65-14.73,9.46-31.81,17.72-47,25.25-1.29.99-2.89,1.68-4.04,2.86-.22.51-.08,1.19-.04,1.82-.18.92-.16,1.66.21,2.49.59,5.55,6.7-.43,8.87-1.37,4.91-2.7,11.03-5.7,17.07-8.95,13.11-7.88,24.23-11.72,37.18-18.63,2.53-.75.87-5.05.23-7.11ZM1013.42,607.61c-2.09-6.22-9.78,2.55-13.42,3.07-6.42,3.65-12.03,6.42-18.61,9.28-5.04,3.33-9.79,3.53-14.24,8.14-.76,3.24.89,9.66,4.02,7.58,7.53-3.83,13.63-7.4,21.01-11.84,3.61-3.29,25.82-9.35,21.24-16.23ZM1028.68,599.91c-1.31-6.08-11.48-1.18-9.93,4.33,1.31,7.84,12.16,2.86,9.93-4.33ZM509.68,623.75c1.09-6.16-9.46-9.14-10.13-3.3-1.74,7.67,9.42,11.06,10.13,3.3ZM894.72,632.79c-2.22-5.55-11.4,2.27-9.03,7.18,2.48,7.27,12.32-.83,9.03-7.18ZM489.61,709.47c.11-5.86-8.02-3.69-10.96-5.52-5.3-1-5.8,9.55-.68,9.87,3.79-.97,11.56,3.84,11.64-4.34ZM529.96,713.38c-9.92-.8-20.04-2.68-29.95-3.33-.64-.04-1.49.31-2.27.75-1.97,1.1-1.71,5.12.38,5.64s4.97.24,6.53.82c.24.09.47.17.72.21,24.41,3.15,48.87,8.25,73.44,9.71,1.74.62,1.81-.33,2.2-1.36.36-.95.6-1.99.65-3.07.07-1.34.02-2.27-1.9-2.5-10.51-2.28-37.58-6.54-49.8-6.88ZM615.61,723.16c-7.53-1.53-16.69-2.57-24.59-3.11-1.9-.66-3.16,2.05-3.41,4.16-2.58,6.22,23.58,5.9,27.29,6.99.11.03.21.06.31.07,6.82,1.02,13.66,1.79,20.53,2.29,1.56.45,1.85-1.2,2.04-2.83.05-.42.05-.85-.01-1.27,0-.01,0-.02,0-.03-.2-1.47-.99-2.68-2.04-2.99-6.52-1.94-13.49-2.2-20.12-3.27ZM581.14,562.35c2.26-1.67.42-4.85-1.23-5.76-8.29-8.9-17.01-17.01-24.46-27.33-2.08-2.64-4.33-1.79-5.48.33-3.33,6.62,5.01,9.81,7.79,13.39,5.66,3.19,19,25.56,23.38,19.37ZM632.75,616.07c.62-1.11.5-2.25-.37-3.02-13.42-16.2-27.12-31.08-41.81-45.28-1.21-1.98-5.1,2.12-5.43,3.97,4.23,7.83,11.4,13.5,16.8,19.83,8.75,9.95,18.02,18.93,27.36,27.78,1.72,2.05,2.95-1.4,3.44-3.28ZM679.52,672.44c1.19,1.13,1.82.3,2.13-1.08.58-2.54-.14-5.33-1.63-7-13.18-14.8-26.56-27.49-39.53-42.03-2.55-3.33-5.64,3.1-2.88,5.27,12.65,13,29.49,32.09,41.91,44.84ZM694.58,522.05c5.85-1.46.11-11.98-.55-16.72-2.15-10.07-4.16-20.28-6.39-30.3-1.17-6.01-7.86-8.01-8.48-.48-.16,6.09,2.45,11.52,4.03,17.03,2.84,9.18,5.33,18.55,7.79,27.94.33,2.35,2.22,3.06,3.6,2.54ZM714.79,598.68c5.31-1.52-2.2-19.23-2.56-24.12-3.11-14.4-6.13-29.41-11.01-42.71-7.43-2.34-5.99,5.21-3.82,11.87,2.14,6.54,13.49,59.95,17.39,54.95ZM810.43,594.17c5.87,2.72,6.31-12.1,9.13-16.84,2.98-9.45,6.18-18.72,10.22-27.4,1.82-6.48,8.08-14.04,6.37-20.89-.15-3.22-2.83-8.03-4.62-3.62-4.28,11.22-7.46,23.4-11.88,34.6-3.35,9.17-6.81,18.27-10.87,26.93-1.42,2.68-.63,6.18,1.66,7.22ZM563.17,601.15c-2.08,1.41-3.72,5.79-1.01,7.6,14.08,10.4,28.11,23.02,42.94,30.69,1.64.85,3.51-.87,3.39-3.31-.05-1.03-.45-2-1.34-2.61-6.09-5.1-12.73-10.84-20.2-16.76-.1-.08-.19-.14-.3-.2-4.69-2.62-20.67-18.51-23.47-15.42ZM540.4,585.26c3.64-7.18-5.94-9.72-9.09-12.58-10.59-8.1-21.29-15.91-31.53-24.84-2.84-3.13-6.34,1.71-5.37,5.91,4.87,6.33,12.48,8.84,18.13,14.13,6.63,5.06,13.47,9.66,19.78,15.46,2.46,1.66,6.42,5.99,8.07,1.92ZM636.11,488.59c3.28-2.77.61-8.26-.98-11.54-1.76-3.56-3.68-11.74-8.03-9.63-5.29,3.71-.22,11.19,1.6,15.27,1.49,3.54,4,9.33,7.41,5.9ZM664.85,551.89c6.29-.19-17.11-40.17-18.74-46.21-1.59-3.68-4.43.53-4.99,3.14.69,3.22,2.37,6.07,3.68,8.9,4.69,11.61,9.69,23,14.93,34.18,1.01,2.7,3.62.78,5.13,0ZM696.94,625.91c5.39-.61.34-7.63-1.09-11.9-3.63-5.16-10.08-29.93-14.71-27.94-1.94.36-3.32,3.48-1.97,5.97,3.85,6.21,13.82,33.93,17.77,33.87ZM678.04,572.92c-1.39-5.05-5.61-10.74-8.21-3.81-.6,3.77,2.04,8.41,4.13,10.52,2.79,1.52,5.84-2.95,4.09-6.71ZM790.33,529.67c-4.3-6.63-6.25,29.2-7.56,32.84-4.61,23.89-9.34,49.34-14.33,73.05.07,2.56-2.32,8.96-.06,9.61,0,0-.18.41-.18.41s.18-.41.18-.41c5.7,11.52,7.93-9.56,7.76-14.06,1.82-10.89,3.9-22.14,5.72-33.47,2.79-21.53,7.42-41.26,11.41-62.12.5-.96-1.79-4.99-2.94-5.85ZM792.73,515.19c7.46,3.43,7.07-14.65,8.1-21.18,1.98-16.19,6.64-31.43,8.85-47.57.23.01.25.09,0-.04.77-2.43-.5-3.8-1.44-5.45-7.42-8.82-8.79,25.8-10.21,31.81-.18,9.68-11.53,37.6-5.31,42.43ZM878.4,644.68c-2.06-7-12.65,7.49-16.35,8.84-5.77,4.8-11.65,9.33-17.72,13.36-2.32,2.4-7.51,4.02-5.41,9.12,2.25,4.6,5.66-.58,8.3-2.07,5.57-5.19,11.36-9.89,17.26-14.31,2.85-3.62,17.03-9.26,13.91-14.94ZM959.82,582.21c-2.76-6.07-7.18,1.49-10.34,3.21-6.97,6.85-14.48,12.5-22.05,17.94-8.41,6.57-17.15,12.44-25.18,19.83-2.72,1.76-1.68,6.55.41,8.03,15.73-6.82,29.21-24.04,44.36-33.83,3.53-3.76,16.39-6.91,12.79-15.16ZM951.06,717.59c1.48-5.94-25.7,2.44-29.37,1.87-12.68,1.15-25.89,2.83-39.04,4.91-2.11.1-1.48,1.75-1.61,3.68.62.22.43,1.42.92,1.81,20.87-1.69,41.75-6.76,62.4-8.34,1.99-1.08,6.82.79,6.71-3.25,0-.17,0-.52,0-.69ZM1007.51,706.47c-.08.02-.16.04-.24.05-8.93,1.37-16.98,2.14-24.11,3.08-9.69,1.67-17.24,1.87-23.92,3.97-1.42.45-2.42,2.42-2,4.37.26,1.21.93,2.1,2.16,1.81,16.76-.89,33.39-5.05,50.06-6.4.13-.01.26-.04.39-.08,1.54-.47,3.73-.24,3.49-3.34-.29-3.65-3.88-3.99-5.82-3.45ZM1030.83,704.82c-.88-6.49-10.57-4.23-9.46,2.38.44,6.61,11.01,4.86,9.46-2.38ZM630.27,565.02c.52-.87.47-1.91-.13-2.68-5.78-9.03-11.57-18.04-17.31-27.11-1.74-2.58-3.88-2.18-5.18-.43-4.2,7.39,6.96,14.4,9.58,20.12,3.18,4.3,6.4,8.53,9.53,12.88,1.57,2.26,2.85-1.03,3.51-2.8ZM656.29,601.13c-6.35-9.43-12.75-18.8-19.17-28.14-1.44-2.2-3.24-.81-3.8,1.52.12,1.32-.07,2.89.98,3.86,9.13,13.26,18.4,26.43,27.13,40.14,12.02,1.23-2.39-12.89-5.13-17.37ZM764,504.97c-.4,4.56,4.79,5.96,5.24,1.02-.03-5.12,3.04-11.2.92-15.82-8.1-7.2-6.11,8.45-6.15,14.8ZM768.35,523.02c1.35-4.99-4.52-7.99-5.33-2.69-.46,2.39-.23,5.73,2.04,5.71,1.48.32,3.28-.55,3.29-3.02ZM760.74,591.69c6.72,2.99,4.58-27.87,6.01-34.08-.33-6.03,4.27-22.45-2.08-23.25,0,0,0-.23,0-.23s0,.23,0,.23c-5.55.43-3.48,16.77-4.31,22.51.45,5.6-4.06,35.51.39,34.81ZM348.99,653.56c3.68-15.73-3.82-29.39-20.53-33.3-14.07-3.3-25.88,2-35.39,8.73l-21.16,15.14c-5.85,4.22-10.23,5.38-17.04,3.78-8.22-1.92-11.32-7.49-9.5-15.29,2.75-11.69,12.8-11.98,24.13-10.19l-.49-14.22c-20.19-2.83-31.54,3.62-35.76,21.57-3.81,16.29,3.27,28.67,19.82,32.55,11.29,2.66,19.16.97,27.47-5.01l21.15-14.99c7.92-5.64,14.43-9.54,24.59-7.16,8.62,2.03,12.21,7.42,10.32,15.49-2.84,12.12-15.68,12.33-27.98,10.33l.5,14.8c19.74,3.45,35.26-2.59,39.86-22.21ZM359.49,609.76l6.23-13.84-24.35-17.04,9.66-21.53,28.79,7.1,6.26-13.97-115.85-24.84-6.38,14.22,95.65,69.89ZM331.66,572.19l-43.72-30.12,51.62,12.5-7.9,17.62ZM397.53,531.4l8.02-11.16-64.27-46.18,83.73,19.11,6.02-8.36-94.13-67.66-7.86,10.92,62.54,44.94-81.74-18.21-6.42,8.94,94.12,67.67ZM483.44,432.18l21.41-15.54c19.68-14.28,18.92-30.16,4.48-50.07l-25.04-34.47c-13.77-18.98-27.68-23.54-48.51-8.43l-20.38,14.79,68.04,93.72ZM489.71,413.31l-54.18-74.62,7.06-5.13c13.42-9.74,19.19-4.74,29.68,9.74l22.09,30.42c11.01,15.17,16.99,23.89,2.77,34.23l-7.42,5.37ZM556.62,384.14l14.17-7.15-52.16-103.41-14.19,7.15,52.17,103.41ZM598.92,364.29l42.81-14.43-3.7-10.97-27.5,9.28-13.56-40.25,22.08-7.45-3.65-10.85-22.09,7.46-12.24-36.32,27.24-9.18-3.84-11.38-42.54,14.35,37,109.74ZM692.72,341.58c11.33-1.55,16.46-8.46,18.4-17.39l3.36,12.95,10.06-1.37-7.8-56.8-29.05,3.97,1.57,11.34,14.59-2.01,1.09,7.95c2.38,17.28.49,26.63-11.99,28.34-12.6,1.73-16.55-5.96-18.83-22.54l-5.83-42.5c-1.94-14.16-2.55-24.91,11.62-26.86,12.89-1.77,15.53,4.79,17.57,19.68l.49,3.53,15.02-2.06-.59-4.25c-3.11-22.66-12.95-32.3-34.48-29.34-24.22,3.33-28.74,18.83-25.3,43.9l5.27,38.4c3.41,24.79,13.3,38.01,34.84,35.05ZM780.78,338.58c23.24,1.74,32.62-12.33,34.32-35l3.28-43.92c1.69-22.66-5.53-37.13-28.79-38.86-23.37-1.76-32.68,11.32-34.39,34.12l-3.27,43.78c-1.71,22.96,5.31,38.11,28.84,39.88ZM781.73,325.88c-12.97-.96-14.76-9.56-13.8-22.4l3.79-50.62c.97-12.82,3.97-20.49,16.95-19.52,12.83.96,14.68,8.99,13.71,21.82l-3.79,50.62c-.97,12.83-4.01,21.07-16.85,20.1ZM859.54,270.54c10.29,1.86,15.88-5.64,19.34-20.12l3.21-13.5-16.3-3.87-3.74,15.73,7.38,1.76c-2.48,10.44-5.42,14.74-11.22,13.8l1.33,6.2ZM904.72,367.6c15.07,5.79,29.62.18,35.78-15.84,5.16-13.48,1.51-25.9-3.87-36.24l-12.15-23.02c-3.38-6.35-3.95-10.87-1.43-17.4,3.03-7.88,8.94-10.21,16.43-7.34,11.22,4.3,10.13,14.29,6.85,25.29l14.15,1.44c5.52-19.63.67-31.74-16.54-38.35-15.62-5.98-28.84-.64-34.94,15.24-4.14,10.82-3.55,18.85,1.26,27.89l12.01,22.99c4.51,8.62,7.49,15.59,3.77,25.32-3.18,8.29-9.01,11.1-16.75,8.13-11.62-4.46-10.1-17.19-6.43-29.11l-14.73-1.51c-6.12,19.09-2.22,35.29,16.61,42.51ZM990.42,412.64l12.72,9.98,33.45-42.66,17.45,13.69,7.06-9.01-17.44-13.68,23.83-30.38,22.51,17.65,7.15-9.11-35.22-27.63-71.52,91.15ZM1042.78,457.47l11.01,11.44,83.55-80.32-11.02-11.45-83.54,80.33ZM1074.14,491.29l9.17,13.31,44.73-30.89,7.15,10.37-36.12,43.34,8.86,12.82,38.46-46.51c8.66,6.52,19.18,4.14,30.37-3.59,18.14-12.51,19.13-26.42,5.97-45.48l-13.25-19.19-95.34,65.81ZM1137.59,467.15l31.52-21.79,4.07,5.89c8.37,12.13,5.89,18.34-5.29,26.07-12.24,8.44-19.09,6.06-26.81-5.13l-3.49-5.05ZM1129.45,588.51c6.42,14.82,20.6,21.3,36.34,14.49,13.24-5.73,19.58-17.03,23.21-28.09l7.96-24.78c2.18-6.86,5-10.42,11.44-13.2,7.74-3.35,13.55-.72,16.72,6.63,4.77,11.02-3.13,17.24-13.28,22.56l8.86,11.12c17.89-9.75,23.15-21.69,15.85-38.62-6.64-15.35-19.71-21.08-35.31-14.31-10.63,4.59-15.96,10.63-19.07,20.38l-8.02,24.65c-3.01,9.24-5.9,16.26-15.48,20.4-8.13,3.52-14.23,1.33-17.51-6.28-4.94-11.41,5.22-19.23,16.29-24.95l-9.2-11.6c-17.92,8.99-26.78,23.1-18.78,41.61ZM1151.12,648.48l3.65,15.74,101.15-23.58,4.33,18.54,11.7-2.74-12.43-53.35-11.7,2.71,4.44,19.09-101.14,23.57ZM269.07,985.58l7.35,12.95,27.64-9.36,11.42,20.18-22.38,18.64,7.42,13.09,87.04-77.27-7.55-13.33-110.94,35.09ZM315,985.39l49.28-17.1-39.92,33.59-9.36-16.5ZM322.92,1071.99l10,12.34,41.33-33.52,13.71,16.9,8.73-7.08-13.71-16.9,29.45-23.88,17.7,21.8,8.84-7.16-27.69-34.14-88.36,71.64ZM417.7,1169.47l24.72,17.58c16.59,11.79,31.2,6.5,42.6-9.52,9.36-13.16,10.12-24.17.88-34.69,9.95,5.18,19.06,1.32,27.19-10.13,11.32-15.91,8.51-28.93-8.2-40.81l-21.28-15.12-65.91,92.69ZM437.22,1169.39l24.82-34.9,7.66,5.45c11.33,8.05,11.17,17.25,2.95,28.8-8.54,12.03-15.17,15.05-26.73,6.84l-8.7-6.19ZM469.03,1124.65l20.67-29.08,3.1,2.19c13.16,9.37,18.11,14.27,9.09,26.96-7.82,10.99-14.31,13.1-25.18,5.37l-7.67-5.45ZM528.89,1237.91c20.84,9.47,34.24-.33,43.47-20.65l17.88-39.38c9.23-20.33,7.45-36.1-13.39-45.56-20.97-9.53-33.96-.61-43.25,19.83l-17.82,39.24c-9.35,20.59-7.99,36.94,13.11,46.52ZM534.06,1226.53c-11.63-5.28-10.38-13.82-5.15-25.32l20.62-45.38c5.22-11.52,10.59-17.55,22.23-12.26,11.51,5.22,10.49,13.23,5.26,24.72l-20.62,45.4c-5.22,11.51-10.82,18.07-22.33,12.83ZM610.52,1266.03l15.36,3.93,25.3-98.82,18.1,4.63,2.92-11.41-52.12-13.35-2.93,11.44,18.64,4.77-25.28,98.82ZM692.72,1281.5l15.8,1.47,9.44-101.56,18.6,1.73,1.1-11.75-53.58-4.97-1.09,11.75,19.16,1.77-9.44,101.56ZM764.11,1284.59l44.84-2.86-.72-11.36-29.01,1.86-6.52-102.16-15.83,1.02,7.22,113.51ZM845.03,1276.18l43.37-9.48-2.44-11.11-27.86,6.1-8.92-40.75,22.36-4.91-2.4-10.97-22.36,4.91-8.05-36.79,27.59-6.03-2.53-11.52-43.09,9.43,24.34,111.14ZM1000.34,1223.71c14.07-7.34,19.42-21.68,11.62-36.64-6.55-12.58-18.08-17.96-29.18-20.74l-24.86-6.05c-6.87-1.64-10.57-4.16-13.75-10.26-3.84-7.36-1.67-13.24,5.3-16.87,10.47-5.45,17.13,1.84,23.07,11.41l10.27-9.47c-10.85-16.83-22.92-21.16-38.99-12.78-14.57,7.59-19.25,20.8-11.52,35.63,5.26,10.08,11.56,14.88,21.34,17.24l24.73,6.11c9.28,2.3,16.36,4.63,21.09,13.72,4.03,7.72,2.31,13.84-4.92,17.62-10.84,5.65-19.22-3.77-25.61-14.21l-10.71,9.85c10.08,16.92,24.55,24.59,42.11,15.43ZM1057.91,1188l12.44-9.85-33.04-41.71,22.88-18.12,33.05,41.7,12.43-9.85-70.62-89.14-12.43,9.87,30.51,38.51-22.9,18.12-30.51-38.52-12.43,9.85,70.6,89.16ZM1158.72,1096.24c14.77-17.47,8.99-33.03-8.05-47.43l-33.03-27.93c-17.03-14.4-32.69-16.98-47.47.49-14.87,17.58-9.83,32.49,7.31,47l32.92,27.82c17.26,14.61,33.36,17.74,48.31.06ZM1149.18,1088.17c-8.25,9.76-16.11,6.24-25.76-1.91l-38.05-32.19c-9.66-8.16-14-14.97-5.76-24.71,8.17-9.66,15.61-6.49,25.24,1.66l38.06,32.17c9.65,8.16,14.43,15.33,6.27,24.97ZM1202.3,1035.71l7.84-13.78-46.02-26.19,6.17-10.86c9.17-16.13,4.05-29.86-11.69-38.81-17.21-9.78-31.17-8.84-41.24,8.86l-13.95,24.55,98.89,56.23ZM1154.24,990.12l-33.1-18.82,3.67-6.47c7.86-13.8,12.44-13.62,26.48-5.63,12.21,6.94,13.28,12.72,6.55,24.57l-3.6,6.34ZM634.56,1041.31h16.66v-4.27h-10.7v-15.65h8.59v-4.22h-8.59v-14.12h10.59v-4.44h-16.55v42.7ZM671.47,1041.79c5.95,0,10.22-3.85,10.22-10.17,0-5.33-2.9-9.13-6.11-11.97l-7.22-6.33c-2.01-1.73-2.8-3.21-2.8-5.8,0-3.11,1.73-4.69,4.69-4.69,4.42,0,5.37,3.59,5.69,7.81l5.06-1.37c-.69-7.49-3.96-11.02-10.75-11.02-6.17,0-10.02,3.59-10.02,9.87,0,4.26,1.27,6.95,4.11,9.43l7.16,6.33c2.69,2.37,4.64,4.38,4.64,8.22,0,3.26-1.63,5-4.69,5-4.59,0-5.74-4.59-6.06-9.17l-5.27,1.42c.42,7.38,3.9,12.44,11.33,12.44ZM696.41,1041.31h5.95v-38.26h7.01v-4.44h-20.19v4.44h7.23v38.26ZM718.13,1041.31h5.64v-6.27h-5.64v6.27ZM750.49,1041.31h20.13v-4.75h-13.49l9.81-14.96c2.47-3.8,4.69-6.85,4.69-12.34,0-6.91-3.37-11.02-10.23-11.02-7.58,0-10.43,4.81-10.43,12.44v1.48h5.64v-1.42c0-4.07,1-7.86,5.06-7.86,3.17,0,4.27,2.43,4.27,6.32,0,4.81-2.22,7.38-4.59,11.18l-10.86,16.91v4.01ZM792.56,1041.79c7.27,0,10.54-5.22,10.54-12.59v-18.4c0-7.49-3.21-12.55-10.54-12.55s-10.59,5.06-10.59,12.55v18.4c0,7.32,3.32,12.59,10.59,12.59ZM792.56,1037.15c-3.95,0-4.91-3.96-4.91-7.91v-18.49c0-4.11.8-7.91,4.91-7.91s4.84,3.8,4.84,7.91v18.49c0,3.95-.89,7.91-4.84,7.91ZM813.7,1041.31h20.13v-4.75h-13.49l9.81-14.96c2.47-3.8,4.69-6.85,4.69-12.34,0-6.91-3.37-11.02-10.23-11.02-7.58,0-10.43,4.81-10.43,12.44v1.48h5.64v-1.42c0-4.07,1-7.86,5.06-7.86,3.17,0,4.27,2.43,4.27,6.32,0,4.81-2.22,7.38-4.59,11.18l-10.86,16.91v4.01ZM856.61,1041.31h5.37v-11.44h4.79v-5h-4.79v-26.26h-6.64l-11.11,25.36v5.9h12.38v11.44ZM849.64,1024.87l6.97-19.41v19.41h-6.97ZM289.32,786.61c-9.69,0-17.54,7.85-17.54,17.54s7.85,17.54,17.54,17.54,17.54-7.85,17.54-17.54-7.85-17.54-17.54-17.54ZM1211.64,786.61c-9.69,0-17.54,7.85-17.54,17.54s7.85,17.54,17.54,17.54,17.54-7.85,17.54-17.54-7.85-17.54-17.54-17.54ZM1364.36,749.87c0-338.75-275.6-614.36-614.36-614.36S135.64,411.12,135.64,749.87s275.6,614.37,614.37,614.37,614.36-275.6,614.36-614.37ZM1352.53,749.87c0,332.24-270.29,602.54-602.53,602.54S147.47,1082.11,147.47,749.87,417.77,147.35,750.01,147.35s602.53,270.29,602.53,602.53Z"/></svg>